<?xml version="1.0" standalone="no"?>
<!DOCTYPE svg PUBLIC "-//W3C//DTD SVG 1.1//EN" "http://www.w3.org/Graphics/SVG/1.1/DTD/svg11.dtd" >
<svg>
<metadata>
Created by FontForge 20090914 at Tue Oct 25 08:40:12 2016
 By www-data
TF(Headliners)Arrow -Medium,v14(Ship#1),11.26.94jtFOG351.Glyphs HL,Data &#38;owned by TFI. All world rights reserved.
</metadata>
<defs>
<font id="TFArrow-Medium" horiz-adv-x="432" >
  <font-face 
    font-family="TFArrow"
    font-weight="550"
    font-stretch="normal"
    units-per-em="1000"
    panose-1="2 0 6 6 7 0 0 2 0 3"
    ascent="800"
    descent="-200"
    x-height="459"
    cap-height="679.999"
    bbox="-121 -237 867 842.002"
    underline-thickness="20"
    underline-position="-113"
    unicode-range="U+0020-U+FB02"
  />
<missing-glyph horiz-adv-x="500" 
 />
    <glyph glyph-name="fi" unicode="fi" horiz-adv-x="415" 
d="M228 0c9.33301 4.66699 16.333 9.33594 21 14.0029s7 12.667 7 24v350c0 20.667 -9.33301 31 -28 31h-88v-381c0 -11.333 2.5 -19.333 7.5 -24s11.833 -9.33398 20.5 -14.001h-141c8.66699 4.66699 15.167 9.33398 19.5 14.001s6.5 12.667 6.5 24v381h-54v40h54v84
c0 19.333 2.66699 37.833 8 55.5s13.666 33.167 24.999 46.5s25.833 24 43.5 32s38.5 12 62.5 12c16.667 0 32 -1.5 46 -4.5s27.667 -9.16699 41 -18.5v-95c-2 8.66699 -5 18 -9 28s-9 19 -15 27s-12.833 14.667 -20.5 20s-15.834 8 -24.501 8
c-17.333 0 -30.666 -4 -39.999 -12s-16.166 -17.333 -20.499 -28s-7 -21.834 -8 -33.501s-1.5 -20.834 -1.5 -27.501v-94h106l95 14v-435c0 -11.333 2.5 -19.333 7.5 -24s11.167 -9.33398 18.5 -14.001h-139z" />
    <glyph glyph-name="fl" unicode="fl" horiz-adv-x="415" 
d="M262 611c0 17.333 -3.33398 28.835 -10.001 34.502s-13.667 8.5 -21 8.5c-17.333 0 -31.666 -4 -42.999 -12s-20.5 -17.333 -27.5 -28s-12 -21.834 -15 -33.501s-4.5 -20.834 -4.5 -27.501v-92h121v150zM233.999 0.00195312
c9.33301 4.66699 16.3301 9.33398 20.9971 14.001s7 12.667 7 24v381h-121v-381c0 -11.333 2.5 -19.333 7.5 -24s11.167 -9.33398 18.5 -14.001h-139c8 4.66699 14.333 9.33398 19 14.001s7 12.667 7 24v381h-54v42h54v82c0 19.333 3.66699 37.833 11 55.5
s17.833 33.167 31.5 46.5s30.167 24 49.5 32s41.333 12 66 12c11.333 0 22.833 -0.666992 34.5 -2s22.167 -3.66602 31.5 -6.99902c2.66699 -0.666992 7.33398 -1.33398 14.001 -2.00098s13.834 -1.16699 21.501 -1.5s14.834 -1 21.501 -2s11 -2.5 13 -4.5v-632
c0 -11.333 0.666992 -19.333 2 -24s6.33301 -9.33398 15 -14.001h-131z" />
    <glyph glyph-name=".notdef" horiz-adv-x="500" 
 />
    <glyph glyph-name="space" unicode=" " horiz-adv-x="212" 
 />
    <glyph glyph-name="exclam" unicode="!" horiz-adv-x="232" 
d="M161 43c0 -13.333 -4.83301 -24.666 -14.5 -33.999s-21.167 -14 -34.5 -14c-14 0 -26 4.66699 -36 14s-15 20.666 -15 33.999c0 14 5 25.667 15 35s22 14 36 14c13.333 0 24.833 -4.66699 34.5 -14s14.5 -21 14.5 -35zM167 590c0 -5.33301 -1 -18.333 -3 -39
s-4.66699 -45.667 -8 -75l-11 -95.5l-12 -99c-4 -31.667 -7.83301 -60.334 -11.5 -86.001s-6.83398 -44.5 -9.50098 -56.5c-3.33301 12 -7 30.833 -11 56.5s-8 54.334 -12 86.001l-12.5 99c-4.33301 34.333 -8.16602 66.166 -11.499 95.499s-6 54.5 -8 75.5
s-3 33.833 -3 38.5c0 32 4.83301 56.5 14.5 73.5s24.167 25.5 43.5 25.5s33.333 -8.66699 42 -26s13 -41.666 13 -72.999z" />
    <glyph glyph-name="quotedbl" unicode="&#x22;" horiz-adv-x="277" 
d="M115 640c0 -6 -2.16699 -16 -6.5 -30s-9.33301 -28.333 -15 -43s-11.167 -27.5 -16.5 -38.5s-9 -16.5 -11 -16.5s-5.66699 5.5 -11 16.5s-11 23.833 -17 38.5s-11.167 29 -15.5 43s-6.5 24 -6.5 30c0 14 4.66699 25.667 14 35s21.333 14 36 14
c13.333 0 24.833 -4.66699 34.5 -14s14.5 -21 14.5 -35zM237 640c0 -6 -2.16699 -16 -6.5 -30s-9.16602 -28.333 -14.499 -43s-10.833 -27.5 -16.5 -38.5s-9.5 -16.5 -11.5 -16.5s-5.83301 5.5 -11.5 16.5s-11.334 23.833 -17.001 38.5s-10.667 29 -15 43s-6.5 24 -6.5 30
c0 14 4.83301 25.667 14.5 35s21.5 14 35.5 14s25.667 -4.66699 35 -14s14 -21 14 -35z" />
    <glyph glyph-name="numbersign" unicode="#" horiz-adv-x="435" 
d="M188 452l-40 -226h76l40 226h-76zM400 452h-82l-40 -226h82l-10 -50h-80l-32 -176h-52l30 176h-77l-31 -176h-52l29 176h-83l8 50h84l40 226h-84l11 51h83l30 177h54l-32 -177h79l31 177h52l-31 -177h82z" />
    <glyph glyph-name="dollar" unicode="$" horiz-adv-x="453" 
d="M327 167c0 18 -2.33301 33.4971 -7 46.4971s-11.5 24.333 -20.5 34s-20.167 18.334 -33.5 26.001s-28.333 15.834 -45 24.501c0 -42 0.333008 -84.5 1 -127.5s1 -87.5 1 -133.5c20.667 2.66699 37.667 8.83398 51 18.501s24 21 32 34s13.5 26.5 16.5 40.5
s4.5 26.333 4.5 37zM186 429.997c0 36 -0.331055 71.666 -0.998047 106.999s-1 72 -1 110c-18 -1.33301 -32.833 -5.5 -44.5 -12.5s-20.834 -15.5 -27.501 -25.5s-11.334 -20.667 -14.001 -32s-4 -22 -4 -32c0 -13.333 1.5 -25.166 4.5 -35.499s8 -19.833 15 -28.5
s16.5 -17.167 28.5 -25.5s26.667 -16.833 44 -25.5zM419.002 192.996c0 -29.333 -5.66992 -55.833 -17.0029 -79.5s-26.166 -44.167 -44.499 -61.5s-39.166 -31.333 -62.499 -42s-47 -17 -71 -19v-68h-40v67c-20 0 -38.5 2 -55.5 6s-32.5 8.83301 -46.5 14.5
s-26.5 11.667 -37.5 18l-28.5 16.5l-6 150c6 -17.333 13.5 -35.5 22.5 -54.5s20.333 -36.5 34 -52.5s30.167 -29.333 49.5 -40s42 -16.334 68 -17.001c0 52 0.333008 100.333 1 145s1 89.667 1 135c-24 11.333 -46.667 23.333 -68 36s-39.833 26.834 -55.5 42.501
s-28 33.5 -37 53.5s-13.5 43 -13.5 69c0 26.667 4.83301 50.5 14.5 71.5s22.5 39 38.5 54s34.333 26.833 55 35.5s42 14.667 64 18v62h40c0 -10 -0.166992 -20.167 -0.5 -30.5s-0.5 -20.833 -0.5 -31.5c18.667 0 35.834 -1.83301 51.501 -5.5s29.5 -7.66699 41.5 -12
s21.833 -8.66602 29.5 -12.999s13.167 -7.16602 16.5 -8.49902l5 -132c-3.33301 11.333 -8.66602 24 -15.999 38s-17 27.333 -29 40s-26.333 23.834 -43 33.501s-35.334 15.5 -56.001 17.5c0 -20.667 -0.166992 -40.334 -0.5 -59.001s-0.5 -37.334 -0.5 -56.001
s-0.166992 -37.834 -0.5 -57.501s-0.5 -40.5 -0.5 -62.5l75 -36.5c24 -11.667 45 -25.5 63 -41.5s32.5 -35.333 43.5 -58s16.5 -51 16.5 -85z" />
    <glyph glyph-name="percent" unicode="%" horiz-adv-x="572" 
d="M470 157c0 46 -5.83008 82.333 -17.4971 109s-26.5 40 -44.5 40c-18.667 0 -34.334 -12.5 -47.001 -37.5s-19 -60.5 -19 -106.5c-0.666992 -50.667 5.16602 -88 17.499 -112s27.166 -36 44.499 -36c19.333 0 35 12 47 36s18.333 59.667 19 107zM206.003 520
c0.666992 46 -4.66699 82.5 -16 109.5s-26.333 40.5 -45 40.5s-34.167 -12.833 -46.5 -38.5s-18.833 -61.5 -19.5 -107.5c-0.666992 -50.667 5.33301 -87.5 18 -110.5s27.667 -34.833 45 -35.5c18 -0.666992 33 11 45 35s18.333 59.667 19 107zM540.002 158
c0 -28 -4.00098 -52.5 -12.001 -73.5s-18.5 -38.5 -31.5 -52.5s-27.5 -24.333 -43.5 -31s-32.333 -10 -49 -10c-17.333 0 -33.833 3.66699 -49.5 11s-29.667 18 -42 32s-22.166 31.333 -29.499 52s-11 44.667 -11 72c0 25.333 3.5 48.333 10.5 69s16.5 38.5 28.5 53.5
s26.333 26.5 43 34.5s34.667 12 54 12c18 0 35 -4.16699 51 -12.5s30 -19.833 42 -34.5s21.5 -32.5 28.5 -53.5s10.5 -43.833 10.5 -68.5zM490.001 680c-12 -19.333 -28.166 -47 -48.499 -83l-67.5 -121l-76.5 -140l-75 -139l-62.5 -118.5c-18 -35 -31 -61.167 -39 -78.5
h-60c11.333 18 27.166 45 47.499 81l67 120.5l76.5 140l75 139.5l62.5 119.5l40.5 79.5h60zM277.002 522c0 -28 -4 -52.6641 -12 -73.9971s-18.333 -39 -31 -53s-27 -24.5 -43 -31.5s-32.333 -10.5 -49 -10.5c-17.333 0 -33.833 3.66699 -49.5 11
s-29.834 18.166 -42.501 32.499s-22.667 32 -30 53s-11 45.167 -11 72.5c0 25.333 3.5 48.333 10.5 69s16.667 38.167 29 52.5s26.833 25.5 43.5 33.5s34.334 12 53.001 12c18 0 35 -4 51 -12s30 -19.333 42 -34s21.5 -32.334 28.5 -53.001s10.5 -43.334 10.5 -68.001z" />
    <glyph glyph-name="ampersand" unicode="&#x26;" horiz-adv-x="564" 
d="M182 338c-8 -5.33301 -16.668 -12.001 -26.001 -20.001s-18.166 -17.833 -26.499 -29.5s-15.333 -25.167 -21 -40.5s-8.5 -32.333 -8.5 -51c0 -31.333 8.5 -59.333 25.5 -84s38.333 -42.167 64 -52.5s53.5 -11.666 83.5 -3.99902s57.667 28.167 83 61.5zM310.999 545.999
c0 8 -1.50195 18.167 -4.50195 30.5s-8 24 -15 35s-16 20.5 -27 28.5s-24.5 12 -40.5 12c-9.33301 0 -18.666 -1.83301 -27.999 -5.5s-17.833 -9 -25.5 -16s-14 -15.667 -19 -26s-7.5 -22.166 -7.5 -35.499c0 -22 7.33301 -44 22 -66s37 -50 67 -84
c22.667 15.333 41.334 32.666 56.001 51.999s22 44.333 22 75zM444.997 -0.000976562l-18.501 24.9961l-20.5 27c-7.33301 10 -15.333 20 -24 30c-26.667 -29.333 -54.167 -51.166 -82.5 -65.499s-56.166 -22.666 -83.499 -24.999s-53.333 0.666992 -78 9
s-46.334 20.666 -65.001 36.999s-33.5 35.833 -44.5 58.5s-16.5 47 -16.5 73c0 47.333 13.667 87.5 41 120.5s61 59.5 101 79.5l-29 35.5c-10.667 13 -20.667 26.833 -30 41.5s-17.166 29.834 -23.499 45.501s-9.5 31.5 -9.5 47.5c0 22 4.16699 42.333 12.5 61
s19.833 34.5 34.5 47.5s32.334 23.167 53.001 30.5s43 11 67 11c24.667 0 47 -3.5 67 -10.5s37 -16.5 51 -28.5s24.833 -26.167 32.5 -42.5s11.5 -33.833 11.5 -52.5c0 -21.333 -4.33301 -40.333 -13 -57s-19.667 -31.667 -33 -45s-27.833 -25.166 -43.5 -35.499
s-30.5 -19.5 -44.5 -27.5l150 -193c6 10 12.333 25.333 19 46s10.834 42 12.501 64s-1 42 -8 60s-20.833 29 -41.5 33h101c11.333 -66.667 -6.66699 -146 -54 -238l38.5 -50l38 -49c12.333 -15.333 24.166 -28.666 35.499 -39.999s21.666 -19 30.999 -23h-134z" />
    <glyph glyph-name="quotesingle" unicode="'" horiz-adv-x="136" 
d="M115 640c0 -6 -2.16699 -16 -6.5 -30s-9.33301 -28.333 -15 -43s-11.167 -27.5 -16.5 -38.5s-9 -16.5 -11 -16.5s-5.66699 5.5 -11 16.5s-11 23.833 -17 38.5s-11.167 29 -15.5 43s-6.5 24 -6.5 30c0 14 4.66699 25.667 14 35s21.333 14 36 14
c13.333 0 24.833 -4.66699 34.5 -14s14.5 -21 14.5 -35z" />
    <glyph glyph-name="parenleft" unicode="(" horiz-adv-x="248" 
d="M183 -129c-23.333 11.333 -45.8311 33.833 -67.498 67.5s-40.834 72.834 -57.501 117.501s-29.834 92 -39.501 142s-14.5 96.667 -14.5 140c0 44 5.16699 89.833 15.5 137.5s24 92.5 41 134.5s36.167 78.333 57.5 109s43 51 65 61c-28 -66.667 -50 -136 -66 -208
s-24 -150 -24 -234c0 -83.333 7.5 -162.833 22.5 -238.5s37.5 -151.834 67.5 -228.501z" />
    <glyph glyph-name="parenright" unicode=")" horiz-adv-x="248" 
d="M221 338c0 -43.333 -5 -90 -15 -140s-23.167 -97.333 -39.5 -142s-35.333 -83.834 -57 -117.501s-44.167 -56.167 -67.5 -67.5c30 76.667 52.667 152.834 68 228.501s23 155.167 23 238.5c0 84 -7.83301 162 -23.5 234s-38.167 141.333 -67.5 208
c22 -10 43.667 -30.333 65 -61s40.5 -67 57.5 -109s30.667 -86.833 41 -134.5s15.5 -93.5 15.5 -137.5z" />
    <glyph glyph-name="asterisk" unicode="*" horiz-adv-x="292" 
d="M262 597c2.66699 -9.33301 2.16895 -17.1709 -1.49805 -23.5039s-8.5 -10.166 -14.5 -11.499s-17 -3.16602 -33 -5.49902s-31 -3.5 -45 -3.5c0 -2.66699 -0.5 -5.83398 -1.5 -9.50098s-2.5 -6.83398 -4.5 -9.50098c6 -4 12 -8.5 18 -13.5s11.667 -10 17 -15
s9.83301 -9.83301 13.5 -14.5s6.16699 -8.33398 7.5 -11.001c4.66699 -5.33301 6.5 -11.833 5.5 -19.5s-4.5 -13.167 -10.5 -16.5c-6 -5.33301 -12.833 -7.16602 -20.5 -5.49902s-13.167 5.16699 -16.5 10.5c-3.33301 4.66699 -8.5 14.334 -15.5 29.001
s-12.833 28.667 -17.5 42c-2.66699 -0.666992 -5.83398 -1 -9.50098 -1h-9.5c-4.66699 -13.333 -10.667 -27 -18 -41l-15 -29c-4.66699 -5.33301 -10.667 -8.66602 -18 -9.99902s-14 0.333984 -20 5.00098c-6 4 -9.5 9.66699 -10.5 17s0.833008 13.666 5.5 18.999
c1.33301 2.66699 4 6.16699 8 10.5s8.66699 9 14 14s11 9.83301 17 14.5s12 9 18 13c-3.33301 6.66699 -5 13.334 -5 20.001c-15.333 0 -30.833 1.33301 -46.5 4s-26.167 4.66699 -31.5 6c-7.33301 1.33301 -12.833 5.5 -16.5 12.5s-4.16699 14.5 -1.5 22.5
c2.66699 7.33301 7.66699 12.166 15 14.499s14 2.5 20 0.5c5.33301 -1.33301 14.833 -5.66602 28.5 -12.999s26.167 -15.666 37.5 -24.999c2 2.66699 4.5 5.16699 7.5 7.5s6.16699 3.83301 9.5 4.5c-4 13.333 -7.5 28 -10.5 44s-4.5 27 -4.5 33
c0 7.33301 2.33301 13.5 7 18.5s11 7.5 19 7.5c8.66699 0 15.5 -2.5 20.5 -7.5s7.5 -11.167 7.5 -18.5c0 -6 -1.66699 -17 -5 -33s-7.66602 -30.667 -12.999 -44c7.33301 -1.33301 12.666 -4.66602 15.999 -9.99902c6 4 12.5 8 19.5 12s13.833 7.66699 20.5 11
s12.667 6.16602 18 8.49902s9.33301 3.83301 12 4.5c7.33301 2 14.166 1.5 20.499 -1.5s10.5 -7.5 12.5 -13.5z" />
    <glyph glyph-name="plus" unicode="+" horiz-adv-x="429" 
d="M230 311v-168h-56v168h-145v56h145v169h56v-169h144v-56h-144z" />
    <glyph glyph-name="comma" unicode="," horiz-adv-x="136" 
d="M126 26c0 -14 -2.66797 -27.166 -8.00098 -39.499s-12 -23.333 -20 -33s-16.833 -17.334 -26.5 -23.001s-18.834 -9.16699 -27.501 -10.5c-3.33301 -1.33301 -5.5 -0.833008 -6.5 1.5s1.16699 4.16602 6.5 5.49902c2.66699 0.666992 6.5 3 11.5 7
s9.83301 9.16699 14.5 15.5s8.5 13.5 11.5 21.5s4.16699 16.333 3.5 25c-1.33301 -0.666992 -3.16602 -1 -5.49902 -1h-5.5c-13.333 0 -24.833 4.83301 -34.5 14.5s-14.5 20.834 -14.5 33.501c0 8 1.66699 15.167 5 21.5s7.5 11.5 12.5 15.5s10.333 7 16 9
s10.834 3 15.501 3c17.333 0 30.333 -6 39 -18s13 -28 13 -48z" />
    <glyph glyph-name="hyphen" unicode="-" horiz-adv-x="219" 
d="M4 231v63h186v-63h-186z" />
    <glyph glyph-name="hyphen" unicode="&#xad;" horiz-adv-x="219" 
d="M4 231v63h186v-63h-186z" />
    <glyph glyph-name="period" unicode="." horiz-adv-x="133" 
d="M125 43c0 -13.333 -4.66699 -24.666 -14 -33.999s-20.666 -14 -33.999 -14c-14 0 -26 4.66699 -36 14s-15 20.666 -15 33.999c0 14 5 25.667 15 35s22 14 36 14c13.333 0 24.666 -4.66699 33.999 -14s14 -21 14 -35z" />
    <glyph glyph-name="slash" unicode="/" horiz-adv-x="401" 
d="M378 680c-9.33301 -19.333 -22.667 -49.833 -40 -91.5l-59 -142l-68.5 -166.5l-67 -166l-55.5 -141c-16 -41.333 -27.333 -71.333 -34 -90h-68c6.66699 14 16 34.667 28 62l40.5 94.5l48 115.5l51.5 126l51 126.5l46 115.5l36.5 94c10.333 27.333 17.833 48.333 22.5 63
h68z" />
    <glyph glyph-name="zero" unicode="0" horiz-adv-x="578" 
d="M435 336c0.666992 48.667 -2.83008 92.334 -10.4971 131.001s-18.5 71.5 -32.5 98.5s-30.5 47.667 -49.5 62s-39.833 21.5 -62.5 21.5c-23.333 0 -44.833 -6.66699 -64.5 -20s-36.834 -33 -51.501 -59s-26.167 -57.833 -34.5 -95.5s-12.833 -80.834 -13.5 -129.501
c-0.666992 -54 2.83301 -100.5 10.5 -139.5s18.5 -71.167 32.5 -96.5s30.5 -44 49.5 -56s39.833 -18 62.5 -18c47.333 0 86.166 25.167 116.499 75.5s46.166 125.5 47.499 225.5zM543.003 341c0 -60 -8 -111.999 -24 -155.999s-36.833 -80.333 -62.5 -109
s-54.667 -50 -87 -64s-64.5 -21 -96.5 -21c-33.333 0 -65.666 7.5 -96.999 22.5s-59.5 37 -84.5 66s-45 65.167 -60 108.5s-22.5 93.666 -22.5 150.999c0 53.333 7.33301 101.5 22 144.5s34.167 79.833 58.5 110.5s52.833 54.167 85.5 70.5s67 24.5 103 24.5
c35.333 0 69 -8.33301 101 -25s60.167 -40.167 84.5 -70.5s43.666 -67 57.999 -110s21.5 -90.5 21.5 -142.5z" />
    <glyph glyph-name="one" unicode="1" horiz-adv-x="234" 
d="M28 0c8.66699 4.66699 16.002 10.501 22.002 17.501s9 16.167 9 27.5v501c0 13.333 -1.83301 24 -5.5 32s-8.33398 14 -14.001 18s-12.334 6.16699 -20.001 6.5s-15.5 0.166016 -23.5 -0.500977l157 87v-644c0 -11.333 3 -20.5 9 -27.5s13 -12.833 21 -17.5h-155z" />
    <glyph glyph-name="two" unicode="2" horiz-adv-x="428" 
d="M-34 0c4 6 12.1709 16.1689 24.5039 30.502l44.5 51l56.5 63.5l60 69.5l56.5 69.5c18 22.667 33 43.334 45 62.001s22.167 39 30.5 61s12.5 47 12.5 75c0 20 -2.83301 38.667 -8.5 56s-13.834 32.166 -24.501 44.499s-23.834 22.166 -39.501 29.499s-33.167 11 -52.5 11
c-26 0 -52 -6.83301 -78 -20.5s-53.333 -37.5 -82 -71.5c2 16 8 33.167 18 51.5s23.667 35.5 41 51.5s38 29.167 62 39.5s51 15.5 81 15.5c30.667 0 57.5 -6 80.5 -18s42 -27.167 57 -45.5s26.167 -38.5 33.5 -60.5s11 -42.667 11 -62c0 -33.333 -7.5 -64.5 -22.5 -93.5
s-32.167 -54.167 -51.5 -75.5l-228 -254h60h81.5h75h40.5c9.33301 0 16.666 1.5 21.999 4.5s9.66602 6.66699 12.999 11s6 9.16602 8 14.499s4 10.333 6 15l7 -125h-440z" />
    <glyph glyph-name="three" unicode="3" horiz-adv-x="385" 
d="M364 205c0 -24 -4.33496 -48.6729 -13.002 -74.0059s-22.167 -48.333 -40.5 -69s-41.666 -37.667 -69.999 -51s-61.833 -20 -100.5 -20c-24.667 0 -46.167 2.66699 -64.5 8s-34 12.166 -47 20.499s-24 17.5 -33 27.5s-16.5 19.333 -22.5 28l32 -15.5
c9.33301 -4.33301 18.666 -8.16602 27.999 -11.499s19 -5.83301 29 -7.5s21 -2.5 33 -2.5c26.667 0 50.334 4.33301 71.001 13s38.167 20.334 52.5 35.001s25.333 31.834 33 51.501s11.5 40.5 11.5 62.5c0 17.333 -3.16699 34.666 -9.5 51.999s-17.333 33.166 -33 47.499
s-36.834 27 -63.501 38s-60.667 19.167 -102 24.5l72 35c24 12 42.333 24 55 36c12 11.333 21.667 24.333 29 39s11 32 11 52c0 18.667 -4 34.834 -12 48.501s-17.5 25 -28.5 34s-22.5 15.667 -34.5 20s-22.333 6.5 -31 6.5c-21.333 0 -40.166 -3.66699 -56.499 -11
s-33.166 -18.666 -50.499 -33.999c3.33301 8.66699 9.33301 18.834 18 30.501s19.667 22.667 33 33s28.833 19.166 46.5 26.499s36.834 11 57.501 11c19.333 0 38 -3.66699 56 -11s34 -17.5 48 -30.5s25.167 -28.333 33.5 -46s12.5 -36.5 12.5 -56.5
c0 -19.333 -3.83301 -36.666 -11.5 -51.999s-17.667 -29.166 -30 -41.499s-26.333 -23.166 -42 -32.499s-31.5 -17.333 -47.5 -24c33.333 -3.33301 61.5 -11.666 84.5 -24.999s41.667 -29 56 -47s24.666 -37.5 30.999 -58.5s9.5 -40.833 9.5 -59.5z" />
    <glyph glyph-name="four" unicode="4" horiz-adv-x="483" 
d="M285 536l-207 -242h207v242zM377 230v-185c0 -11.333 3 -20.5 9 -27.5s13.667 -12.833 23 -17.5h-154c8 4.66699 15 10.5 21 17.5s9 16.167 9 27.5v185h-322l414 475v-411h85v-64h-85z" />
    <glyph glyph-name="five" unicode="5" horiz-adv-x="407" 
d="M373 228c0 -38 -6.83008 -71.668 -20.4971 -101.001s-31.5 -54 -53.5 -74s-46.5 -35.333 -73.5 -46s-53.833 -16 -80.5 -16c-29.333 0 -54 3.83301 -74 11.5s-36.333 17 -49 28s-22.5 22.333 -29.5 34s-11.833 21.5 -14.5 29.5
c19.333 -15.333 38.166 -28.166 56.499 -38.499s40.166 -15.5 65.499 -15.5c26 0 49.5 4.5 70.5 13.5s38.833 21.333 53.5 37s26 33.834 34 54.501s12 42.667 12 66s-4.16699 45 -12.5 65s-19.666 37.167 -33.999 51.5s-31.333 25.666 -51 33.999s-40.5 12.5 -62.5 12.5
c-21.333 0 -37.833 -1.5 -49.5 -4.5s-24.834 -8.5 -39.501 -16.5l54 324h223c18.667 0 31.667 1.66699 39 5s14.666 8.66602 21.999 15.999l-12 -105h-239l-29 -172c9.33301 4 18.833 7 28.5 9s18.5 3.66699 26.5 5c9.33301 1.33301 18.666 2 27.999 2
c22 0 45.5 -4.5 70.5 -13.5s47.833 -22.167 68.5 -39.5s37.834 -39.166 51.501 -65.499s20.5 -56.5 20.5 -90.5z" />
    <glyph glyph-name="six" unicode="6" horiz-adv-x="512" 
d="M387 216c0 12 -2.00195 28.168 -6.00195 48.501s-11.167 40.5 -21.5 60.5s-24.5 37.167 -42.5 51.5s-41 21.5 -69 21.5c-21.333 0 -40.5 -4.33301 -57.5 -13s-31.333 -20.5 -43 -35.5s-20.667 -32.667 -27 -53s-9.5 -42.166 -9.5 -65.499c0 -30 3.83301 -57 11.5 -81
s18 -44.167 31 -60.5s27.667 -29 44 -38s33.166 -13.5 50.499 -13.5c34.667 0 61.334 8 80.001 24s32.334 34.167 41.001 54.5s13.834 40.166 15.501 59.499s2.5 32.666 2.5 39.999zM482.998 230.001c0 -42 -7.49902 -78.001 -22.499 -108.001s-33.833 -54.667 -56.5 -74
s-47.667 -33.666 -75 -42.999s-53 -14 -77 -14c-42 0 -78.167 8.16699 -108.5 24.5s-55.333 38.666 -75 66.999s-34.334 61.666 -44.001 99.999s-14.5 79.5 -14.5 123.5c0 42.667 7 86.667 21 132s33.5 86.666 58.5 123.999s54.5 68.166 88.5 92.499s71.333 36.5 112 36.5
c16.667 0 32.334 -1.66699 47.001 -5s27.667 -7.83301 39 -13.5s20.833 -12 28.5 -19s12.834 -13.833 15.501 -20.5c-7.33301 4 -13.833 7.33301 -19.5 10s-11.834 4.83398 -18.501 6.50098s-14.167 2.83398 -22.5 3.50098s-18.833 1 -31.5 1
c-30.667 0 -58.334 -8.5 -83.001 -25.5s-46 -38.833 -64 -65.5s-32.667 -56 -44 -88s-18.333 -63.333 -21 -94c15.333 20 35.833 36.333 61.5 49s59.167 19 100.5 19c22.667 0 46 -4.83301 70 -14.5s46 -23.667 66 -42s36.5 -41.166 49.5 -68.499s19.5 -58.666 19.5 -93.999
z" />
    <glyph glyph-name="seven" unicode="7" horiz-adv-x="391" 
d="M402 680c-0.666992 -0.666992 -4.66797 -10.667 -12.001 -30l-28 -76.5l-39 -108l-44.5 -124l-44 -124.5l-38 -110c-11 -32.667 -19.667 -59.5 -26 -80.5s-9.16602 -32.833 -8.49902 -35.5h-93c8.66699 16 18.667 36.833 30 62.5l36 85.5l38.5 99l38.5 103l91 256h-272
c-14 0 -25 -4.16699 -33 -12.5s-14.333 -16.833 -19 -25.5v121h423z" />
    <glyph glyph-name="eight" unicode="8" horiz-adv-x="479" 
d="M355 165c0 27.333 -5.49902 49.833 -16.499 67.5s-25 32.667 -42 45s-35.833 23 -56.5 32s-41 18.5 -61 28.5c-24.667 -14 -45.834 -33.5 -63.501 -58.5s-26.5 -56.833 -26.5 -95.5c0 -32 6.5 -59 19.5 -81s29.5 -38.667 49.5 -50s41.333 -17.5 64 -18.5
s44 3.16699 64 12.5s36.5 23.833 49.5 43.5s19.5 44.5 19.5 74.5zM334.001 543c0 11.333 -1.99902 23.332 -5.99902 35.999s-10.167 24.334 -18.5 35.001s-19.333 19.5 -33 26.5s-29.834 10.5 -48.501 10.5c-14.667 0 -28.5 -2.33301 -41.5 -7s-24.5 -11.167 -34.5 -19.5
s-17.833 -18.833 -23.5 -31.5s-8.5 -27 -8.5 -43c0 -19.333 4.16699 -36.333 12.5 -51s19.166 -27.5 32.499 -38.5s28 -20.333 44 -28s31.667 -14.5 47 -20.5c22.667 12.667 41.334 29.167 56.001 49.5s22 47.5 22 81.5zM445.002 194.999
c0 -44.667 -10.8359 -81.9971 -32.5029 -111.997s-48.667 -52.667 -81 -68s-67.5 -23.333 -105.5 -24s-73.167 6.16602 -105.5 20.499s-59.333 36 -81 65s-32.5 65.5 -32.5 109.5c0 23.333 3.83301 44.166 11.5 62.499s17.834 34.333 30.501 48s27.167 25.5 43.5 35.5
s33.5 18.667 51.5 26c-12 7.33301 -24.167 16.166 -36.5 26.499s-23.5 22.333 -33.5 36s-18.167 29 -24.5 46s-9.5 36.167 -9.5 57.5c0 22.667 4.33301 44 13 64s21.334 37.5 38.001 52.5s36.834 26.833 60.501 35.5s50.167 13 79.5 13c19.333 0 39.5 -3.16699 60.5 -9.5
s40.333 -15.5 58 -27.5s32.167 -27.167 43.5 -45.5s17 -39.5 17 -63.5c0 -21.333 -3.5 -40 -10.5 -56s-16 -29.833 -27 -41.5s-23.5 -21.834 -37.5 -30.501s-27.667 -16 -41 -22c21.333 -8.66699 41.166 -19.5 59.499 -32.5s34.333 -27.833 48 -44.5
s24.334 -35.167 32.001 -55.5s11.5 -42.166 11.5 -65.499z" />
    <glyph glyph-name="nine" unicode="9" horiz-adv-x="514" 
d="M378 451c0 30 -3.83105 57.0029 -11.498 81.0029s-17.834 44.167 -30.501 60.5s-27.334 29 -44.001 38s-34 13.5 -52 13.5c-22.667 0 -41.834 -3.66699 -57.501 -11s-28.667 -16.833 -39 -28.5s-18.166 -24.667 -23.499 -39s-9.33301 -28 -12 -41
s-4.16699 -24.833 -4.5 -35.5s-0.5 -18.334 -0.5 -23.001c0 -12 1.83301 -28.333 5.5 -49s10.5 -41 20.5 -61s24 -37.333 42 -52s41 -22 69 -22c21.333 0 40.5 4.5 57.5 13.5s31.5 21.167 43.5 36.5s21.167 33.166 27.5 53.499s9.5 42.166 9.5 65.499zM479.002 376.003
c0 -44.667 -7.00195 -89.833 -21.002 -135.5s-33.5 -87 -58.5 -124s-55 -67.167 -90 -90.5s-73.167 -35 -114.5 -35c-34.667 0 -63 5.83301 -85 17.5s-36 25.167 -42 40.5l19.5 -10.5c5.66699 -3 11.667 -5.33301 18 -7s13.5 -3 21.5 -4s18 -1.5 30 -1.5
c32 0 60.833 8.66699 86.5 26s47.5 39.333 65.5 66s32.333 56.334 43 89.001s17.667 64.667 21 96c-16 -21.333 -36.667 -38 -62 -50s-58.666 -18 -99.999 -18c-22.667 0 -46.167 4.66699 -70.5 14s-46.5 23.166 -66.5 41.499s-36.333 41 -49 68s-19 58.167 -19 93.5
c0 42 7.5 78 22.5 108s34 54.5 57 73.5s48.167 33 75.5 42s53.333 13.5 78 13.5c41.333 0 77 -8.83301 107 -26.5s54.833 -41 74.5 -70s34.334 -62.333 44.001 -100s14.5 -76.5 14.5 -116.5z" />
    <glyph glyph-name="colon" unicode=":" horiz-adv-x="145" 
d="M130 43c0 -13.333 -4.66699 -24.666 -14 -33.999s-20.666 -14 -33.999 -14c-14 0 -26 4.66699 -36 14s-15 20.666 -15 33.999c0 14 5 25.667 15 35s22 14 36 14c13.333 0 24.666 -4.66699 33.999 -14s14 -21 14 -35zM131 416c0 -13.333 -4.83301 -24.833 -14.5 -34.5
s-21.167 -14.5 -34.5 -14.5c-14 0 -25.833 4.83301 -35.5 14.5s-14.5 21.167 -14.5 34.5c0 14 4.83301 25.833 14.5 35.5s21.5 14.5 35.5 14.5c13.333 0 24.833 -4.83301 34.5 -14.5s14.5 -21.5 14.5 -35.5z" />
    <glyph glyph-name="semicolon" unicode=";" horiz-adv-x="145" 
d="M129 26c0 -14 -2.66797 -27.166 -8.00098 -39.499s-12 -23.333 -20 -33s-16.833 -17.334 -26.5 -23.001s-18.834 -9.16699 -27.501 -10.5c-3.33301 -1.33301 -5.5 -0.833008 -6.5 1.5s1.16699 4.16602 6.5 5.49902c2.66699 0.666992 6.5 3 11.5 7
s9.83301 9.16699 14.5 15.5s8.5 13.5 11.5 21.5s4.16699 16.333 3.5 25c-1.33301 -0.666992 -3.16602 -1 -5.49902 -1h-5.5c-13.333 0 -24.833 4.83301 -34.5 14.5s-14.5 20.834 -14.5 33.501c0 8 1.66699 15.167 5 21.5s7.5 11.5 12.5 15.5s10.333 7 16 9
s10.834 3 15.501 3c17.333 0 30.333 -6 39 -18s13 -28 13 -48zM130.999 416.001c0 -13.333 -4.83301 -24.833 -14.5 -34.5s-21.167 -14.5 -34.5 -14.5c-14 0 -25.833 4.83301 -35.5 14.5s-14.5 21.167 -14.5 34.5c0 14 4.83301 25.833 14.5 35.5s21.5 14.5 35.5 14.5
c13.333 0 24.833 -4.83301 34.5 -14.5s14.5 -21.5 14.5 -35.5z" />
    <glyph glyph-name="semicolon" unicode="&#x37e;" horiz-adv-x="145" 
d="M129 26c0 -14 -2.66797 -27.166 -8.00098 -39.499s-12 -23.333 -20 -33s-16.833 -17.334 -26.5 -23.001s-18.834 -9.16699 -27.501 -10.5c-3.33301 -1.33301 -5.5 -0.833008 -6.5 1.5s1.16699 4.16602 6.5 5.49902c2.66699 0.666992 6.5 3 11.5 7
s9.83301 9.16699 14.5 15.5s8.5 13.5 11.5 21.5s4.16699 16.333 3.5 25c-1.33301 -0.666992 -3.16602 -1 -5.49902 -1h-5.5c-13.333 0 -24.833 4.83301 -34.5 14.5s-14.5 20.834 -14.5 33.501c0 8 1.66699 15.167 5 21.5s7.5 11.5 12.5 15.5s10.333 7 16 9
s10.834 3 15.501 3c17.333 0 30.333 -6 39 -18s13 -28 13 -48zM130.999 416.001c0 -13.333 -4.83301 -24.833 -14.5 -34.5s-21.167 -14.5 -34.5 -14.5c-14 0 -25.833 4.83301 -35.5 14.5s-14.5 21.167 -14.5 34.5c0 14 4.83301 25.833 14.5 35.5s21.5 14.5 35.5 14.5
c13.333 0 24.833 -4.83301 34.5 -14.5s14.5 -21.5 14.5 -35.5z" />
    <glyph glyph-name="less" unicode="&#x3c;" horiz-adv-x="429" 
d="M31 315v50l343 200v-64l-282 -162l282 -158v-64z" />
    <glyph glyph-name="equal" unicode="=" horiz-adv-x="429" 
d="M29 247v56h345v-56h-345zM29 376v56h345v-56h-345z" />
    <glyph glyph-name="greater" unicode="&#x3e;" horiz-adv-x="429" 
d="M33 117v64l282 158l-282 162v64l344 -200v-50z" />
    <glyph glyph-name="question" unicode="?" horiz-adv-x="371" 
d="M179 43c0 -13.333 -4.83301 -24.666 -14.5 -33.999s-21.167 -14 -34.5 -14c-14 0 -26 4.66699 -36 14s-15 20.666 -15 33.999c0 14 5 25.667 15 35s22 14 36 14c13.333 0 24.833 -4.66699 34.5 -14s14.5 -21 14.5 -35zM333 553
c0 -17.333 -3.99707 -36.334 -11.9971 -57.001s-18.667 -42.167 -32 -64.5s-28.333 -45.166 -45 -68.499l-51 -69c-10 -13.333 -18.333 -24.833 -25 -34.5s-12.334 -19.5 -17.001 -29.5s-8.83398 -20.833 -12.501 -32.5s-7.83398 -25.834 -12.501 -42.501
c-2.66699 8.66699 -5.33398 18.334 -8.00098 29.001c-2 9.33301 -3.66699 20.166 -5 32.499s-2 26.166 -2 41.499c0 18 2.16699 33.333 6.5 46s11.5 26.667 21.5 42l22.5 35c11 17.333 22.333 36.833 34 58.5s22.167 43.334 31.5 65.001s14 39.834 14 54.501
c0 28.667 -8.16699 51.167 -24.5 67.5s-35.5 24.5 -57.5 24.5c-10 0 -21 -1.5 -33 -4.5s-24 -9.5 -36 -19.5s-23.167 -24.333 -33.5 -43s-18.833 -44 -25.5 -76l-2 131c18.667 19.333 40.167 33.166 64.5 41.499s51.5 12.5 81.5 12.5c16 0 33.167 -2 51.5 -6
s35.333 -11.167 51 -21.5s28.834 -24.666 39.501 -42.999s16 -41.5 16 -69.5z" />
    <glyph glyph-name="at" unicode="@" horiz-adv-x="720" 
d="M483 448c-1.33301 8.66699 -4.33105 16.6641 -8.99805 23.9971c-4 6 -10.333 11.5 -19 16.5s-20.334 7.5 -35.001 7.5c-19.333 0 -39.5 -6.16699 -60.5 -18.5s-40.333 -29.166 -58 -50.499s-32.167 -46.166 -43.5 -74.499s-17 -58.5 -17 -90.5
c0 -33.333 7.66699 -61.166 23 -83.499s40.666 -33.5 75.999 -33.5c13.333 0 28 2.83301 44 8.5s29.667 13.5 41 23.5zM722.002 356.997c0 -42 -5.17188 -80.668 -15.5049 -116.001s-24.333 -66 -42 -92s-38.167 -46.333 -61.5 -61s-48 -22 -74 -22c-22 0 -39.5 3 -52.5 9
s-23 13.333 -30 22s-12 17.5 -15 26.5s-5.16699 16.167 -6.5 21.5c-12.667 -8.66699 -25.667 -16.334 -39 -23.001c-12 -6 -25.5 -11.333 -40.5 -16s-30.167 -7 -45.5 -7c-26.667 0 -49.167 4.16699 -67.5 12.5s-33.333 19.5 -45 33.5s-20.167 30.333 -25.5 49s-8 38 -8 58
c0 30 6.16699 61.5 18.5 94.5s30 63.333 53 91s51.333 50.334 85 68.001s71.5 26.5 113.5 26.5c19.333 0 36.833 -3.16699 52.5 -9.5s25.5 -10.166 29.5 -11.499c2 0.666992 6.83301 1.83398 14.5 3.50098s15.834 3.16699 24.501 4.5c10 2 20.667 4 32 6l-62 -292
c-6.66699 -30.667 -10 -53.334 -10 -68.001c0 -11.333 4.33301 -22 13 -32s21.667 -15 39 -15c15.333 0 30.833 6.66699 46.5 20s29.667 31 42 53s22.5 47.5 30.5 76.5s12 59.5 12 91.5c0 40.667 -7.16699 78.5 -21.5 113.5s-34.666 65.333 -60.999 91
s-57.833 45.834 -94.5 60.501s-77.334 22 -122.001 22c-45.333 0 -88.666 -8 -129.999 -24s-77.666 -39 -108.999 -69s-56.166 -66.333 -74.499 -109s-27.5 -90.667 -27.5 -144c0 -52 7.83301 -100 23.5 -144s37.5 -82.167 65.5 -114.5s61.833 -58 101.5 -77
s83.5 -29.833 131.5 -32.5v-12c-58 0 -110.833 8.16699 -158.5 24.5s-88.5 40.5 -122.5 72.5s-60.5 71.333 -79.5 118s-28.5 100.667 -28.5 162c0 59.333 9.83301 113.5 29.5 162.5s47.334 91 83.001 126s78 62.167 127 81.5s102.5 29 160.5 29
c62.667 0 115.667 -10.833 159 -32.5s78.5 -49.167 105.5 -82.5s46.5 -69.833 58.5 -109.5s18 -77.834 18 -114.501z" />
    <glyph glyph-name="A" unicode="A" horiz-adv-x="559" 
d="M353 245l-39.5 97l-36.5 90l-37 93l-40 -100l-36 -91l-36 -89h225zM410 0c13.333 6 21.834 12.833 25.501 20.5s3.5 17.167 -0.5 28.5c-3.33301 6 -11.166 23.333 -23.499 52l-41.5 101h-259l-23 -54l-19.5 -46.5l-14 -34.5
c-3.66699 -9.33301 -5.83398 -15.333 -6.50098 -18c-4 -11.333 -4.83301 -21 -2.5 -29s10.166 -14.667 23.499 -20h-122c14 9.33301 24 17.5 30 24.5s11.333 15.167 16 24.5l16.5 38.5l33.5 78.5l44 104.5l49 116.5l131 309l131 -309l49 -116.5l44 -104.5l33.5 -78.5
l16.5 -38.5c4 -10.667 9 -19.5 15 -26.5s17.667 -14.5 35 -22.5h-181z" />
    <glyph glyph-name="B" unicode="B" horiz-adv-x="544" 
d="M408 198c0 29.333 -5.16797 53.334 -15.501 72.001s-24 33.167 -41 43.5s-36 17.5 -57 21.5s-41.833 6 -62.5 6c-8 0 -16.667 -0.166992 -26 -0.5s-18 -0.5 -26 -0.5c-9.33301 -0.666992 -18.666 -1 -27.999 -1v-296c4 -0.666992 8.33301 -1.33398 13 -2.00098
c4 -0.666992 8.83301 -1 14.5 -1h19.5c16 0 35.833 1.16699 59.5 3.5s46.5 8.83301 68.5 19.5s41 26.5 57 47.5s24 50.167 24 87.5zM355.999 519.001c0 22 -4.16504 40.501 -12.498 55.501s-19 27.333 -32 37s-27.667 16.667 -44 21s-32.833 6.5 -49.5 6.5
c-11.333 0 -21 -0.166992 -29 -0.5s-14.667 -0.5 -20 -0.5c-6.66699 -0.666992 -12.334 -1 -17.001 -1v-252c3.33301 -0.666992 7.33301 -1 12 -1c3.33301 -0.666992 7.66602 -1 12.999 -1h17c12 0 27.333 1.16699 46 3.5s36.5 8 53.5 17s31.667 22.667 44 41
s18.5 43.166 18.5 74.499zM514.001 188.002c0 -19.333 -3.99902 -40 -11.999 -62s-22 -42.333 -42 -61s-47.333 -34.167 -82 -46.5s-78.667 -18.5 -132 -18.5h-216c18.667 9.33301 28 24.333 28 45v590c0 22 -9.33301 37 -28 45h190c11.333 0 24.833 -0.666992 40.5 -2
s32.167 -4 49.5 -8s34.333 -9.66699 51 -17s31.667 -16.666 45 -27.999s24.166 -25.166 32.499 -41.499s12.5 -35.833 12.5 -58.5c0 -30 -7 -54.833 -21 -74.5s-29.667 -35.834 -47 -48.501c-20 -14.667 -42.333 -26.334 -67 -35.001c36.667 -4.66699 69.667 -14 99 -28
c12 -6 24 -13.333 36 -22s22.667 -19.167 32 -31.5s16.833 -26.5 22.5 -42.5s8.5 -34.333 8.5 -55z" />
    <glyph glyph-name="C" unicode="C" horiz-adv-x="679" 
d="M642 197c0.666992 0.666992 0.5 -6.16992 -0.5 -20.5029s-2.16699 -30.166 -3.5 -47.499c-2 -20.667 -3.66699 -44 -5 -70c-42 -25.333 -85 -43 -129 -53s-85 -15 -123 -15c-49.333 0 -96.5 8.33301 -141.5 25s-84.5 40.167 -118.5 70.5s-61.167 66.833 -81.5 109.5
s-30.5 90 -30.5 142c0 42.667 8 84.834 24 126.501s40 79.167 72 112.5s72 60.333 120 81s103.667 31 167 31c42 0 82 -5.16699 120 -15.5s76.667 -24.166 116 -41.499c1.33301 -28.667 3 -54 5 -76c0.666992 -9.33301 1.16699 -18.5 1.5 -27.5s0.833008 -16.833 1.5 -23.5
s1 -12 1 -16s0 -5.66699 0 -5c-16 36.667 -35 65.834 -57 87.501s-44.333 38.167 -67 49.5s-44.167 18.5 -64.5 21.5s-36.5 4.5 -48.5 4.5c-48 0 -90 -7.83301 -126 -23.5s-66 -37 -90 -64s-42.167 -58.333 -54.5 -94s-18.5 -73.834 -18.5 -114.501
c0 -36 5.16699 -72.667 15.5 -110s27 -71.333 50 -102s52.833 -55.667 89.5 -75s81 -29 133 -29c11.333 0 26.833 1 46.5 3s40.834 8.16699 63.501 18.5s45.667 26.333 69 48s44.666 52.5 63.999 92.5z" />
    <glyph glyph-name="D" unicode="D" horiz-adv-x="704" 
d="M564 351c0 30.667 -4.83203 62.833 -14.499 96.5s-25.5 64.5 -47.5 92.5s-50.833 51.167 -86.5 69.5s-79.5 27.5 -131.5 27.5h-32.5h-36.5c-12 0 -23.333 -0.166992 -34 -0.5s-18.667 -0.833008 -24 -1.5v-590c18 -1.33301 37.5 -2 58.5 -2h54.5c56.667 0 104 9 142 27
s68.167 41.667 90.5 71s38.166 62.333 47.499 99s14 73.667 14 111zM668.001 350.999c0 -40 -7.66797 -80.8311 -23.001 -122.498s-39.166 -79.334 -71.499 -113.001s-74 -61.334 -125 -83.001s-112.167 -32.5 -183.5 -32.5h-230c8 4.66699 14.333 10.5 19 17.5
s7 16.167 7 27.5v590c0 21.333 -8.66699 36.333 -26 45h249c55.333 0 103.166 -6.16699 143.499 -18.5s74.833 -28.166 103.5 -47.499s51.834 -41.166 69.501 -65.499s31.5 -48.833 41.5 -73.5s16.833 -47.834 20.5 -69.501s5.5 -39.834 5.5 -54.501z" />
    <glyph glyph-name="E" unicode="E" horiz-adv-x="455" 
d="M431 0l-401.998 -0.000976562c9.33301 4.66699 16.666 10.334 21.999 17.001s8 16 8 28v590c0 11.333 -2.66699 20.666 -8 27.999s-12 13 -20 17h376l2 -78c-10 11.333 -21.167 20 -33.5 26s-29.166 9 -50.499 9h-35c-18 0 -37.333 0.333008 -58 1
c-24 0 -50.333 0.333008 -79 1v-241h163c7.33301 0 14.333 3.16699 21 9.5s11.334 12.5 14.001 18.5v-97c-2.66699 6 -7.33398 12.167 -14.001 18.5s-13.667 9.5 -21 9.5h-163v-308c11.333 -1.33301 27.666 -2.66602 48.999 -3.99902s43.666 -2 66.999 -2
c26.667 0 49.5 0.333008 68.5 1s35.5 3 49.5 7s26 10.167 36 18.5s19.667 20.5 29 36.5z" />
    <glyph glyph-name="F" unicode="F" 
d="M431 597c-7.33301 12 -17.1641 21.167 -29.4971 27.5s-30.833 9.83301 -55.5 10.5c-6 0 -19.333 0.166992 -40 0.5s-42.334 0.833008 -65.001 1.5c-26.667 0.666992 -55.334 1.33398 -86.001 2.00098v-241h165c7.33301 0 14.333 3.16699 21 9.5s11.334 12.5 14.001 18.5
v-97c-2.66699 6 -7.33398 12.167 -14.001 18.5s-13.667 9.5 -21 9.5h-165l-2 -312c0 -12 2.66699 -21.333 8 -28s12.666 -12.334 21.999 -17.001h-152c9.33301 4.66699 16.333 10.334 21 17.001s7 16 7 28v590c0 11.333 -2.66699 20.666 -8 27.999s-12 13 -20 17h399z" />
    <glyph glyph-name="G" unicode="G" horiz-adv-x="726" 
d="M691 289c-8 -4.66699 -14.499 -10.501 -19.499 -17.501s-7.5 -16.167 -7.5 -27.5v-133c0 -10.667 2.16699 -20.167 6.5 -28.5l7.5 -14.5c-20.667 -12.667 -44.334 -23.834 -71.001 -33.501s-53.5 -17.667 -80.5 -24s-53.333 -11.166 -79 -14.499s-47.834 -5 -66.501 -5
c-49.333 0 -96.5 8.33301 -141.5 25s-84.667 40.167 -119 70.5s-61.666 66.833 -81.999 109.5s-30.5 90 -30.5 142c0 42.667 8 84.834 24 126.501s40.167 79.167 72.5 112.5s72.5 60.333 120.5 81s104 31 168 31c41.333 0 81.166 -5.16699 119.499 -15.5
s77.5 -24.166 117.5 -41.499c0.666992 -27.333 1.66699 -52 3 -74c1.33301 -18.667 2.33301 -35.834 3 -51.501s1 -23.834 1 -24.501c-13.333 36 -30.833 64.833 -52.5 86.5s-44 38.334 -67 50.001s-45 19.334 -66 23.001s-37.5 5.5 -49.5 5.5
c-48 0 -90 -7.83301 -126 -23.5s-66.167 -37 -90.5 -64s-42.5 -58.333 -54.5 -94s-18 -73.834 -18 -114.501c0 -36 5 -72.667 15 -110s26.333 -71.333 49 -102s52.167 -55.667 88.5 -75s80.5 -29 132.5 -29c7.33301 0 17.333 0.333008 30 1s26.834 2.66699 42.501 6
s32 8 49 14s33.5 14.667 49.5 26v162c0 11.333 -2.5 20.5 -7.5 27.5s-11.167 12.833 -18.5 17.5h148z" />
    <glyph glyph-name="H" unicode="H" horiz-adv-x="681" 
d="M475 0c8 4.66699 14.333 10.499 19 17.499s7 16.167 7 27.5v312h-348v-312c0 -11.333 2.5 -20.5 7.5 -27.5s11.167 -12.833 18.5 -17.5h-148c8 4.66699 14.333 10.5 19 17.5s7 16.167 7 27.5v590c0 21.333 -8.66699 36.333 -26 45h148
c-7.33301 -4 -13.5 -9.66699 -18.5 -17s-7.5 -16.666 -7.5 -27.999v-237h348v237c0 21.333 -8.66699 36.333 -26 45h148c-17.333 -8 -26 -23 -26 -45v-590c0 -20.667 8.66699 -35.667 26 -45h-148z" />
    <glyph glyph-name="I" unicode="I" horiz-adv-x="241" 
d="M33 0c8 4.66699 14.5 10.5 19.5 17.5s7.5 16.167 7.5 27.5v590c0 11.333 -2.5 20.666 -7.5 27.999s-11.5 13 -19.5 17h148c-7.33301 -4 -13.5 -9.66699 -18.5 -17s-7.5 -16.666 -7.5 -27.999v-590c0 -11.333 2.5 -20.5 7.5 -27.5s11.167 -12.833 18.5 -17.5h-148z" />
    <glyph glyph-name="J" unicode="J" horiz-adv-x="227" 
d="M176 680c-7.33301 -4 -13.502 -9.66504 -18.502 -16.998s-7.5 -16.666 -7.5 -27.999v-515c0 -8.66699 -1.16699 -22.167 -3.5 -40.5s-6.66602 -38.833 -12.999 -61.5s-15.666 -46.5 -27.999 -71.5s-28.5 -48.5 -48.5 -70.5s-44.667 -41.333 -74 -58s-64 -28 -104 -34
l24 12c10.667 5.33301 22.5 12.833 35.5 22.5s26.333 22.167 40 37.5s26 34.666 37 57.999s20.167 51.166 27.5 83.499s11 70.166 11 113.499v524c0 21.333 -9 36.333 -27 45h149z" />
    <glyph glyph-name="K" unicode="K" horiz-adv-x="561" 
d="M428 0c7.33301 3.33301 11.832 7.33398 13.499 12.001s1.83398 9.33398 0.500977 14.001c-0.666992 2 -7.66699 11 -21 27s-30.166 35.167 -50.499 57.5l-66.5 72.5l-68 73.5l-55 59.5c-15.333 16.667 -24.666 26.667 -27.999 30v-301c0 -11.333 2.83301 -20.5 8.5 -27.5
s12.167 -12.833 19.5 -17.5h-149c7.33301 4.66699 13.666 10.5 18.999 17.5s8 16.167 8 27.5v590c0 11.333 -2.66699 20.666 -8 27.999s-11.666 13 -18.999 17h149c-7.33301 -4 -13.833 -9.66699 -19.5 -17s-8.5 -16.666 -8.5 -27.999v-266
c3.33301 2.66699 12.666 11.167 27.999 25.5l54 51.5l66.5 64.5l65.5 64l50.5 51c13.667 14.333 20.834 22.833 21.501 25.5c1.33301 7.33301 1.5 12.666 0.5 15.999s-4.83301 7.66602 -11.5 12.999h147c-13.333 -4 -27.333 -9.66699 -42 -17s-26.334 -15 -35.001 -23
l-256 -250l324 -357c11.333 -13.333 28.666 -24.333 51.999 -33h-190z" />
    <glyph glyph-name="L" unicode="L" horiz-adv-x="451" 
d="M429 0h-398.001c8.66699 4.66699 15.5 10.5 20.5 17.5s7.5 16.167 7.5 27.5v590c0 21.333 -9.33301 36.333 -28 45h150c-8 -4 -14.5 -9.66699 -19.5 -17s-7.5 -16.666 -7.5 -27.999v-585c10.667 -1.33301 25.334 -3 44.001 -5s39.667 -2.66699 63 -2c30 0 55 0.5 75 1.5
s37 3.5 51 7.5s25.667 10.167 35 18.5s18.333 20.166 27 35.499z" />
    <glyph glyph-name="M" unicode="M" horiz-adv-x="784" 
d="M578 0c8 4.66699 14.333 10.5 19 17.5s7 16.167 7 27.5v519c0 6.66699 0.333008 11.334 1 14.001c0 2.66699 0.333008 5 1 7l-7 -23l-247 -576l-242 560l-9 26c0 -4 0.333008 -7.33301 1 -10c0 -2.66699 0.166992 -5.5 0.5 -8.5s0.5 -5.5 0.5 -7.5v-501
c0 -11.333 2.66699 -20.5 8 -27.5s12 -12.833 20 -17.5h-101c8 4.66699 14.333 10.5 19 17.5s7 16.167 7 27.5v590c0 9.33301 -3 18.166 -9 26.499s-13.333 14.5 -22 18.5h135l220 -513l217 513h129c-17.333 -8.66699 -26 -23.667 -26 -45v-590
c0 -11.333 2.33301 -20.5 7 -27.5s11 -12.833 19 -17.5h-148z" />
    <glyph glyph-name="N" unicode="N" horiz-adv-x="659" 
d="M608 680c-8 -4 -14.5 -9.66504 -19.5 -16.998s-7.5 -16.666 -7.5 -27.999v-654l-238 290l-87.5 107.5l-76 94.5l-54 68c-13.667 17.333 -20.5 26.666 -20.5 27.999v-524c0 -20.667 9.33301 -35.667 28 -45h-101c7.33301 4.66699 13.5 10.5 18.5 17.5s7.5 16.167 7.5 27.5
v552v17.5c0 4.33301 -0.5 8 -1.5 11s-2.33301 5.83301 -4 8.5l-6.5 10c-5.33301 6 -11.5 12.167 -18.5 18.5s-16.167 12.166 -27.5 17.499h138l395 -487v442c0 11.333 -2.5 20.666 -7.5 27.999s-11.167 13 -18.5 17h101z" />
    <glyph glyph-name="O" unicode="O" horiz-adv-x="774" 
d="M630 331c0 48 -6.16895 91.498 -18.502 130.498s-29.833 72.333 -52.5 100s-49.834 48.834 -81.501 63.501s-66.167 22 -103.5 22s-71.666 -6.66699 -102.999 -20s-58.666 -32.5 -81.999 -57.5s-41.5 -55.5 -54.5 -91.5s-19.5 -77 -19.5 -123
c0 -54.667 7.83301 -102 23.5 -142s36 -73 61 -99s53 -45.333 84 -58s61.833 -19 92.5 -19c36.667 0 70.5 6.83301 101.5 20.5s57.833 33.334 80.5 59.001s40.334 56.5 53.001 92.5s19 76.667 19 122zM739.998 333.998c-1.33301 -57.333 -13.667 -107.497 -37 -150.497
s-53 -79 -89 -108s-75.667 -50.667 -119 -65s-86 -20.833 -128 -19.5c-48.667 1.33301 -95 11.166 -139 29.499s-82.667 43.333 -116 75s-59.5 69.167 -78.5 112.5s-27.833 90.666 -26.5 141.999c0.666992 40.667 9.83398 81.5 27.501 122.5s42.667 77.667 75 110
s71.833 58.5 118.5 78.5s99.667 29.333 159 28c41.333 -1.33301 83.166 -9.83301 125.499 -25.5s80.5 -38.334 114.5 -68.001s61.667 -66.5 83 -110.5s31.333 -94.333 30 -151z" />
    <glyph glyph-name="P" unicode="P" horiz-adv-x="485" 
d="M372 492c0 46 -12.832 82.167 -38.499 108.5s-63.834 39.5 -114.501 39.5c-11.333 0 -21.333 -0.166992 -30 -0.5s-15.667 -0.5 -21 -0.5h-16v-296c10.667 -4.66699 27 -7 49 -7c13.333 0 29.833 1.66699 49.5 5s38.5 10.5 56.5 21.5s33.333 26.833 46 47.5s19 48 19 82z
M471.001 494c0 -27.333 -4.83203 -51.165 -14.499 -71.498s-21 -37.833 -34 -52.5s-26.167 -26.334 -39.5 -35.001s-24 -14.667 -32 -18s-19.167 -7 -33.5 -11s-30.5 -7 -48.5 -9s-37.167 -2.16699 -57.5 -0.5s-40.166 6.5 -59.499 14.5v-266c0 -11.333 2.5 -20.5 7.5 -27.5
s11.833 -12.833 20.5 -17.5h-149c7.33301 4.66699 13.833 10.5 19.5 17.5s8.5 16.167 8.5 27.5v590c0 11.333 -2.83301 20.666 -8.5 27.999s-12.167 13 -19.5 17h191c50 0 91.167 -6 123.5 -18s57.666 -27.167 75.999 -45.5s31.166 -38.5 38.499 -60.5s11 -42.667 11 -62z
" />
    <glyph glyph-name="Q" unicode="Q" horiz-adv-x="777" 
d="M632 331c0 48 -6.33691 91.498 -19.0039 130.498s-30.334 72.333 -53.001 100s-49.667 48.834 -81 63.501s-65.666 22 -102.999 22s-71.666 -6.66699 -102.999 -20s-58.666 -32.5 -81.999 -57.5s-41.5 -55.5 -54.5 -91.5s-19.5 -77 -19.5 -123
c0 -54.667 7.83301 -102 23.5 -142s35.834 -73 60.501 -99s52.5 -45.333 83.5 -58s62.167 -19 93.5 -19c36.667 0 70.5 6.83301 101.5 20.5s57.833 33.334 80.5 59.001s40.334 56.5 53.001 92.5s19 76.667 19 122zM815.996 -183.002c-42 -10 -84.333 -13.9971 -127 -11.9971
s-84.5 10.167 -125.5 24.5s-80.333 35 -118 62s-72.5 60.833 -104.5 101.5c-46 4 -89.333 15.667 -130 35s-76.167 44.5 -106.5 75.5s-54.166 67.333 -71.499 109s-25.333 86.834 -24 135.501c0.666992 40.667 9.66699 81.667 27 123s42.166 78.333 74.499 111
s71.5 59 117.5 79s98.667 29.333 158 28c42 -1.33301 84.333 -9.83301 127 -25.5s81 -38.334 115 -68.001s61.667 -66.167 83 -109.5s31.333 -93.333 30 -150c-1.33301 -50.667 -11.5 -95.834 -30.5 -135.501s-43.167 -73.834 -72.5 -102.501s-62.5 -51.5 -99.5 -68.5
s-73.833 -27.833 -110.5 -32.5c66 -46.667 131.667 -83.334 197 -110.001s129 -50 191 -70z" />
    <glyph glyph-name="R" unicode="R" horiz-adv-x="563" 
d="M362 510c0 12 -2 25.5 -6 40.5s-11 29.167 -21 42.5s-23.667 24.5 -41 33.5s-39.333 13.5 -66 13.5c-11.333 0 -21.5 -0.166992 -30.5 -0.5s-16.833 -0.833008 -23.5 -1.5c-7.33301 -0.666992 -14.333 -1 -21 -1v-275c6 -0.666992 12.333 -1 19 -1
c5.33301 -0.666992 11.5 -1 18.5 -1h20.5c18.667 0 37.167 2.83301 55.5 8.5s34.5 14.667 48.5 27s25.333 28 34 47s13 41.5 13 67.5zM514 -2c-19.333 -0.666992 -36 4.33105 -50 14.998s-24.667 21.334 -32 32.001l-67 103.5l-55 88.5l-19.5 30
c-6.33301 10 -13.166 18.833 -20.499 26.5s-15.833 14 -25.5 19s-20.834 7.5 -33.501 7.5h-58v-275c0 -11.333 2.83301 -20.5 8.5 -27.5s12.167 -12.833 19.5 -17.5h-149c7.33301 4.66699 13.666 10.5 18.999 17.5s8 16.167 8 27.5v590c0 11.333 -2.66699 20.666 -8 27.999
s-11.666 13 -18.999 17h188c50 0 90.833 -5.66699 122.5 -17s56.334 -25.5 74.001 -42.5s29.834 -35.167 36.501 -54.5s10 -37 10 -53c0 -27.333 -5.33301 -51.166 -16 -71.499s-24 -37.5 -40 -51.5s-33.167 -24.667 -51.5 -32s-35.166 -11.666 -50.499 -12.999
c13.333 -2.66699 25.166 -7 35.499 -13s19.5 -12.667 27.5 -20s14.667 -14.833 20 -22.5l14 -19.5l59 -97l24.5 -39.5l24.5 -37.5c8 -12 15.667 -22.833 23 -32.5s13.666 -17.5 18.999 -23.5s11.666 -11.5 18.999 -16.5s14.333 -9.16699 21 -12.5
c7.33301 -4 15.333 -7.66699 24 -11z" />
    <glyph glyph-name="S" unicode="S" horiz-adv-x="455" 
d="M424 195c0 -31.333 -6.50879 -59.4961 -19.5088 -84.4961s-30 -46.333 -51 -64s-44.667 -31.334 -71 -41.001s-52.833 -14.5 -79.5 -14.5c-22 0 -42.333 2 -61 6s-35.667 8.83301 -51 14.5s-29.166 11.667 -41.499 18s-23.166 12.166 -32.499 17.499l-3 150
c5.33301 -18 12.833 -36.667 22.5 -56s21.834 -37 36.501 -53s32.167 -29.167 52.5 -39.5s43.833 -15.5 70.5 -15.5s48.834 4.66699 66.501 14s31.667 20.833 42 34.5s17.5 28.334 21.5 44.001s6 29.5 6 41.5c0 24 -4.33301 43.833 -13 59.5s-20.5 29.167 -35.5 40.5
s-32.833 21.833 -53.5 31.5l-67 32.5c-48.667 24.667 -85.167 50.667 -109.5 78s-36.5 61.666 -36.5 102.999c0 30 6.33301 56.167 19 78.5s29 40.666 49 54.999s42.167 25.166 66.5 32.499s48.5 11 72.5 11c18.667 0 41.334 -2.5 68.001 -7.5s51.667 -15.167 75 -30.5
l5 -132c-3.33301 12 -9.16602 25.5 -17.499 40.5s-19.333 29.167 -33 42.5s-29.834 24.5 -48.501 33.5s-39.667 13.5 -63 13.5c-21.333 0 -39.166 -3.5 -53.499 -10.5s-25.666 -15.833 -33.999 -26.5s-14.333 -22.167 -18 -34.5s-5.5 -23.833 -5.5 -34.5
c0 -16 2.5 -29.667 7.5 -41s13 -21.833 24 -31.5s25.167 -19.334 42.5 -29.001s38 -20.5 62 -32.5l70 -35c22.667 -11.333 42.834 -24.666 60.501 -39.999s31.834 -34 42.501 -56s16 -49.667 16 -83z" />
    <glyph glyph-name="T" unicode="T" horiz-adv-x="511" 
d="M507 593c-5.33301 8 -12 16.333 -20 25s-18.667 13.334 -32 14.001c-17.333 0.666992 -35.333 1.66699 -54 3c-16 1.33301 -33.667 2.33301 -53 3s-38 1 -56 1v-594c0 -11.333 2.33301 -20.5 7 -27.5s11 -12.833 19 -17.5h-148c17.333 9.33301 26 24.333 26 45v594
c-19.333 0 -38.5 -0.333008 -57.5 -1s-36.5 -1.66699 -52.5 -3c-18.667 -1.33301 -36.667 -2.33301 -54 -3c-12 -0.666992 -22.5 -5.33398 -31.5 -14.001s-15.833 -17 -20.5 -25v87h526z" />
    <glyph glyph-name="U" unicode="U" horiz-adv-x="601" 
d="M562 680c-8 -4 -14.501 -9.66797 -19.501 -17.001s-7.5 -16.666 -7.5 -27.999l-3 -419c0 -41.333 -6.33301 -76.166 -19 -104.499s-29.5 -51.5 -50.5 -69.5s-45.333 -31 -73 -39s-57.167 -12 -88.5 -12c-27.333 0 -55.833 3.66699 -85.5 11
s-56.834 19.666 -81.501 36.999s-44.834 40.333 -60.501 69s-23.5 64 -23.5 106v421c0 11.333 -3.33301 20.666 -10 27.999s-13.667 13 -21 17h160c-8 -4 -15.5 -9.66699 -22.5 -17s-10.5 -16.666 -10.5 -27.999v-423c0 -17.333 2 -36.166 6 -56.499
s11.833 -39.333 23.5 -57s28.334 -32.334 50.001 -44.001s50.167 -17.5 85.5 -17.5c33.333 0 61.333 4.83301 84 14.5s40.834 22.667 54.501 39s23.334 35 29.001 56s8.5 42.833 8.5 65.5l-4 423c0 21.333 -8.66699 36.333 -26 45h105z" />
    <glyph glyph-name="V" unicode="V" horiz-adv-x="511" 
d="M534 680c-6.66699 -4 -11.6699 -7.66699 -15.0029 -11s-6.16602 -6.66602 -8.49902 -9.99902s-4.33301 -7 -6 -11l-6.5 -16l-15.5 -40l-30.5 -79.5l-40.5 -106l-44.5 -118.5l-118 -314l-126 315l-47.5 118.5l-43 106l-33 79.5l-16.5 39
c-5.33301 10 -11.166 19 -17.499 27s-17.833 15 -34.5 21h182c-13.333 -5.33301 -20.666 -13.333 -21.999 -24s-0.333008 -22.334 3 -35.001c0 -0.666992 2.66699 -7.66699 8 -21l20.5 -52.5l28.5 -74.5l33 -85l89 -231l88 236l32 86.5l28.5 76.5l20 54.5
c5 13.667 7.5 20.834 7.5 21.501c4.66699 12 6 21.667 4 29s-9 13.666 -21 18.999h102z" />
    <glyph glyph-name="W" unicode="W" horiz-adv-x="750" 
d="M786 680c-6.66699 -4 -12.335 -7.66602 -17.002 -10.999s-8.83398 -7 -12.501 -11s-7 -8.5 -10 -13.5s-5.83301 -11.167 -8.5 -18.5l-246 -652l-46 123l-42.5 110l-40.5 104l-123 -337l-128 316l-48 118l-43 105l-31.5 78c-8.33301 20.667 -13.166 33 -14.499 37
c-5.33301 12 -11.666 22.167 -18.999 30.5s-19 15.5 -35 21.5h183c-13.333 -5.33301 -21 -14 -23 -26s0 -23.667 6 -35l184 -466l70 214l-32 81l-34.5 83l-28 67.5l-13.5 33.5c-3.33301 9.33301 -8.16602 18.166 -14.499 26.499s-17.833 15.5 -34.5 21.5h176
c-12 -5.33301 -18.833 -14 -20.5 -26s-0.166992 -23.667 4.5 -35l53 -132l52 143c4.66699 12 6.16699 22.333 4.5 31s-9.16699 15 -22.5 19h106c-6.66699 -4 -12.167 -7.66699 -16.5 -11s-8 -6.83301 -11 -10.5s-5.66699 -7.66699 -8 -12s-4.83301 -9.83301 -7.5 -16.5
l-75 -197l101 -280l165 470c4.66699 13.333 6 24.833 4 34.5s-9.66699 17.167 -23 22.5h120z" />
    <glyph glyph-name="X" unicode="X" horiz-adv-x="507" 
d="M349 -2c12.667 5.33301 21.665 12.5 26.998 21.5s2.33301 22.833 -9 41.5l-146 235l-164 -247c-3.33301 -8 -4.5 -17.167 -3.5 -27.5s8.5 -18.166 22.5 -23.499h-141c16 8 28.667 16.167 38 24.5s18.666 19.5 27.999 33.5l71 99l63.5 91.5
c22.333 33 42.166 63.5 59.499 91.5l-183 290c-9.33301 15.333 -19.166 26 -29.499 32s-23.166 12.667 -38.499 20h202c-6 -2.66699 -11.5 -5.5 -16.5 -8.5s-8.5 -6.83301 -10.5 -11.5s-2.16699 -10.334 -0.5 -17.001s5.5 -15 11.5 -25l124 -195l130 209
c5.33301 8 6.83301 16.667 4.5 26s-10.166 16.666 -23.499 21.999h132c-14 -6 -25.167 -12.667 -33.5 -20s-16.166 -16.666 -23.499 -27.999l-160 -251l209 -332l13 -20.5c3.33301 -5 6.83301 -9 10.5 -12s8 -5.83301 13 -8.5s11.833 -6 20.5 -10h-197z" />
    <glyph glyph-name="Y" unicode="Y" horiz-adv-x="466" 
d="M490 680c-14.667 -6 -26.499 -13.668 -35.499 -23.001s-16.833 -20 -23.5 -32l-162 -303v-277c0 -11.333 3.83301 -20.5 11.5 -27.5s16.167 -12.833 25.5 -17.5h-171c8 4.66699 16.167 10.334 24.5 17.001s12.5 16 12.5 28v273l-191 314c-7.33301 12.667 -15 22 -23 28
s-19 12.667 -33 20h193c-6 -2.66699 -11.333 -5.16699 -16 -7.5s-8.16699 -5.66602 -10.5 -9.99902s-2.83301 -10 -1.5 -17s5.33301 -16.167 12 -27.5l146 -247l136 261c7.33301 13.333 9.16602 23.666 5.49902 30.999s-12.5 13 -26.5 17h127z" />
    <glyph glyph-name="Z" unicode="Z" horiz-adv-x="488" 
d="M112 43c6.66699 0 21.001 -0.168945 43.001 -0.501953s47.167 -0.333008 75.5 0s57.333 1.33301 87 3s56.167 4.5 79.5 8.5c20 3.33301 35 11 45 23s17 23 21 33l-1 -110h-488l367 639c-26.667 0 -53.334 0.333008 -80.001 1s-52 0.833984 -76 0.500977
s-46 -1.16602 -66 -2.49902s-36.333 -4 -49 -8c-19.333 -5.33301 -34.5 -13.5 -45.5 -24.5s-19.167 -22.167 -24.5 -33.5v108h475z" />
    <glyph glyph-name="bracketleft" unicode="[" horiz-adv-x="220" 
d="M44 -130v835h120v-26h-38v-785h38v-24h-120z" />
    <glyph glyph-name="backslash" unicode="\" horiz-adv-x="488" 
d="M399 0c-8 17.333 -21.833 43.502 -41.5 78.502l-68.5 118.5l-83 138.5l-84.5 139.5l-73.5 121.5c-22 36.333 -38.333 64.166 -49 83.499h66c7.33301 -18 20.833 -44.667 40.5 -80l68.5 -119.5l83.5 -139.5l85 -139.5l73 -120c21.667 -35.667 37.5 -62.834 47.5 -81.501
h-64z" />
    <glyph glyph-name="bracketright" unicode="]" horiz-adv-x="220" 
d="M35 -130v24h40v785h-38v26h120v-835h-122z" />
    <glyph glyph-name="asciicircum" unicode="^" horiz-adv-x="381" 
d="M293 338l-114 278l-117 -278h-56l147 342h50l143 -342h-53z" />
    <glyph glyph-name="underscore" unicode="_" horiz-adv-x="439" 
d="M73 -70v56h341v-56h-341z" />
    <glyph glyph-name="grave" unicode="`" horiz-adv-x="292" 
d="M211 503c-2.66699 -2 -10.335 0 -23.002 6l-42 20c-17.333 8.66699 -36.666 19 -57.999 31c-8 3.33301 -16.167 8.5 -24.5 15.5s-12.5 15.833 -12.5 26.5s3.5 19.5 10.5 26.5s15.167 10.5 24.5 10.5c10.667 0 20.334 -4 29.001 -12s15.667 -15.667 21 -23l39 -48
l26 -34.5c8 -11 11.333 -17.167 10 -18.5z" />
    <glyph glyph-name="a" unicode="a" 
d="M279 261c-16 -8 -32.001 -14.333 -48.001 -19s-35.667 -11 -59 -19c-23.333 -8.66699 -43 -20 -59 -34s-24 -33.667 -24 -59c0 -26.667 6.83301 -47.167 20.5 -61.5s32.167 -21.5 55.5 -21.5c24.667 0 46.334 5 65.001 15s35 22.333 49 37v162zM314.999 -10
c-11.333 7.33301 -19.8369 15.5 -25.5039 24.5s-8.83398 25.5 -9.50098 49.5c-8 -8 -17.167 -16.333 -27.5 -25s-22.166 -16.5 -35.499 -23.5s-27.666 -12.833 -42.999 -17.5s-32 -7 -50 -7c-22 0 -40.667 4.33301 -56 13s-27.833 19.334 -37.5 32.001s-16.5 26 -20.5 40
s-6 26.333 -6 37c0 19.333 4.66699 39 14 59s27 38 53 54c13.333 8 30 15.167 50 21.5l60.5 18.5c20.333 6 39 12.167 56 18.5s29.5 13.5 37.5 21.5c0.666992 0.666992 1.33398 3.16699 2.00098 7.5s1.16699 8.83301 1.5 13.5s0.5 9 0.5 13v8
c0 10.667 -1.5 21.167 -4.5 31.5s-8 19.666 -15 27.999s-15.833 15 -26.5 20s-24 7.5 -40 7.5c-21.333 0 -39.666 -3.66699 -54.999 -11s-28.666 -17.333 -39.999 -30s-20.833 -27.167 -28.5 -43.5s-14.5 -33.5 -20.5 -51.5l-2 124l29 18c10 6 21.167 11.333 33.5 16
s26.333 8.5 42 11.5s33.5 4.5 53.5 4.5c14.667 0 31 -1.5 49 -4.5s35 -9.33301 51 -19s29.5 -23.334 40.5 -41.001s16.5 -41.167 16.5 -70.5v-268c0 -12.667 1 -22.667 3 -30s11 -12.666 27 -15.999z" />
    <glyph glyph-name="b" unicode="b" horiz-adv-x="498" 
d="M370 238c0 36 -4.33301 65.667 -13 89s-19.667 41.833 -33 55.5s-28 23.167 -44 28.5s-31 8 -45 8c-16 0 -33.167 -2.66699 -51.5 -8s-34.166 -16.333 -47.499 -33v-301c5.33301 -8.66699 12.666 -16.667 21.999 -24c8 -6 18.5 -11.333 31.5 -16s29.167 -7 48.5 -7
c12 0 25.667 3.5 41 10.5s29.833 18.5 43.5 34.5s25 37.333 34 64s13.5 59.667 13.5 99zM464 242c0 -30.667 -4.99902 -60.999 -14.999 -90.999s-25 -56.833 -45 -80.5s-45 -42.834 -75 -57.501s-65 -22 -105 -22c-20 0 -39.833 2.66699 -59.5 8s-37.834 11.5 -54.501 18.5
s-30.667 13.667 -42 20s-18.333 10.166 -21 11.499v574c0 15.333 -3.83301 25.166 -11.5 29.499s-15.5 7.83301 -23.5 10.5l124 26v-273c20 18 40.167 32 60.5 42s45.833 15 76.5 15c31.333 0 58.833 -7.16699 82.5 -21.5s43.5 -32.666 59.5 -54.999
s28.167 -47.166 36.5 -74.499s12.5 -54 12.5 -80z" />
    <glyph glyph-name="c" unicode="c" horiz-adv-x="417" 
d="M394 111c-0.666992 -8 -4.33398 -18.833 -11.001 -32.5s-16.667 -27 -30 -40s-30.333 -24.167 -51 -33.5s-45 -14 -73 -14c-38 0 -70.833 7.33301 -98.5 22s-50.334 33.5 -68.001 56.5s-30.834 48.667 -39.501 77s-13 56.5 -13 84.5c0 24.667 4.33301 51.167 13 79.5
s22.334 54.5 41.001 78.5s42.834 44 72.501 60s65.167 24 106.5 24c15.333 0 30.666 -1.83301 45.999 -5.5s29.333 -7.83398 42 -12.501c14.667 -5.33301 28.667 -11.333 42 -18v-136c-11.333 38.667 -28.833 70.667 -52.5 96s-51.167 38 -82.5 38
c-24 0 -44.667 -5.83301 -62 -17.5s-31.666 -26.667 -42.999 -45s-19.666 -38.833 -24.999 -61.5s-8 -45 -8 -67c0 -25.333 3.16699 -49.666 9.5 -72.999s16 -44 29 -62s29.167 -32.5 48.5 -43.5s42 -16.5 68 -16.5c18 0 34.167 2.16699 48.5 6.5s27.333 9.5 39 15.5
s21.667 12.667 30 20s15.5 14 21.5 20z" />
    <glyph glyph-name="d" unicode="d" horiz-adv-x="494" 
d="M333 386c-7.33301 11.333 -17.3311 22 -29.998 32s-29.334 15 -50.001 15c-23.333 0 -44.333 -4.66699 -63 -14s-34.667 -22.5 -48 -39.5s-23.5 -37.167 -30.5 -60.5s-10.5 -49 -10.5 -77c0 -40 5.33301 -72.833 16 -98.5s23.667 -46 39 -61s31.166 -25.333 47.499 -31
s30.5 -8.5 42.5 -8.5c18 0 35 4.33301 51 13s28 16.667 36 24v306zM338.002 -9l-2.00098 53.9951c-6 -5.33301 -13.667 -11.166 -23 -17.499s-19.666 -12.166 -30.999 -17.499s-23.5 -9.83301 -36.5 -13.5s-26.167 -5.5 -39.5 -5.5c-34.667 0 -64.334 7.16699 -89.001 21.5
s-45 33 -61 56s-27.833 49.333 -35.5 79s-11.5 59.834 -11.5 90.501c0 27.333 5.16699 55 15.5 83s25.333 53.167 45 75.5s43.834 40.666 72.501 54.999s61 21.5 97 21.5c21.333 0 39.5 -3.16699 54.5 -9.5s28.167 -14.166 39.5 -23.499v185c0 8 -1 14.167 -3 18.5
s-4.83301 7.83301 -8.5 10.5s-7.5 4.83398 -11.5 6.50098s-8 3.16699 -12 4.5l123 24v-625c0 -15.333 4 -25.166 12 -29.499s15.667 -7.83301 23 -10.5z" />
    <glyph glyph-name="e" unicode="e" horiz-adv-x="460" 
d="M336 303c0 24 -3 44.5 -9 61.5s-14 30.833 -24 41.5s-21.5 18.5 -34.5 23.5s-26.5 7.5 -40.5 7.5c-18 0 -34 -3.66699 -48 -11s-26 -17.333 -36 -30s-18 -27 -24 -43s-10 -32.667 -12 -50h228zM104 266l0.000976562 -28.002c0 -25.333 3.33301 -49.333 10 -72
s16.667 -42.667 30 -60s30 -31.166 50 -41.499s43.333 -15.5 70 -15.5c17.333 0 34.5 3.16699 51.5 9.5s32.833 14.5 47.5 24.5s27.334 21.167 38.001 33.5s18.334 24.5 23.001 36.5c-0.666992 -20.667 -5.83398 -40.667 -15.501 -60s-22.667 -36.5 -39 -51.5
s-35.833 -27.167 -58.5 -36.5s-47.334 -14 -74.001 -14c-35.333 0 -67 6.83301 -95 20.5s-51.833 31.834 -71.5 54.501s-34.667 48.167 -45 76.5s-15.5 57.5 -15.5 87.5c0 27.333 4.83301 55.333 14.5 84s24 54.834 43 78.501s43 43 72 58s62.5 22.5 100.5 22.5
c21.333 0 43.166 -3.83301 65.499 -11.5s42.5 -19.834 60.5 -36.501s32.833 -38.167 44.5 -64.5s17.5 -57.833 17.5 -94.5h-324z" />
    <glyph glyph-name="f" unicode="f" horiz-adv-x="236" 
d="M277 571c-2 8.66699 -5 18.002 -9 28.002s-9.16699 19 -15.5 27s-13.333 14.667 -21 20s-15.834 8 -24.501 8c-16.667 0 -29.667 -4 -39 -12s-16.166 -17.333 -20.499 -28s-7 -21.834 -8 -33.501s-1.5 -20.834 -1.5 -27.501v-94h132v-38h-132v-383
c0 -11.333 2.66699 -19.333 8 -24s12 -9.33398 20 -14.001h-140c8 4.66699 14.5 9.33398 19.5 14.001s7.5 12.667 7.5 24v383h-56v38h56v84c0 19.333 2.66699 37.833 8 55.5s13.5 33.167 24.5 46.5s25.167 24 42.5 32s38 12 62 12c16.667 0 32 -1.5 46 -4.5
s27.667 -9.16699 41 -18.5v-95z" />
    <glyph glyph-name="g" unicode="g" horiz-adv-x="441" 
d="M361 -84c0 14.667 -4.16895 26.168 -12.502 34.501s-18 14.5 -29 18.5s-22 6.33301 -33 7s-19.167 1 -24.5 1c-34 1.33301 -61.833 2.5 -83.5 3.5s-37.834 2.16699 -48.501 3.5c-20 -7.33301 -36.833 -18.333 -50.5 -33s-20.5 -30.667 -20.5 -48
c0 -12 3.33301 -23.333 10 -34s16.334 -20.334 29.001 -29.001s28.334 -15.5 47.001 -20.5s40.334 -7.5 65.001 -7.5c21.333 0 41.166 2.66699 59.499 8s34.333 12.5 48 21.5s24.334 19.833 32.001 32.5s11.5 26.667 11.5 42zM305.998 296.001
c0 25.333 -2.66992 47.168 -8.00293 65.501s-12.666 33.333 -21.999 45s-20.166 20.167 -32.499 25.5s-25.166 8 -38.499 8c-32 0 -57.167 -11 -75.5 -33s-27.5 -56.333 -27.5 -103c0 -28.667 3.16699 -52.334 9.5 -71.001s14.166 -33.5 23.499 -44.5
s19.833 -18.833 31.5 -23.5s22.5 -7 32.5 -7c14.667 0 28.5 2.66699 41.5 8s24.333 13.5 34 24.5s17.334 25.167 23.001 42.5s8.5 38.333 8.5 63zM334.995 425.003c19.333 -17.333 33.832 -37.1611 43.499 -59.4941s14.5 -44.833 14.5 -67.5
c0 -23.333 -4.5 -45.5 -13.5 -66.5s-21.667 -39.5 -38 -55.5s-36.166 -28.667 -59.499 -38s-49 -14 -77 -14c-13.333 0 -25 1 -35 3c-15.333 -1.33301 -28.833 -5.33301 -40.5 -12s-17.5 -16.667 -17.5 -30c0 -8.66699 5.5 -15.334 16.5 -20.001
s32.167 -7.33398 63.5 -8.00098l87 -1c16.667 0 33.667 -1.66699 51 -5s33.166 -8.83301 47.499 -16.5s26 -18.334 35 -32.001s13.5 -31.167 13.5 -52.5c0 -24 -6.16699 -46.833 -18.5 -68.5s-29.333 -40.834 -51 -57.501s-47.667 -29.834 -78 -39.501
s-63.5 -14.5 -99.5 -14.5c-22 0 -44 2.16699 -66 6.5s-41.667 11 -59 20s-31.333 20.667 -42 35s-16 31.5 -16 51.5c0 16 3.16699 29.833 9.5 41.5s14.166 21.667 23.499 30s19.333 15.333 30 21s20.334 10.5 29.001 14.5c-9.33301 2.66699 -17.666 6.66699 -24.999 12
c-6 4.66699 -11.5 10.5 -16.5 17.5s-7.5 16.167 -7.5 27.5c0 10 2.66699 19.5 8 28.5s12 17.167 20 24.5s17 14.166 27 20.499s19.667 11.833 29 16.5c-32 13.333 -57.667 33.5 -77 60.5s-29 60.5 -29 100.5c0 24 5 46.667 15 68s23.167 40 39.5 56s35.5 28.5 57.5 37.5
s45 13.5 69 13.5c14 0 27.333 -0.5 40 -1.5s26 -3.83301 40 -8.5h151v-38h-94z" />
    <glyph glyph-name="h" unicode="h" horiz-adv-x="508" 
d="M327 0c8 4.66699 14.5 9.33496 19.5 14.002s7.5 12.667 7.5 24v263c0 14.667 -1.66699 28.834 -5 42.501s-9.16602 25.667 -17.499 36s-19.333 18.666 -33 24.999s-30.834 9.5 -51.501 9.5c-22.667 0 -44.167 -5.33301 -64.5 -16s-35.166 -22.667 -44.499 -36v-324
c0 -11.333 2.33301 -19.333 7 -24s11.667 -9.33398 21 -14.001h-141c8.66699 4.66699 15.167 9.33398 19.5 14.001s6.5 12.667 6.5 24v587c0 14.667 -3.83301 24.167 -11.5 28.5s-15.5 8.16602 -23.5 11.499l122 24v-287c5.33301 4.66699 13.166 11 23.499 19
s22.166 15.833 35.499 23.5s27.833 14.334 43.5 20.001s31.834 8.5 48.501 8.5c19.333 0 38 -3 56 -9s34 -14.667 48 -26s25.167 -25.833 33.5 -43.5s12.5 -37.834 12.5 -60.501v-296c0 -11.333 2.16699 -19.333 6.5 -24s10.833 -9.33398 19.5 -14.001h-138z" />
    <glyph glyph-name="i" unicode="i" horiz-adv-x="212" 
d="M25 0c7.33301 4.66699 13.5 9.33496 18.5 14.002s7.5 12.667 7.5 24v371c0 15.333 -3.83301 25.166 -11.5 29.499s-15.5 7.83301 -23.5 10.5l122 24v-435c0 -11.333 2.33301 -19.333 7 -24s11 -9.33398 19 -14.001h-139zM143 625.001c0 -14 -4.83301 -26 -14.5 -36
s-21.167 -15 -34.5 -15s-25 5 -35 15s-15 22 -15 36c0 13.333 5 24.666 15 33.999s21.667 14 35 14s24.833 -4.66699 34.5 -14s14.5 -20.666 14.5 -33.999z" />
    <glyph glyph-name="j" unicode="j" horiz-adv-x="204" 
d="M136 -68c0 -18.667 -3.33301 -36.501 -10 -53.501s-15.834 -31.833 -27.501 -44.5s-25.5 -22.667 -41.5 -30s-33 -11 -51 -11c-22 0 -39.667 2.83301 -53 8.5s-24.666 11.5 -33.999 17.5l-2 87c14 -52 38.333 -78 73 -78c15.333 0 27 3.83301 35 11.5
s13.667 16.167 17 25.5c4 11.333 6.33301 24 7 38v506c0 8 -1 14.333 -3 19s-4.66699 8.33398 -8 11.001s-7 4.66699 -11 6l-12 4l121 24v-541zM142 624.999c0 -14 -4.83301 -26 -14.5 -36s-21.167 -15 -34.5 -15c-14 0 -26 5 -36 15s-15 22 -15 36
c0 13.333 5 24.666 15 33.999s22 14 36 14c13.333 0 24.833 -4.66699 34.5 -14s14.5 -20.666 14.5 -33.999z" />
    <glyph glyph-name="k" unicode="k" horiz-adv-x="446" 
d="M305 0c11.333 4.66699 18 10.668 20 18.001s0.333008 13.666 -5 18.999l-182 198v-197c0 -11.333 2.33301 -19.333 7 -24s11 -9.33398 19 -14.001h-140c8 4.66699 14.5 9.33398 19.5 14.001s7.5 12.667 7.5 24v583c0 15.333 -4 25.5 -12 30.5s-16.333 8.16699 -25 9.5
l124 28v-431l34 32.5l54 51.5l72 70c12.667 12 17.667 22 15 30s-10.667 14.333 -24 19h146c-13.333 -6 -25.5 -12.167 -36.5 -18.5s-22.167 -14.5 -33.5 -24.5l-43 -40l-51 -47l-60 -56l212 -230c8.66699 -9.33301 17 -17.333 25 -24s20 -13.667 36 -21h-179z" />
    <glyph glyph-name="l" unicode="l" horiz-adv-x="212" 
d="M25 0c7.33301 4.66699 13.498 9.33301 18.498 14s7.5 12.667 7.5 24v587c0 8 -1.16699 14.167 -3.5 18.5s-5.16602 7.83301 -8.49902 10.5s-7.16602 4.83398 -11.499 6.50098s-8.83301 3.16699 -13.5 4.5l124 24v-651c0 -11.333 2.33301 -19.333 7 -24
s11 -9.33398 19 -14.001h-139z" />
    <glyph glyph-name="m" unicode="m" horiz-adv-x="794" 
d="M621 0c7.33301 4.66699 13.8291 9.3291 19.4961 13.9961s8.5 12.667 8.5 24v268c0 14.667 -1.83301 28.667 -5.5 42s-9.66699 25 -18 35s-19.166 18 -32.499 24s-29.666 9 -48.999 9c-20 0 -39.833 -6.16699 -59.5 -18.5s-35.834 -27.166 -48.501 -44.499
c1.33301 -3.33301 2 -8.33301 2 -15v-300c0 -11.333 2.33301 -19.333 7 -24s11 -9.33398 19 -14.001h-139c8 4.66699 14.333 9.33398 19 14.001s7 12.667 7 24v272c0 14 -1.66699 27.5 -5 40.5s-9 24.333 -17 34s-18.667 17.334 -32 23.001s-30 8.5 -50 8.5
c-23.333 0 -43.666 -5.66699 -60.999 -17s-30.666 -22.666 -39.999 -33.999v-327c0 -11.333 2.66699 -19.333 8 -24s12 -9.33398 20 -14.001h-140c8 4.66699 14.333 9.33398 19 14.001s7 12.667 7 24v371c0 15.333 -3.83301 25.166 -11.5 29.499
s-15.834 7.83301 -24.501 10.5l122 24v-69l23.5 18.5c9.66699 7.66699 20.667 15.334 33 23.001s26 14.167 41 19.5s31.167 8 48.5 8c28 0 55.167 -7.5 81.5 -22.5s44.5 -36.833 54.5 -65.5c8 10 17.667 20.333 29 31s23.833 20.167 37.5 28.5s28.334 15.166 44.001 20.499
s31.5 8 47.5 8c16.667 0 33.834 -2.66699 51.501 -8s33.667 -13.666 48 -24.999s26 -25.666 35 -42.999s13.5 -37.666 13.5 -60.999v-298c0 -11.333 2.33301 -19.333 7 -24s11 -9.33398 19 -14.001h-139z" />
    <glyph glyph-name="n" unicode="n" horiz-adv-x="498" 
d="M319 0c8.66699 4.66699 15.1641 9.33398 19.4971 14.001s6.5 12.667 6.5 24v260c0 14 -1.33301 27.833 -4 41.5s-8 26 -16 37s-18.833 20 -32.5 27s-31.5 10.5 -53.5 10.5c-21.333 0 -41.166 -5.66699 -59.499 -17s-32.166 -23 -41.499 -35v-324
c0 -11.333 2.33301 -19.333 7 -24s11 -9.33398 19 -14.001h-138c8 4.66699 14.167 9.33398 18.5 14.001s6.5 12.667 6.5 24v371c0 15.333 -3.33301 25.333 -10 30s-14.334 8.66699 -23.001 12l120 22v-71c5.33301 6 12.833 13 22.5 21s20.834 15.833 33.501 23.5
s26.5 14 41.5 19s30.5 7.5 46.5 7.5c18.667 0 36.834 -3 54.501 -9s33.5 -15 47.5 -27s25.167 -26.667 33.5 -44s12.5 -37 12.5 -59v-296c0 -11.333 2.5 -19.333 7.5 -24s11.167 -9.33398 18.5 -14.001h-137z" />
    <glyph glyph-name="o" unicode="o" horiz-adv-x="484" 
d="M357 238c-1.33301 25.333 -4.83203 50.1631 -10.499 74.4961s-14.167 45.833 -25.5 64.5s-25.333 33.5 -42 44.5s-36 16.167 -58 15.5s-40.833 -7.16699 -56.5 -19.5s-28.334 -28.166 -38.001 -47.499s-16.667 -41.5 -21 -66.5s-6.16602 -50.833 -5.49902 -77.5
c0.666992 -27.333 4.33398 -53 11.001 -77s15.667 -45 27 -63s25.166 -32 41.499 -42s34.833 -14.667 55.5 -14c22 0.666992 40.833 6.83398 56.5 18.501s28.667 26.834 39 45.501s17.666 40.334 21.999 65.001s5.83301 51 4.5 79zM448.001 230.997
c0 -29.333 -5.16797 -58.3301 -15.501 -86.9971s-25.166 -54.334 -44.499 -77.001s-42.5 -41 -69.5 -55s-57.167 -21 -90.5 -21c-39.333 0 -73 7.66699 -101 23s-50.667 34.666 -68 57.999s-30 49 -38 77s-12 55.333 -12 82c0 30 5 59.333 15 88s24.5 54.5 43.5 77.5
s42.167 41.5 69.5 55.5s58.333 21 93 21c38 0 70.667 -7.16699 98 -21.5s50 -32.833 68 -55.5s31.167 -48.334 39.5 -77.001s12.5 -58 12.5 -88z" />
    <glyph glyph-name="p" unicode="p" horiz-adv-x="502" 
d="M373 231c0 38 -4.66699 69.166 -14 93.499s-21 43.333 -35 57s-28.833 23.167 -44.5 28.5s-29.834 8 -42.501 8c-21.333 0 -41.166 -5.16699 -59.499 -15.5s-32.166 -21.5 -41.499 -33.5v-292c9.33301 -11.333 21.166 -22 35.499 -32s32.833 -15 55.5 -15
c44.667 0 80.167 17.833 106.5 53.5s39.5 84.834 39.5 147.501zM467 234.999c0 -27.333 -4.83301 -55.334 -14.5 -84.001s-24 -54.834 -43 -78.501s-42.833 -43.167 -71.5 -58.5s-61.667 -23 -99 -23c-22.667 0 -42 2 -58 6s-31 9.66699 -45 17v-204
c0 -11.333 2.5 -19.666 7.5 -24.999s11.167 -9.66602 18.5 -12.999h-139c8 3.33301 14.333 7.66602 19 12.999s7 13.666 7 24.999v595c0 16 -3.5 26.333 -10.5 31s-14.5 8.33398 -22.5 11.001l119 26v-62c4.66699 6 11.5 12.667 20.5 20s19.5 14 31.5 20
s25.167 11.167 39.5 15.5s29.5 6.5 45.5 6.5c21.333 0 43.5 -4.66699 66.5 -14s44 -23.666 63 -42.999s34.667 -44 47 -74s18.5 -65.667 18.5 -107z" />
    <glyph glyph-name="q" unicode="q" horiz-adv-x="490" 
d="M335 379c-3.33301 10 -8.66797 19.002 -16.001 27.002c-6 6.66699 -14.167 12.834 -24.5 18.501s-23.833 8.5 -40.5 8.5c-18 0 -36 -4.33301 -54 -13s-34.167 -21.334 -48.5 -38.001s-25.833 -37.334 -34.5 -62.001s-13 -53 -13 -85c0 -26 2.83301 -50.667 8.5 -74
s14.334 -43.833 26.001 -61.5s26.5 -31.667 44.5 -42s39.333 -15.5 64 -15.5c15.333 0 31.333 3.16699 48 9.5s30 15.166 40 26.499v301zM308.998 -227.998c8 3.33301 14.332 7.66699 18.999 13s7 13.666 7 24.999v228c-17.333 -14 -34.833 -25.333 -52.5 -34
s-40.5 -13 -68.5 -13c-36 0 -66.833 6.83301 -92.5 20.5s-46.667 31.334 -63 53.001s-28.5 46.167 -36.5 73.5s-12 55 -12 83c0 28.667 5 58 15 88s25 57.167 45 81.5s45 44.166 75 59.499s65 23 105 23c10.667 0 21.167 -1.16699 31.5 -3.5s20 -4.83301 29 -7.5
s16.667 -5.33398 23 -8.00098s10.5 -4.33398 12.5 -5.00098c2 0.666992 7 1.83398 15 3.50098l26 5.5c10.667 2.66699 22.334 5 35.001 7v-655c0 -11.333 2.5 -19.666 7.5 -24.999s11.5 -9.66602 19.5 -12.999h-140z" />
    <glyph glyph-name="r" unicode="r" horiz-adv-x="303" 
d="M284 371c-7.33301 9.33301 -15.667 16.834 -25 22.501s-20.666 8.5 -33.999 8.5c-19.333 0 -36.333 -6 -51 -18s-26.667 -24 -36 -36v-310c0 -11.333 2.5 -19.333 7.5 -24s11.167 -9.33398 18.5 -14.001h-139c8 4.66699 14.333 9.33398 19 14.001s7 12.667 7 24v371
c0 15.333 -3.83301 25.166 -11.5 29.499s-15.834 7.83301 -24.501 10.5l123 24v-88c5.33301 8.66699 12.333 18.167 21 28.5s18 20 28 29s20.167 16.333 30.5 22s19.833 8.5 28.5 8.5c12 0 19.833 -0.666992 23.5 -2s8.5 -3.33301 14.5 -6v-94z" />
    <glyph glyph-name="s" unicode="s" horiz-adv-x="338" 
d="M307 130c0 -23.333 -5.33691 -43.6689 -16.0039 -61.002s-24.167 -31.666 -40.5 -42.999s-34.5 -20 -54.5 -26s-39 -9 -57 -9c-28 0 -53 5.16699 -75 15.5s-41.333 20.833 -58 31.5v129c4 -17.333 9.83301 -34.166 17.5 -50.499s16.834 -30.833 27.501 -43.5
s22.834 -22.834 36.501 -30.501s28.834 -11.5 45.501 -11.5c18 0 32.833 3 44.5 9s21 13.333 28 22s11.833 17.5 14.5 26.5s4 16.5 4 22.5c0 12 -2.16699 22.333 -6.5 31s-11 16.834 -20 24.501s-20.167 15.334 -33.5 23.001l-46 26.5
c-19.333 11.333 -35.666 22.166 -48.999 32.499s-24 20.666 -32 30.999s-13.667 21.333 -17 33s-5 24.5 -5 38.5c0 12 2.5 25.167 7.5 39.5s13.333 27.666 25 39.999s26.834 22.5 45.501 30.5s42 12 70 12c13.333 0 29.166 -1.83301 47.499 -5.5s39.166 -11.5 62.499 -23.5
v-120c-4 12.667 -9.16699 25.834 -15.5 39.501s-14 26 -23 37s-19.333 20 -31 27s-25.167 10.5 -40.5 10.5c-12.667 0 -23.667 -1.83301 -33 -5.5s-17.166 -8.5 -23.499 -14.5s-11 -12.5 -14 -19.5s-4.5 -13.833 -4.5 -20.5c0 -21.333 7.5 -38 22.5 -50
s35.833 -25.667 62.5 -41l48 -28.5c16 -9.66699 30.333 -20.667 43 -33s23 -26.166 31 -41.499s12 -33.333 12 -54z" />
    <glyph glyph-name="t" unicode="t" horiz-adv-x="285" 
d="M285 59c0 -6.66699 -2.66602 -13.833 -7.99902 -21.5s-12.5 -15 -21.5 -22s-19.5 -12.833 -31.5 -17.5s-25.333 -7 -40 -7c-40 0 -73.167 12.167 -99.5 36.5s-39.5 60.5 -39.5 108.5v283h-43l130 134v-92h138v-42h-140v-282c0 -23.333 3.33301 -42 10 -56
s14.667 -24.5 24 -31.5s19.166 -11.5 29.499 -13.5s19.5 -3 27.5 -3c10 0 18.333 0.833008 25 2.5s12.334 3.66699 17.001 6s8.66699 5 12 8s6.66602 6.16699 9.99902 9.5z" />
    <glyph glyph-name="u" unicode="u" horiz-adv-x="498" 
d="M374 -9c-6 3.33301 -11.3369 6.83594 -16.0039 10.5029s-8.5 8 -11.5 13s-5.16699 11.167 -6.5 18.5s-2 16.666 -2 27.999c-15.333 -16.667 -34.666 -32.5 -57.999 -47.5s-52.666 -22.5 -87.999 -22.5c-14.667 0 -30.834 2.83301 -48.501 8.5s-34.167 15.5 -49.5 29.5
s-28.166 33.167 -38.499 57.5s-15.5 55.166 -15.5 92.499v230c0 8 -1 14.333 -3 19s-4.66699 8.33398 -8 11.001s-7 4.66699 -11 6l-12 4l121 24v-294c0 -42.667 10 -74.834 30 -96.501s44.333 -32.5 73 -32.5c24.667 0 44.834 5 60.501 15s30.834 22 45.501 36v308
c0 15.333 -3.83301 25.166 -11.5 29.499s-15.5 7.83301 -23.5 10.5l120 24v-393c0 -15.333 2.83301 -28 8.5 -38s16.167 -16.333 31.5 -19z" />
    <glyph glyph-name="v" unicode="v" horiz-adv-x="368" 
d="M398 459c-18 -6.66699 -32.334 -22.333 -43.001 -47l-184 -422l-181 421c-5.33301 12.667 -11.5 23.167 -18.5 31.5s-16.5 13.833 -28.5 16.5h168c-13.333 -4 -22 -10.167 -26 -18.5s-4 -17.833 0 -28.5l110 -275l110 270c6 15.333 6.33301 26.5 1 33.5
s-15.666 13.167 -30.999 18.5h123z" />
    <glyph glyph-name="w" unicode="w" horiz-adv-x="629" 
d="M665 461c-12 -5.33301 -22.502 -13.166 -31.502 -23.499s-15.167 -19.833 -18.5 -28.5l-186 -419l-126 342l-137 -342l-171 422c-5.33301 14 -11.833 24.5 -19.5 31.5s-17.167 12.833 -28.5 17.5h175c-28.667 -9.33301 -39 -25 -31 -47l97 -270l94 244l-15 33
c-5.33301 11.333 -11.666 20 -18.999 26s-18.666 10.667 -33.999 14h185c-29.333 -8.66699 -40.333 -24.334 -33 -47.001l94 -266l108 256c5.33301 11.333 5 22.5 -1 33.5s-15.667 18.833 -29 23.5h127z" />
    <glyph glyph-name="x" unicode="x" horiz-adv-x="383" 
d="M245 0c5.33301 2 10.3291 4.33594 14.9961 7.00293s7.83398 6.16699 9.50098 10.5s1.83398 9.5 0.500977 15.5s-5.33301 13.667 -12 23l-99 142l-113 -155c-4.66699 -6.66699 -7.16699 -14.334 -7.5 -23.001s7.5 -15.334 23.5 -20.001h-138
c6.66699 2 13.667 4.66699 21 8s14.166 7.16602 20.499 11.499s12 8.83301 17 13.5s8.83301 8.66699 11.5 12l137 186l-135 187l-12 15c-3.33301 4 -6.83301 7.66699 -10.5 11s-8 6.16602 -13 8.49902l-17.5 8.5h181c-5.33301 -2 -10.333 -4.33301 -15 -7
s-8.16699 -6.16699 -10.5 -10.5s-2.83301 -9.5 -1.5 -15.5s5.33301 -13.667 12 -23l83 -118l89 124c7.33301 10.667 8.66602 20.5 3.99902 29.5s-13.667 15.833 -27 20.5h138c-13.333 -6 -24.166 -12.167 -32.499 -18.5s-16.166 -14.5 -23.499 -24.5l-123 -162l149 -213
c8.66699 -12.667 17.334 -21.167 26.001 -25.5s19.334 -10.166 32.001 -17.499h-179z" />
    <glyph glyph-name="y" unicode="y" horiz-adv-x="395" 
d="M429 459c-12 -5.33301 -22.332 -11.333 -30.999 -18s-15.667 -16.667 -21 -30l-61 -142l-73.5 -164.5l-76.5 -173.5l-71 -168h-90c10.667 5.33301 19.5 10.833 26.5 16.5s13 11.5 18 17.5s9.33301 12.333 13 19l11.5 22l43 84.5l46 96.5l-158 393
c-4 9.33301 -7.66699 16.5 -11 21.5s-6.83301 9 -10.5 12s-7.83398 5.33301 -12.501 7s-10.334 3.83398 -17.001 6.50098h173c-6 -2 -11.333 -4.33301 -16 -7s-8.5 -6 -11.5 -10s-4.66699 -9 -5 -15s1.16699 -13.667 4.5 -23l108 -284l69.5 159.5
c21 50.333 37.833 92.166 50.5 125.499c6.66699 17.333 5.83398 30 -2.49902 38s-18.5 13.333 -30.5 16h135z" />
    <glyph glyph-name="z" unicode="z" horiz-adv-x="394" 
d="M371 0l-385.001 -0.000976562l261 421c-11.333 0.666992 -25.166 1 -41.499 1h-51h-51c-16.333 0 -30.5 -0.333008 -42.5 -1c-15.333 -1.33301 -27 -5.16602 -35 -11.499s-14.333 -14.5 -19 -24.5l3 76h357l-259 -423h31.5c13.667 0 29.667 0.166992 48 0.5
s38.5 0.833008 60.5 1.5s45 1.66699 69 3c10.667 0.666992 19.167 2.5 25.5 5.5s11.5 6.83301 15.5 11.5s7.33301 9.5 10 14.5l8 15.5z" />
    <glyph glyph-name="braceleft" unicode="{" horiz-adv-x="226" 
d="M176 -132c-24 -1.33301 -44.3301 -0.327148 -60.9971 3.00586s-30.334 9.83301 -41.001 19.5s-18.334 22.667 -23.001 39s-7 37.5 -7 63.5v178c0 14 0.166992 27.667 0.5 41s-0.666992 25.333 -3 36s-6.83301 20 -13.5 28s-17 14 -31 18c12.667 4 22.334 10 29.001 18
s11.334 17.5 14.001 28.5s4 23 4 36v39.5v174c0 25.333 2.83301 45.666 8.5 60.999s14.167 27 25.5 35s25.166 13.333 41.499 16s35.166 4 56.499 4c-13.333 -3.33301 -23.666 -8.33301 -30.999 -15s-12.666 -14.834 -15.999 -24.501s-5.33301 -20.834 -6 -33.501
s-1 -26.334 -1 -41.001v-164v-43.5c0 -14.333 -1.33301 -27.5 -4 -39.5s-7.66699 -22.5 -15 -31.5s-18.333 -15.5 -33 -19.5c16 -4 27.667 -10.667 35 -20s12.166 -20.333 14.499 -33s3.33301 -26.5 3 -41.5s-0.5 -30.5 -0.5 -46.5v-170
c0 -14.667 0.333008 -28.334 1 -41.001s2.66699 -24.167 6 -34.5s8.66602 -18.833 15.999 -25.5s17.666 -11.334 30.999 -14.001z" />
    <glyph glyph-name="bar" unicode="|" horiz-adv-x="168" 
d="M42 0v680h56v-680h-56z" />
    <glyph glyph-name="braceright" unicode="}" horiz-adv-x="226" 
d="M199 294c-14 -4 -24.3311 -10.0059 -30.998 -18.0059s-11.167 -17.333 -13.5 -28s-3.33301 -22.667 -3 -36s0.5 -27 0.5 -41v-178c0 -26 -2.33301 -47.167 -7 -63.5s-12.167 -29.333 -22.5 -39s-23.833 -16.167 -40.5 -19.5s-37 -4.33301 -61 -3
c13.333 2.66699 23.666 7.33398 30.999 14.001s12.666 15.167 15.999 25.5s5.33301 21.833 6 34.5s1 26.334 1 41.001v170c0 16 -0.166992 31.5 -0.5 46.5s1 28.833 4 41.5s8 23.667 15 33s18.167 16 33.5 20c-14.667 4 -25.667 10.5 -33 19.5s-12.333 19.5 -15 31.5
s-4 25.167 -4 39.5v43.5v164c0 14.667 -0.166992 28.334 -0.5 41.001s-2.16602 23.834 -5.49902 33.501s-8.66602 17.834 -15.999 24.501s-18 11.667 -32 15c21.333 0 40.166 -1.33301 56.499 -4s30 -8 41 -16s19.333 -19.667 25 -35s8.5 -35.666 8.5 -60.999v-174v-39.5
c0 -13 1.33301 -25 4 -36s7.16699 -20.5 13.5 -28.5s16.166 -14 29.499 -18z" />
    <glyph glyph-name="asciitilde" unicode="~" horiz-adv-x="372" 
d="M318 419c-9.33301 -11.333 -19.667 -21.332 -31 -29.999c-9.33301 -7.33301 -20 -14 -32 -20s-24.667 -9 -38 -9c-12 0 -23.5 1.66699 -34.5 5s-21.167 7.16602 -30.5 11.499l-25.5 11.5c-7.66699 3.33301 -14.167 5 -19.5 5c-8 0 -15.333 -1.83301 -22 -5.5
s-12.667 -7.5 -18 -11.5c-6 -4.66699 -11.667 -10 -17 -16l-21 19c0.666992 4 4.33398 9.83301 11.001 17.5s15 15.167 25 22.5s21.167 13.833 33.5 19.5s25.166 8.5 38.499 8.5c7.33301 0 15.666 -1.33301 24.999 -4s19 -5.66699 29 -9s19.833 -6.33301 29.5 -9
s18.167 -4 25.5 -4c8.66699 0 16.334 1 23.001 3s12.334 4.66699 17.001 8c5.33301 3.33301 9.66602 7.33301 12.999 12z" />
    <glyph glyph-name="nonbreakingspace" unicode="&#xa0;" horiz-adv-x="500" 
 />
    <glyph glyph-name="exclamdown" unicode="&#xa1;" horiz-adv-x="232" 
d="M155 -127c0 -32 -4.99902 -56.501 -14.999 -73.501s-24.667 -25.5 -44 -25.5c-20 0 -34.833 8.5 -44.5 25.5s-14.5 41.5 -14.5 73.5c0 4.66699 1 17.5 3 38.5s4.83301 46.167 8.5 75.5l12 95.5l13 99c4.33301 31.667 8.5 60.334 12.5 86.001s7.33301 44.5 10 56.5
c2.66699 -12 6 -30.833 10 -56.5s8.16699 -54.334 12.5 -86.001l13 -99c4.33301 -34.333 8.16602 -66.166 11.499 -95.499l8.5 -75.5c2.33301 -21 3.5 -33.833 3.5 -38.5zM145.001 418.999c0 -14 -4.66699 -25.5 -14 -34.5s-21 -13.5 -35 -13.5s-25.833 4.5 -35.5 13.5
s-14.5 20.5 -14.5 34.5s4.83301 26 14.5 36s21.5 15 35.5 15s25.667 -5 35 -15s14 -22 14 -36z" />
    <glyph glyph-name="cent" unicode="&#xa2;" horiz-adv-x="414" 
d="M211 157l-0.000976562 374.001c-20 -3.33301 -37.333 -11.166 -52 -23.499s-26.5 -27.333 -35.5 -45s-15.667 -36.834 -20 -57.501s-6.5 -40.667 -6.5 -60c0 -22 2.33301 -43.333 7 -64s11.834 -39.334 21.501 -56.001s21.5 -31 35.5 -43s30.667 -20.333 50 -25z
M390.999 212.001c-1.33301 -7.33301 -4.83203 -17.168 -10.499 -29.501s-14.167 -24.666 -25.5 -36.999s-25.666 -23.333 -42.999 -33s-38 -15.834 -62 -18.501c0 -23.333 0.166992 -42.333 0.5 -57s0.5 -23.667 0.5 -27h-41c0 3.33301 0.166992 12.166 0.5 26.499
s0.5 32.833 0.5 55.5c-35.333 2 -66 10.333 -92 25s-47.333 33.334 -64 56.001s-29 47.834 -37 75.501s-12 55.167 -12 82.5c0 22.667 3.83301 47.334 11.5 74.001s19.667 51.667 36 75s37.5 43.5 63.5 60.5s57.333 27.167 94 30.5c0 15.333 -0.166992 29.5 -0.5 42.5
s-0.5 24.833 -0.5 35.5h41v-20c0 -8 -0.166992 -16 -0.5 -24s-0.5 -15 -0.5 -21v-12c14.667 -0.666992 29.167 -2.83398 43.5 -6.50098s27.166 -7.83398 38.499 -12.501c13.333 -5.33301 26 -11.666 38 -18.999v-132c-10.667 35.333 -26.5 65 -47.5 89
s-45.833 37.667 -74.5 41c0 -29.333 0.166992 -60.333 0.5 -93s0.5 -65.667 0.5 -99s0.166992 -66.333 0.5 -99s0.5 -63 0.5 -91c18.667 0 35.5 2.16699 50.5 6.5s28.167 9.5 39.5 15.5s21.166 12.667 29.499 20s15.5 14 21.5 20z" />
    <glyph glyph-name="sterling" unicode="&#xa3;" horiz-adv-x="414" 
d="M398 87c-9.33301 -14 -18.6689 -29 -28.002 -45l-23 -40c-18.667 -7.33301 -36.334 -11 -53.001 -11s-33.167 1.33301 -49.5 4s-33 5.66699 -50 9s-35.167 5 -54.5 5c-20 0 -38.667 -1 -56 -3s-37 -7 -59 -15c18 27.333 32.833 51 44.5 71s21 38 28 54s11.833 31 14.5 45
s4 28.667 4 44c0 28 -3.83301 54 -11.5 78s-16.167 46.667 -25.5 68c-14 0 -27.667 -0.166992 -41 -0.5s-25.666 -0.5 -36.999 -0.5v43c8.66699 0 18.167 -0.333008 28.5 -1s21.166 -1 32.499 -1c-9.33301 21.333 -17.833 43 -25.5 65s-11.5 44.667 -11.5 68
c0 18.667 4.33301 37.834 13 57.501s21.334 37.5 38.001 53.5s37.5 29 62.5 39s53.5 15 85.5 15c19.333 0 42.333 -3.33301 69 -10s51.667 -16 75 -28l-3 -126c-2.66699 10.667 -7.5 23.334 -14.5 38.001s-16.333 28.5 -28 41.5s-25.334 24 -41.001 33
s-33.834 13.5 -54.501 13.5s-38 -3.66699 -52 -11s-25.333 -16.5 -34 -27.5s-14.834 -22.833 -18.501 -35.5s-5.5 -24.667 -5.5 -36c0 -28 5.33301 -53.833 16 -77.5l33 -72.5c16.667 0 32.667 0.166992 48 0.5s29 0.5 41 0.5s22 0.166992 30 0.5s13 0.5 15 0.5v-43
c-3.33301 0 -16.166 0.166992 -38.499 0.5s-48.166 0.5 -77.499 0.5c5.33301 -13.333 9.5 -27.333 12.5 -42s4.5 -30.667 4.5 -48c0 -26 -4 -50.333 -12 -73s-17.333 -43.5 -28 -62.5s-21.334 -35.5 -32.001 -49.5s-18.667 -25 -24 -33c20.667 12 39.834 19.667 57.501 23
s34.334 4.66602 50.001 3.99902s30.834 -2.33398 45.501 -5.00098s29.334 -4 44.001 -4c17.333 0 33.833 1.66699 49.5 5s31.167 10.333 46.5 21z" />
    <glyph glyph-name="yen" unicode="&#xa5;" horiz-adv-x="433" 
d="M474 680c-14.667 -6 -26.499 -13.668 -35.499 -23.001s-16.833 -20 -23.5 -32l-155 -291h98v-40h-105v-71h105v-40h-105v-138c0 -11.333 3.83301 -20.5 11.5 -27.5s16.167 -12.833 25.5 -17.5h-171c8 4.66699 16.167 10.334 24.5 17.001s12.5 16 12.5 28v138h-103v40h103
v71h-103v40h94l-182 298c-7.33301 12.667 -15 22 -23 28s-19 12.667 -33 20h193c-6 -2.66699 -11.333 -5.16699 -16 -7.5s-8.16699 -5.66602 -10.5 -9.99902s-2.83301 -10 -1.5 -17s5.33301 -16.167 12 -27.5l146 -247l136 261
c7.33301 13.333 9.16602 23.666 5.49902 30.999s-12.5 13 -26.5 17h127z" />
    <glyph glyph-name="section" unicode="&#xa7;" horiz-adv-x="425" 
d="M308 256c0 12.667 -3.33398 24.3369 -10.001 35.0039s-15.5 20.667 -26.5 30s-23.667 18.166 -38 26.499l-43.5 24.5c-17.333 0.666992 -32 -1.33301 -44 -6s-21.667 -10.834 -29 -18.501s-12.666 -16 -15.999 -25s-5 -17.167 -5 -24.5
c0 -13.333 3.16699 -25.5 9.5 -36.5s15 -21.167 26 -30.5s23.667 -18.333 38 -27s29.166 -17 44.499 -25c17.333 -0.666992 31.833 1.66602 43.5 6.99902s21.334 11.833 29.001 19.5s13.167 16.167 16.5 25.5s5 17.666 5 24.999zM392.999 271.003
c-1.33301 -33.333 -13.4971 -61.0039 -36.4971 -83.0039s-50.167 -36.667 -81.5 -44c31.333 -24 52.5 -46.667 63.5 -68s16.5 -45 16.5 -71c0 -11.333 -2.83301 -24.166 -8.5 -38.499s-15 -28 -28 -41s-30 -23.833 -51 -32.5s-46.833 -13 -77.5 -13
c-6 0 -13.833 0.333008 -23.5 1s-20 2.16699 -31 4.5s-22.333 5.5 -34 9.5s-22.834 9.33301 -33.501 16v119c3.33301 -13.333 8.83301 -26.833 16.5 -40.5s16.834 -26 27.501 -37s22.5 -20 35.5 -27s27.167 -10.5 42.5 -10.5c14 0 26.5 2.16699 37.5 6.5s20 9.83301 27 16.5
s12.5 13.834 16.5 21.501s6 14.834 6 21.501c1.33301 21.333 -5.83398 41.333 -21.501 60s-36.5 35.667 -62.5 51l-55.5 31c-21 11.333 -41 24.5 -60 39.5s-35 32.167 -48 51.5s-19.5 42 -19.5 68c0 16 3.33301 31 10 45s15.5 26.5 26.5 37.5s23.5 20.333 37.5 28
s29 13.167 45 16.5c-27.333 18 -47 37.333 -59 58s-18 43.667 -18 69c0 12 2.66699 25.333 8 40s14 28.5 26 41.5s27.5 23.833 46.5 32.5s42.5 13 70.5 13c13.333 0 30.166 -2.16699 50.499 -6.5s41.833 -12.5 64.5 -24.5l-1 -120
c-3.33301 12.667 -8.33301 25.834 -15 39.501s-14.834 26 -24.501 37s-20.834 20 -33.501 27s-26.334 10.5 -41.001 10.5c-13.333 0 -24.666 -2 -33.999 -6s-17.166 -9.33301 -23.499 -16s-11 -14 -14 -22s-4.5 -15.333 -4.5 -22c0 -20 7.33301 -38 22 -54
s35 -31.667 61 -47c16 -10 34.667 -20.667 56 -32s41.5 -24.333 60.5 -39s35 -31.5 48 -50.5s19.167 -41.167 18.5 -66.5z" />
    <glyph glyph-name="dieresis" unicode="&#xa8;" horiz-adv-x="314" 
d="M123 569c0 -14 -4.66699 -25.667 -14 -35s-20.666 -14 -33.999 -14s-24.5 4.66699 -33.5 14s-13.5 21 -13.5 35c0 13.333 4.66699 24.5 14 33.5s20.666 13.5 33.999 13.5c12.667 0 23.667 -4.5 33 -13.5s14 -20.167 14 -33.5zM266 569c0 -14 -4.5 -25.667 -13.5 -35
s-20.167 -14 -33.5 -14c-14 0 -25.667 4.66699 -35 14s-14 21 -14 35c0 13.333 4.66699 24.5 14 33.5s21 13.5 35 13.5c13.333 0 24.5 -4.5 33.5 -13.5s13.5 -20.167 13.5 -33.5z" />
    <glyph glyph-name="copyright" unicode="&#xa9;" horiz-adv-x="806" 
d="M544 476c-25.333 16.667 -47.501 27.665 -66.501 32.998s-39.5 8.33301 -61.5 9c-29.333 0.666992 -55.166 -4 -77.499 -14s-41.166 -23.833 -56.499 -41.5s-27 -38 -35 -61s-12 -47.167 -12 -72.5s4.16699 -49 12.5 -71s20.166 -41.5 35.499 -58.5
s34.333 -30.333 57 -40s48 -14.5 76 -14.5c23.333 0 45 2.83301 65 8.5s42 16.167 66 31.5l36 -54c-30.667 -21.333 -58.667 -35.666 -84 -42.999s-53 -11 -83 -11c-39.333 0 -74.5 6.5 -105.5 19.5s-57.5 30.833 -79.5 53.5s-38.833 49.334 -50.5 80.001
s-17.5 63.667 -17.5 99s6 68.5 18 99.5s29 58.167 51 81.5s48.5 41.666 79.5 54.999s65.833 20 104.5 20c27.333 0 54.5 -3.66699 81.5 -11s56.167 -21.666 87.5 -42.999zM724.999 329.998c0 45.333 -8.33301 87.666 -25 126.999s-39.5 73.5 -68.5 102.5
s-63.167 51.833 -102.5 68.5s-81.333 25 -126 25c-44 0 -85.5 -8.33301 -124.5 -25s-73 -39.5 -102 -68.5s-52 -63.167 -69 -102.5s-25.5 -81.666 -25.5 -126.999c0 -44 8.5 -85.5 25.5 -124.5s40 -73 69 -102s63 -51.833 102 -68.5s80.5 -25 124.5 -25
c44.667 0 86.667 8.33301 126 25s73.5 39.5 102.5 68.5s51.833 63 68.5 102s25 80.5 25 124.5zM761.999 329.998c0 -49.333 -9.5 -95.666 -28.5 -138.999s-44.667 -81 -77 -113s-70.333 -57.333 -114 -76s-90.167 -28 -139.5 -28s-95.666 9.33301 -138.999 28
s-81.166 44 -113.499 76s-57.833 69.667 -76.5 113s-28 89.666 -28 138.999c0 50 9.33301 96.667 28 140s44.167 81.333 76.5 114s70.166 58.334 113.499 77.001s89.666 28 138.999 28s95.833 -9.33301 139.5 -28s81.667 -44.334 114 -77.001s58 -70.667 77 -114
s28.5 -90 28.5 -140z" />
    <glyph glyph-name="ordfeminine" unicode="&#xaa;" horiz-adv-x="255" 
d="M152 588c-4.66699 -2.66699 -10.499 -5.83301 -17.499 -9.5s-14.167 -6.16699 -21.5 -7.5c-13.333 -4.66699 -24.5 -10 -33.5 -16s-13.5 -16 -13.5 -30c0 -13.333 3.66699 -23.333 11 -30s16.666 -10 27.999 -10c7.33301 0 15 2.83301 23 8.5s16 12.167 24 19.5v75z
M12.001 391.001v34h204v-34h-204zM167.001 451.001c-6 4 -10 8.5 -12 13.5s-3 14.167 -3 27.5c-8 -8.66699 -18.667 -17.667 -32 -27s-30 -14 -50 -14c-11.333 0 -20.5 2.33301 -27.5 7s-12.667 10.167 -17 16.5s-7.33301 13 -9 20s-2.5 12.833 -2.5 17.5c0 10 2 20 6 30
s13 19 27 27c6.66699 4 15 7.66699 25 11s20.333 6.5 31 9.5s20.5 6.16699 29.5 9.5s15.5 7.33301 19.5 12v19c0 8.66699 -3.16699 17.5 -9.5 26.5s-17.833 13.5 -34.5 13.5c-14 0 -27.667 -7.5 -41 -22.5s-25.666 -31.167 -36.999 -48.5v64
c8.66699 7.33301 19 13.5 31 18.5s27.667 7.5 47 7.5c9.33301 0 19.666 -1 30.999 -3s21.833 -5.5 31.5 -10.5s17.667 -11.5 24 -19.5s9.5 -18.333 9.5 -31v-131c0 -6 0.333008 -11.5 1 -16.5s5 -8.16699 13 -9.5z" />
    <glyph glyph-name="guillemotleft" unicode="&#xab;" horiz-adv-x="272" 
d="M21 259v52l106 143v-61l-68 -108l68 -108v-60zM112 259v52l107 143v-61l-67 -108l67 -108v-60z" />
    <glyph glyph-name="registered" unicode="&#xae;" horiz-adv-x="390" 
d="M282 542c0 12 -2.49805 21 -7.49805 27s-10.833 10.333 -17.5 13s-13.167 4 -19.5 4h-13.5h-95v-89h99c6 0 12.167 0.5 18.5 1.5s12.166 3 17.499 6s9.66602 7.5 12.999 13.5s5 14 5 24zM303.002 542c0 -10 -2.16699 -19 -6.5 -27s-10 -14.667 -17 -20
s-14.667 -9.16602 -23 -11.499s-16.166 -2.83301 -23.499 -1.5l63 -82h-23l-61 82h-83v-82h-18v202h113c10 0 19.667 -0.833008 29 -2.5s17.666 -4.66699 24.999 -9s13.333 -10.333 18 -18s7 -17.834 7 -30.501zM373.002 501c0 24 -4.5 46.667 -13.5 68s-21.167 40 -36.5 56
s-33.666 28.667 -54.999 38s-44 14 -68 14s-46.5 -4.66699 -67.5 -14s-39.5 -22 -55.5 -38s-28.5 -34.667 -37.5 -56s-13.5 -44 -13.5 -68c0 -24.667 4.5 -47.667 13.5 -69s21.5 -40 37.5 -56s34.5 -28.667 55.5 -38s43.5 -14 67.5 -14s46.667 4.66699 68 14
s39.666 22 54.999 38s27.5 34.833 36.5 56.5s13.5 44.5 13.5 68.5zM388.002 501c0 -26 -5 -50.5 -15 -73.5s-23.5 -43 -40.5 -60s-36.833 -30.5 -59.5 -40.5s-47 -15 -73 -15s-50.167 5 -72.5 15s-42 23.5 -59 40.5s-30.333 37 -40 60s-14.5 47.5 -14.5 73.5
s4.83301 50.333 14.5 73s23 42.5 40 59.5s36.667 30.333 59 40s46.5 14.5 72.5 14.5s50.333 -4.83301 73 -14.5s42.5 -23 59.5 -40s30.5 -36.833 40.5 -59.5s15 -47 15 -73z" />
    <glyph glyph-name="degree" unicode="&#xb0;" horiz-adv-x="309" 
d="M224 571c0 22.667 -7.83301 41.834 -23.5 57.501s-34.834 23.5 -57.501 23.5c-23.333 0 -43.166 -7.83301 -59.499 -23.5s-24.5 -34.834 -24.5 -57.501c0 -23.333 8.16699 -43.166 24.5 -59.499s36.166 -24.5 59.499 -24.5c22.667 0 41.834 8.16699 57.501 24.5
s23.5 36.166 23.5 59.499zM270 571c0 -17.333 -3.33301 -33.666 -10 -48.999s-15.834 -28.666 -27.501 -39.999s-25.167 -20.333 -40.5 -27s-31.666 -10 -48.999 -10s-33.666 3.33301 -48.999 10s-28.666 15.667 -39.999 27s-20.333 24.666 -27 39.999
s-10 31.666 -10 48.999s3.33301 33.5 10 48.5s15.667 28.167 27 39.5s24.666 20.333 39.999 27s31.666 10 48.999 10s33.666 -3.33301 48.999 -10s28.833 -15.667 40.5 -27s20.834 -24.5 27.501 -39.5s10 -31.167 10 -48.5z" />
    <glyph glyph-name="plusminus" unicode="&#xb1;" horiz-adv-x="429" 
d="M29 96v55h343v-55h-343zM228 358v-168h-54v168h-145v56h145v169h54v-169h144v-56h-144z" />
    <glyph glyph-name="acute" unicode="&#xb4;" 
d="M296 602c0 -10.667 -4.00098 -19.5 -12.001 -26.5s-16 -12.167 -24 -15.5c-21.333 -12 -40.666 -22.333 -57.999 -31l-42.5 -20c-13 -6 -20.167 -8 -21.5 -6c-2 1.33301 0.833008 7.5 8.5 18.5s16.167 22.5 25.5 34.5l39 48c5.33301 8 12.5 15.833 21.5 23.5
s18.833 11.5 29.5 11.5c9.33301 0 17.333 -3.5 24 -10.5s10 -15.833 10 -26.5z" />
    <glyph glyph-name="paragraph" unicode="&#xb6;" horiz-adv-x="670" 
d="M320 639h-15.999c-5.33301 0 -12.333 0.166992 -21 0.5s-18.667 0.5 -30 0.5c-50.667 0 -88.834 -13.167 -114.501 -39.5s-38.5 -62.5 -38.5 -108.5c0 -34 6.33301 -61.333 19 -82s28 -36.5 46 -47.5s36.833 -18.167 56.5 -21.5s36.167 -5 49.5 -5
c22 0 38.333 2.33301 49 7v296zM292.001 -234c8.66699 4.66699 15.501 10.499 20.501 17.499s7.5 16.167 7.5 27.5v500c-19.333 -8 -39.166 -12.833 -59.499 -14.5s-39.5 -1.5 -57.5 0.5s-34.167 5 -48.5 9s-25.5 7.66699 -33.5 11s-18.667 9.33301 -32 18
s-26.5 20.334 -39.5 35.001s-24.333 32.167 -34 52.5s-14.5 44.166 -14.5 71.499c0 19.333 3.66699 40 11 62s20.166 42.167 38.499 60.5s43.666 33.5 75.999 45.5s73.5 18 123.5 18h191c-7.33301 -4 -13.833 -9.66699 -19.5 -17s-8.5 -16.666 -8.5 -27.999v-824
c0 -11.333 2.83301 -20.5 8.5 -27.5s12.167 -12.833 19.5 -17.5h-149zM477.002 -234.001c8 4.66699 14.5 10.5 19.5 17.5s7.5 16.167 7.5 27.5v824c0 11.333 -2.5 20.666 -7.5 27.999s-11.5 13 -19.5 17h148c-7.33301 -4 -13.5 -9.66699 -18.5 -17
s-7.5 -16.666 -7.5 -27.999v-824c0 -11.333 2.5 -20.5 7.5 -27.5s11.167 -12.833 18.5 -17.5h-148z" />
    <glyph glyph-name="periodcentered" unicode="&#xb7;" horiz-adv-x="177" 
d="M126 339c0 -14 -5 -25.5 -15 -34.5s-21.667 -13.5 -35 -13.5c-14 0 -25.667 4.5 -35 13.5s-14 20.5 -14 34.5s4.66699 26 14 36s21 15 35 15c13.333 0 25 -5 35 -15s15 -22 15 -36z" />
    <glyph glyph-name="periodcentered" unicode="&#x2219;" horiz-adv-x="177" 
d="M126 339c0 -14 -5 -25.5 -15 -34.5s-21.667 -13.5 -35 -13.5c-14 0 -25.667 4.5 -35 13.5s-14 20.5 -14 34.5s4.66699 26 14 36s21 15 35 15c13.333 0 25 -5 35 -15s15 -22 15 -36z" />
    <glyph glyph-name="cedilla" unicode="&#xb8;" 
d="M211 -108h-73l78 108h69z" />
    <glyph glyph-name="ordmasculine" unicode="&#xba;" horiz-adv-x="255" 
d="M165 567c0 12 -1.00098 24.166 -3.00098 36.499s-5 23.5 -9 33.5s-9.33301 18 -16 24s-14.667 9 -24 9s-17.333 -3 -24 -9s-12.167 -13.833 -16.5 -23.5s-7.66602 -20.5 -9.99902 -32.5s-3.5 -24 -3.5 -36s1 -24 3 -36s5.16699 -22.833 9.5 -32.5
s9.83301 -17.667 16.5 -24s14.667 -9.83301 24 -10.5c9.33301 0.666992 17.333 4.16699 24 10.5s12.167 14.333 16.5 24s7.5 20.334 9.5 32.001s3 23.167 3 34.5zM11.999 390.999v34h204v-34h-204zM220.999 566.999c0 -13.333 -2.66992 -27.1641 -8.00293 -41.4971
s-12.666 -27.333 -21.999 -39s-20.666 -21.167 -33.999 -28.5s-28.333 -11 -45 -11c-18.667 0 -34.667 3.83301 -48 11.5s-24.333 17.5 -33 29.5s-15.167 25.167 -19.5 39.5s-6.5 28.166 -6.5 41.499c0 14 2.5 28.167 7.5 42.5s12.167 27.166 21.5 38.499
s20.5 20.666 33.5 27.999s28.167 11 45.5 11c19.333 0 35.833 -3.66699 49.5 -11s24.834 -17 33.501 -29s15 -25.167 19 -39.5s6 -28.5 6 -42.5z" />
    <glyph glyph-name="guillemotright" unicode="&#xbb;" horiz-adv-x="272" 
d="M28 117v60l70 108l-70 108v61l108 -143v-52zM120 117v60l68 108l-68 108v61l108 -143v-52z" />
    <glyph glyph-name="questiondown" unicode="&#xbf;" horiz-adv-x="371" 
d="M320 -174c-18.667 -20 -40.502 -34.3379 -65.502 -43.0049s-52.167 -13 -81.5 -13c-15.333 0 -32.166 2 -50.499 6s-35.5 11.167 -51.5 21.5s-29.333 24.5 -40 42.5s-16 41.333 -16 70c0 16.667 4.16699 35.334 12.5 56.001s19.166 42.334 32.499 65.001
s28.333 45.667 45 69l51 69c10 12.667 18.333 24.334 25 35.001s12.334 21.834 17.001 33.501s8.83398 24.667 12.501 39s7.5 31.833 11.5 52.5c2 -21.333 4.33301 -40.666 7 -57.999c1.33301 -15.333 2.83301 -29.5 4.5 -42.5s2.5 -20.833 2.5 -23.5
c0.666992 -12 0.5 -21.833 -0.5 -29.5s-2.66699 -14.5 -5 -20.5s-5.33301 -11.833 -9 -17.5l-13.5 -20.5l-21.5 -34c-11 -17.333 -22.333 -36.833 -34 -58.5s-22.167 -43.5 -31.5 -65.5s-14 -40.333 -14 -55c0 -28.667 8.33301 -51.167 25 -67.5s35.667 -24.5 57 -24.5
c9.33301 0 20 1.5 32 4.5s24 9.5 36 19.5s23.333 24.667 34 44s19.667 45 27 77zM268.998 418.995c0 -14 -5 -25.5 -15 -34.5s-21.667 -13.5 -35 -13.5c-14 0 -25.667 4.5 -35 13.5s-14 20.5 -14 34.5s4.66699 26 14 36s21 15 35 15c13.333 0 25 -5 35 -15s15 -22 15 -36z
" />
    <glyph glyph-name="Agrave" unicode="&#xc0;" horiz-adv-x="558" 
d="M352 245l-39.5 97l-36.5 90l-37 93l-40 -100l-36 -91l-36 -89h225zM409 0c13.333 6 21.834 12.833 25.501 20.5s3.5 17.167 -0.5 28.5c-3.33301 6 -11.166 23.333 -23.499 52l-41.5 101h-259l-23 -54l-19.5 -46.5l-14 -34.5
c-3.66699 -9.33301 -5.83398 -15.333 -6.50098 -18c-4 -11.333 -4.83301 -21 -2.5 -29s10.166 -14.667 23.499 -20h-122c14 9.33301 24 17.5 30 24.5s11.333 15.167 16 24.5l16.5 38.5l33.5 78.5l44 104.5l49 116.5l131 309l131 -309l49 -116.5l44 -104.5l33.5 -78.5
l16.5 -38.5c4 -10.667 9 -19.5 15 -26.5s17.667 -14.5 35 -22.5h-181zM327.001 706c-2 -2 -9.33301 -0.00195312 -22 5.99805l-42 20c-17.333 8.66699 -37 19.334 -59 32.001c-7.33301 4.66699 -15.333 10.334 -24 17.001s-13 15 -13 25s3.5 18.5 10.5 25.5
s15.833 10.5 26.5 10.5s19.834 -3.83301 27.501 -11.5l22.5 -23.5l39 -48c9.33301 -12 17.666 -23.5 24.999 -34.5s10.333 -17.167 9 -18.5z" />
    <glyph glyph-name="Aacute" unicode="&#xc1;" horiz-adv-x="557" 
d="M348 245l-39.5 97l-36.5 90l-37 93l-40 -100l-36 -91l-36 -89h225zM405 0c13.333 6 21.834 12.833 25.501 20.5s3.5 17.167 -0.5 28.5c-3.33301 6 -11.166 23.333 -23.499 52l-41.5 101h-259l-23 -54l-19.5 -46.5l-14 -34.5
c-3.66699 -9.33301 -5.83398 -15.333 -6.50098 -18c-4 -11.333 -4.83301 -21 -2.5 -29s10.166 -14.667 23.499 -20h-122c14 9.33301 24 17.5 30 24.5s11.333 15.167 16 24.5l16.5 38.5l33.5 78.5l44 104.5l49 116.5l131 309l131 -309l49 -116.5l44 -104.5l33.5 -78.5
l16.5 -38.5c4 -10.667 9 -19.5 15 -26.5s17.667 -14.5 35 -22.5h-181zM351.001 806c0 -10 -4.16895 -18.3311 -12.502 -24.998s-16.166 -12.334 -23.499 -17.001c-22 -12.667 -41.667 -23.334 -59 -32.001l-42.5 -20c-13 -6 -20.5 -8 -22.5 -6
c-1.33301 1.33301 2 7.5 10 18.5l26 34.5l39 48c6 8 13.333 15.833 22 23.5s17.667 11.5 27 11.5c10.667 0 19.334 -3.5 26.001 -10.5s10 -15.5 10 -25.5z" />
    <glyph glyph-name="Acircumflex" unicode="&#xc2;" horiz-adv-x="557" 
d="M353 245l-39.5 97l-36.5 90l-37 93l-40 -100l-36 -91l-36 -89h225zM410 0c13.333 6 21.834 12.833 25.501 20.5s3.5 17.167 -0.5 28.5c-3.33301 6 -11.166 23.333 -23.499 52l-41.5 101h-259l-23 -54l-19.5 -46.5l-14 -34.5
c-3.66699 -9.33301 -5.83398 -15.333 -6.50098 -18c-4 -11.333 -4.83301 -21 -2.5 -29s10.166 -14.667 23.499 -20h-122c14 9.33301 24 17.5 30 24.5s11.333 15.167 16 24.5l16.5 38.5l33.5 78.5l44 104.5l49 116.5l131 309l131 -309l49 -116.5l44 -104.5l33.5 -78.5
l16.5 -38.5c4 -10.667 9 -19.5 15 -26.5s17.667 -14.5 35 -22.5h-181zM408.001 706c-2 -2 -10.3359 0.166016 -25.0029 6.49902s-30.667 13.833 -48 22.5l-66 34l-67 -34l-25.5 -12l-22.5 -10.5c-6.66699 -3 -12.167 -5.16699 -16.5 -6.5s-6.83301 -1.33301 -7.5 0
s2 5.5 8 12.5s14 15.5 24 25.5l32.5 32.5c11.667 11.667 22.834 22.334 33.501 32.001s19.834 17.667 27.501 24s12.167 9.5 13.5 9.5s5.83301 -3.16699 13.5 -9.5s16.834 -14.333 27.501 -24l34 -32l32.5 -32.5l24 -25.5c6.33301 -7 8.83301 -11.167 7.5 -12.5z" />
    <glyph glyph-name="Atilde" unicode="&#xc3;" horiz-adv-x="557" 
d="M350 245l-39.5 97l-36.5 90l-37 93l-40 -100l-36 -91l-36 -89h225zM407 0c13.333 6 21.834 12.833 25.501 20.5s3.5 17.167 -0.5 28.5c-3.33301 6 -11.166 23.333 -23.499 52l-41.5 101h-259l-23 -54l-19.5 -46.5l-14 -34.5
c-3.66699 -9.33301 -5.83398 -15.333 -6.50098 -18c-4 -11.333 -4.83301 -21 -2.5 -29s10.166 -14.667 23.499 -20h-122c14 9.33301 24 17.5 30 24.5s11.333 15.167 16 24.5l16.5 38.5l33.5 78.5l44 104.5l49 116.5l131 309l131 -309l49 -116.5l44 -104.5l33.5 -78.5
l16.5 -38.5c4 -10.667 9 -19.5 15 -26.5s17.667 -14.5 35 -22.5h-181zM425.001 783c-10 -12 -20.9961 -22.667 -32.9961 -32c-10 -8 -21.5 -15.167 -34.5 -21.5s-26.167 -9.5 -39.5 -9.5c-12.667 0 -24.834 2 -36.501 6s-22.5 8.5 -32.5 13.5l-27 13.5c-8 4 -14.667 6 -20 6
c-8.66699 0 -16.5 -1.83301 -23.5 -5.5s-13.167 -7.83398 -18.5 -12.501c-6.66699 -5.33301 -12.334 -11 -17.001 -17l-23 12c0.666992 4 4.5 10 11.5 18s15.667 16.167 26 24.5s22.166 15.5 35.499 21.5s26.666 9 39.999 9c8 0 17 -1.66699 27 -5
s20.167 -7.16602 30.5 -11.499s20.5 -8.16602 30.5 -11.499s19 -5 27 -5c9.33301 0 17.5 1.16699 24.5 3.5s12.833 5.16602 17.5 8.49902c5.33301 3.33301 10 7.33301 14 12z" />
    <glyph glyph-name="Adieresis" unicode="&#xc4;" horiz-adv-x="557" 
d="M351 245l-39.5 97l-36.5 90l-37 93l-40 -100l-36 -91l-36 -89h225zM408 0c13.333 6 21.834 12.833 25.501 20.5s3.5 17.167 -0.5 28.5c-3.33301 6 -11.166 23.333 -23.499 52l-41.5 101h-259l-23 -54l-19.5 -46.5l-14 -34.5
c-3.66699 -9.33301 -5.83398 -15.333 -6.50098 -18c-4 -11.333 -4.83301 -21 -2.5 -29s10.166 -14.667 23.499 -20h-122c14 9.33301 24 17.5 30 24.5s11.333 15.167 16 24.5l16.5 38.5l33.5 78.5l44 104.5l49 116.5l131 309l131 -309l49 -116.5l44 -104.5l33.5 -78.5
l16.5 -38.5c4 -10.667 9 -19.5 15 -26.5s17.667 -14.5 35 -22.5h-181zM241.001 769c0 -14 -4.99902 -25.667 -14.999 -35s-21.667 -14 -35 -14s-24.5 4.66699 -33.5 14s-13.5 21 -13.5 35c0 13.333 4.66699 24.833 14 34.5s20.666 14.5 33.999 14.5
s24.833 -4.83301 34.5 -14.5s14.5 -21.167 14.5 -34.5zM386.002 769c0 -14 -4.66699 -25.667 -14 -35s-21 -14 -35 -14c-13.333 0 -24.833 4.66699 -34.5 14s-14.5 21 -14.5 35c0 13.333 4.83301 24.833 14.5 34.5s21.167 14.5 34.5 14.5c14 0 25.667 -4.83301 35 -14.5
s14 -21.167 14 -34.5z" />
    <glyph glyph-name="Aring" unicode="&#xc5;" horiz-adv-x="559" 
d="M353 245l-39.5 97l-36.5 90l-37 93l-40 -100l-36 -91l-36 -89h225zM311 761c0 12 -4.16699 22.167 -12.5 30.5s-19.166 12.5 -32.499 12.5c-12.667 0 -23.167 -4.16699 -31.5 -12.5s-12.5 -18.5 -12.5 -30.5c0 -13.333 4.16699 -24.333 12.5 -33s18.833 -13 31.5 -13
c13.333 0 24.166 4.33301 32.499 13s12.5 19.667 12.5 33zM410 0c13.333 6 21.834 12.833 25.501 20.5s3.5 17.167 -0.5 28.5c-3.33301 6 -11.166 23.333 -23.499 52l-41.5 101h-259l-23 -54l-19.5 -46.5l-14 -34.5c-3.66699 -9.33301 -5.83398 -15.333 -6.50098 -18
c-4 -11.333 -4.83301 -21 -2.5 -29s10.166 -14.667 23.499 -20h-122c14 9.33301 24 17.5 30 24.5s11.333 15.167 16 24.5l16.5 38.5l33.5 78.5l44 104.5l49 116.5l131 309l131 -309l49 -116.5l44 -104.5l33.5 -78.5l16.5 -38.5c4 -10.667 9 -19.5 15 -26.5
s17.667 -14.5 35 -22.5h-181zM335.001 761c0 -18.667 -7 -34.667 -21 -48s-30 -20 -48 -20c-17.333 0 -32.666 6.66699 -45.999 20s-20 29.333 -20 48c0 18 6.66699 33.833 20 47.5s28.666 20.5 45.999 20.5c18 0 34 -6.83301 48 -20.5s21 -29.5 21 -47.5z" />
    <glyph glyph-name="AE" unicode="&#xc6;" horiz-adv-x="760" 
d="M356 562l-201 -296h201v296zM730 0l-402.001 -0.00683594c8.66699 4.66699 15.5 10.334 20.5 17.001s7.5 16 7.5 28v178h-230l-11.5 -17l-17 -24.5l-20.5 -29.5l-21 -31l-54 -78c-6 -8.66699 -8.66699 -16.667 -8 -24s7.66699 -13.666 21 -18.999h-121
c6.66699 4.66699 12.167 8.83398 16.5 12.501s8.16602 7.33398 11.499 11.001s6.33301 7.5 9 11.5l9 14l112 160l119 170l143 204c10.667 15.333 20.5 31.5 29.5 48.5s16.5 33.167 22.5 48.5h338l1 -78c-5.33301 8.66699 -14.166 16.5 -26.499 23.5s-25.5 10.833 -39.5 11.5
c-27.333 0.666992 -52.5 1.16699 -75.5 1.5s-42.833 0.5 -59.5 0.5h-53v-241h164c7.33301 0 14.166 3.16699 20.499 9.5s11.166 12.5 14.499 18.5v-97c-3.33301 6 -8.16602 12.167 -14.499 18.5s-13.166 9.5 -20.499 9.5h-164v-308c10.667 -2 27 -3.66699 49 -5
s44.667 -1.66602 68 -0.999023c26.667 0.666992 49.334 1.33398 68.001 2.00098s35 2.83398 49 6.50098s26 9.66699 36 18s19.333 20.5 28 36.5z" />
    <glyph glyph-name="Ccedilla" unicode="&#xc7;" horiz-adv-x="679" 
d="M644 197c0 0.666992 -0.500977 -6.16895 -1.50098 -20.502s-2.16699 -30.166 -3.5 -47.499l-4 -70c-38 -22.667 -76.667 -39.334 -116 -50.001s-76.666 -16.667 -111.999 -18l-68 -99h-73l73 101c-44.667 4 -87 15.167 -127 33.5s-75 42.5 -105 72.5
s-53.667 65.167 -71 105.5s-26 84.833 -26 133.5c0 42.667 8 84.834 24 126.501s40 79.167 72 112.5s72 60.333 120 81s103.667 31 167 31c42 0 82.167 -5.16699 120.5 -15.5s77.166 -24.166 116.499 -41.499l4 -74c0.666992 -9.33301 1.16699 -18.333 1.5 -27
s0.833008 -16.667 1.5 -24l2 -23c-13.333 35.333 -31 63.666 -53 84.999s-44.5 37.833 -67.5 49.5s-45.167 19.334 -66.5 23.001s-38 5.5 -50 5.5c-48 0 -90 -7.83301 -126 -23.5s-66 -37 -90 -64s-42.167 -58.5 -54.5 -94.5s-18.5 -74 -18.5 -114
c0 -36.667 5.16699 -73.667 15.5 -111s26.833 -71.166 49.5 -101.499s52.334 -55.166 89.001 -74.499s81 -29 133 -29c11.333 0 27.833 1.66699 49.5 5s44.667 10.666 69 21.999s48 27.666 71 48.999s41.167 50 54.5 86z" />
    <glyph glyph-name="Egrave" unicode="&#xc8;" horiz-adv-x="460" 
d="M433 0l-402.001 -0.000976562c8.66699 4.66699 15.5 10.334 20.5 17.001s7.5 16 7.5 28v590c0 11.333 -2.66699 20.666 -8 27.999s-12 13 -20 17h376l2 -78c-10 11.333 -21.167 20 -33.5 26s-29.166 9 -50.499 9h-35.5c-18.333 0 -37.5 0.333008 -57.5 1
c-23.333 0 -49.333 0.333008 -78 1v-241h164c7.33301 0 14.333 3.16699 21 9.5s11.334 12.5 14.001 18.5v-97c-2.66699 6 -7.33398 12.167 -14.001 18.5s-13.667 9.5 -21 9.5h-164v-308c10.667 -1.33301 27 -2.66602 49 -3.99902s44.667 -2 68 -2
c26.667 0 49.5 0.333008 68.5 1s35.167 3 48.5 7s25 10.167 35 18.5s19.667 20.5 29 36.5zM298.999 705.999c-2 -2 -9.50293 -0.00195312 -22.5029 5.99805l-42.5 20c-17.333 8.66699 -37 19.334 -59 32.001c-7.33301 4.66699 -15.166 10.334 -23.499 17.001
s-12.5 15 -12.5 25s3.33301 18.5 10 25.5s15.334 10.5 26.001 10.5c9.33301 0 18.333 -3.83301 27 -11.5s16.667 -15.5 24 -23.5l38 -48c9.33301 -12 17.833 -23.5 25.5 -34.5s10.834 -17.167 9.50098 -18.5z" />
    <glyph glyph-name="Eacute" unicode="&#xc9;" horiz-adv-x="460" 
d="M433 0l-402.001 -0.000976562c8.66699 4.66699 15.5 10.334 20.5 17.001s7.5 16 7.5 28v590c0 11.333 -2.66699 20.666 -8 27.999s-12 13 -20 17h376l2 -78c-10 11.333 -21.167 20 -33.5 26s-29.166 9 -50.499 9h-35.5c-18.333 0 -37.5 0.333008 -57.5 1
c-23.333 0 -49.333 0.333008 -78 1v-241h164c7.33301 0 14.333 3.16699 21 9.5s11.334 12.5 14.001 18.5v-97c-2.66699 6 -7.33398 12.167 -14.001 18.5s-13.667 9.5 -21 9.5h-164v-308c10.667 -1.33301 27 -2.66602 49 -3.99902s44.667 -2 68 -2
c26.667 0 49.5 0.333008 68.5 1s35.167 3 48.5 7s25 10.167 35 18.5s19.667 20.5 29 36.5zM333.999 805.999c0 -10 -4.00195 -18.499 -12.002 -25.499s-16.333 -12.5 -25 -16.5c-22 -12.667 -41.667 -23.334 -59 -32.001l-42 -20c-12.667 -6 -20 -8 -22 -6
c-1.33301 1.33301 1.83398 7.5 9.50098 18.5s16.167 22.5 25.5 34.5l39 48c6 8.66699 13.333 16.667 22 24s18.334 11 29.001 11s19.167 -3.5 25.5 -10.5s9.5 -15.5 9.5 -25.5z" />
    <glyph glyph-name="Ecircumflex" unicode="&#xca;" horiz-adv-x="460" 
d="M433 0l-402.001 -0.000976562c8.66699 4.66699 15.5 10.334 20.5 17.001s7.5 16 7.5 28v590c0 11.333 -2.66699 20.666 -8 27.999s-12 13 -20 17h376l2 -78c-10 11.333 -21.167 20 -33.5 26s-29.166 9 -50.499 9h-35.5c-18.333 0 -37.5 0.333008 -57.5 1
c-23.333 0 -49.333 0.333008 -78 1v-241h164c7.33301 0 14.333 3.16699 21 9.5s11.334 12.5 14.001 18.5v-97c-2.66699 6 -7.33398 12.167 -14.001 18.5s-13.667 9.5 -21 9.5h-164v-308c10.667 -1.33301 27 -2.66602 49 -3.99902s44.667 -2 68 -2
c26.667 0 49.5 0.333008 68.5 1s35.167 3 48.5 7s25 10.167 35 18.5s19.667 20.5 29 36.5zM362.999 705.999c-2 -2 -10.1699 0.167969 -24.5029 6.50098s-29.833 13.833 -46.5 22.5l-66 34l-67 -34l-25.5 -12l-22.5 -10.5c-6.66699 -3 -12.167 -5.16699 -16.5 -6.5
s-6.83301 -1.33301 -7.5 0c-1.33301 1.33301 1.16699 5.5 7.5 12.5l24 25.5l32.5 32.5l34 32c10.667 9.66699 19.834 17.667 27.501 24s12.167 9.5 13.5 9.5s5.83301 -3.16699 13.5 -9.5s16.834 -14.333 27.501 -24s21.834 -20.334 33.501 -32.001l32 -32.5
c9.66699 -10 17.5 -18.5 23.5 -25.5s8.33301 -11.167 7 -12.5z" />
    <glyph glyph-name="Edieresis" unicode="&#xcb;" horiz-adv-x="460" 
d="M433 0l-402.001 -0.000976562c8.66699 4.66699 15.5 10.334 20.5 17.001s7.5 16 7.5 28v590c0 11.333 -2.66699 20.666 -8 27.999s-12 13 -20 17h376l2 -78c-10 11.333 -21.167 20 -33.5 26s-29.166 9 -50.499 9h-35.5c-18.333 0 -37.5 0.333008 -57.5 1
c-23.333 0 -49.333 0.333008 -78 1v-241h164c7.33301 0 14.333 3.16699 21 9.5s11.334 12.5 14.001 18.5v-97c-2.66699 6 -7.33398 12.167 -14.001 18.5s-13.667 9.5 -21 9.5h-164v-308c10.667 -1.33301 27 -2.66602 49 -3.99902s44.667 -2 68 -2
c26.667 0 49.5 0.333008 68.5 1s35.167 3 48.5 7s25 10.167 35 18.5s19.667 20.5 29 36.5zM206.999 768.999c0 -14 -4.83301 -25.667 -14.5 -35s-21.167 -14 -34.5 -14c-14 0 -25.667 4.66699 -35 14s-14 21 -14 35c0 13.333 4.66699 24.833 14 34.5s21 14.5 35 14.5
c13.333 0 24.833 -4.83301 34.5 -14.5s14.5 -21.167 14.5 -34.5zM350.999 768.999c0 -14 -4.66699 -25.667 -14 -35s-21 -14 -35 -14c-13.333 0 -24.5 4.66699 -33.5 14s-13.5 21 -13.5 35c0 13.333 4.5 24.833 13.5 34.5s20.167 14.5 33.5 14.5
c14 0 25.667 -4.83301 35 -14.5s14 -21.167 14 -34.5z" />
    <glyph glyph-name="Igrave" unicode="&#xcc;" horiz-adv-x="243" 
d="M33 0c8 4.66699 14.5 10.5 19.5 17.5s7.5 16.167 7.5 27.5v590c0 11.333 -2.5 20.666 -7.5 27.999s-11.5 13 -19.5 17h148c-7.33301 -4 -13.5 -9.66699 -18.5 -17s-7.5 -16.666 -7.5 -27.999v-590c0 -11.333 2.5 -20.5 7.5 -27.5s11.167 -12.833 18.5 -17.5h-148z
M188 706c-2 -2 -9.33496 -0.00195312 -22.002 5.99805l-41 20c-17.333 8.66699 -36.666 19.334 -57.999 32.001c-9.33301 4.66699 -18.166 10.334 -26.499 17.001s-12.5 15 -12.5 25s3.5 18.5 10.5 25.5s15.833 10.5 26.5 10.5s19.834 -3.83301 27.501 -11.5l22.5 -23.5
l39 -48c9.33301 -12 17.666 -23.5 24.999 -34.5s10.333 -17.167 9 -18.5z" />
    <glyph glyph-name="Iacute" unicode="&#xcd;" horiz-adv-x="241" 
d="M33 0c8 4.66699 14.5 10.501 19.5 17.501s7.5 16.167 7.5 27.5v590c0 11.333 -2.5 20.666 -7.5 27.999s-11.5 13 -19.5 17h148c-17.333 -8 -26 -23 -26 -45v-590c0 -20.667 8.66699 -35.667 26 -45h-148zM194 806.001c0 -10 -4.00098 -18.499 -12.001 -25.499
s-16.333 -12.5 -25 -16.5c-22 -12.667 -41.667 -23.334 -59 -32.001l-42.5 -20c-13 -6 -20.5 -8 -22.5 -6c-1.33301 1.33301 2 7.5 10 18.5l26 34.5l39 48c6 8 13.333 15.833 22 23.5s18.334 11.5 29.001 11.5c9.33301 0 17.5 -3.5 24.5 -10.5s10.5 -15.5 10.5 -25.5z" />
    <glyph glyph-name="Icircumflex" unicode="&#xce;" horiz-adv-x="241" 
d="M34 0c18 9.33301 27 24.333 27 45v590c0 21.333 -9 36.333 -27 45h149c-17.333 -8 -26 -23 -26 -45v-590c0 -20.667 8.66699 -35.667 26 -45h-149zM248 706c-2 -2 -10.1689 0.167969 -24.502 6.50098s-30.166 13.833 -47.499 22.5l-66 34l-67 -34l-25.5 -12l-22.5 -10.5
c-6.66699 -3 -12.167 -5.16699 -16.5 -6.5s-6.83301 -1.33301 -7.5 0s2 5.5 8 12.5s14 15.5 24 25.5l33 32.5l34 32l27 24c7.33301 6.33301 11.666 9.5 12.999 9.5s5.83301 -3.16699 13.5 -9.5s16.834 -14.333 27.501 -24s21.834 -20.334 33.501 -32.001l32 -32.5
c9.66699 -10 17.5 -18.5 23.5 -25.5s8.66699 -11.167 8 -12.5z" />
    <glyph glyph-name="Idieresis" unicode="&#xcf;" horiz-adv-x="238" 
d="M31 0c7.33301 4.66699 13.5 10.5 18.5 17.5s7.5 16.167 7.5 27.5v590c0 11.333 -2.5 20.666 -7.5 27.999s-11.167 13 -18.5 17h148c-8 -4 -14.5 -9.66699 -19.5 -17s-7.5 -16.666 -7.5 -27.999v-590c0 -11.333 2.5 -20.5 7.5 -27.5s11.5 -12.833 19.5 -17.5h-148zM85 769
c0 -14 -5 -25.667 -15 -35s-22 -14 -36 -14c-13.333 0 -24.5 4.66699 -33.5 14s-13.5 21 -13.5 35c0 13.333 4.5 24.833 13.5 34.5s20.167 14.5 33.5 14.5c14 0 26 -4.83301 36 -14.5s15 -21.167 15 -34.5zM229 769c0 -14 -4.66699 -25.667 -14 -35s-21 -14 -35 -14
c-13.333 0 -24.666 4.66699 -33.999 14s-14 21 -14 35c0 13.333 4.66699 24.833 14 34.5s20.666 14.5 33.999 14.5c14 0 25.667 -4.83301 35 -14.5s14 -21.167 14 -34.5z" />
    <glyph glyph-name="Ntilde" unicode="&#xd1;" horiz-adv-x="659" 
d="M608 680c-8 -4 -14.5 -9.66504 -19.5 -16.998s-7.5 -16.666 -7.5 -27.999v-654l-238 290l-87.5 107.5l-76 94.5l-54 68c-13.667 17.333 -20.5 26.666 -20.5 27.999v-524c0 -20.667 9.33301 -35.667 28 -45h-101c7.33301 4.66699 13.5 10.5 18.5 17.5s7.5 16.167 7.5 27.5
v552v17.5c0 4.33301 -0.5 8 -1.5 11s-2.33301 5.83301 -4 8.5l-6.5 10c-5.33301 6 -11.5 12.167 -18.5 18.5s-16.167 12.166 -27.5 17.499h138l395 -487v442c0 11.333 -2.5 20.666 -7.5 27.999s-11.167 13 -18.5 17h101zM481 783.002c-10 -12 -20.9961 -22.667 -32.9961 -32
c-10 -8 -21.333 -15.167 -34 -21.5s-26 -9.5 -40 -9.5c-12.667 0 -24.834 2 -36.501 6s-22.5 8.5 -32.5 13.5l-27 13.5c-8 4 -14.667 6 -20 6c-8.66699 0 -16.5 -1.83301 -23.5 -5.5s-13.167 -7.83398 -18.5 -12.501c-6.66699 -5.33301 -12.334 -11 -17.001 -17l-23 12
c0.666992 4 4.5 10 11.5 18s15.667 16.167 26 24.5s22.166 15.5 35.499 21.5s26.666 9 39.999 9c8 0 17 -1.66699 27 -5s20.167 -7.16602 30.5 -11.499s20.5 -8.16602 30.5 -11.499s19 -5 27 -5c9.33301 0 17.5 1.16699 24.5 3.5s12.833 5.16602 17.5 8.49902
c5.33301 3.33301 10 7.33301 14 12z" />
    <glyph glyph-name="Ograve" unicode="&#xd2;" horiz-adv-x="774" 
d="M629 331c0 48 -6.16895 91.498 -18.502 130.498s-29.833 72.333 -52.5 100s-49.834 48.834 -81.501 63.501s-66.167 22 -103.5 22s-71.666 -6.66699 -102.999 -20s-58.666 -32.5 -81.999 -57.5s-41.5 -55.5 -54.5 -91.5s-19.5 -77 -19.5 -123
c0 -54.667 7.83301 -102 23.5 -142s36 -73 61 -99s53 -45.333 84 -58s61.833 -19 92.5 -19c36.667 0 70.5 6.83301 101.5 20.5s57.833 33.334 80.5 59.001s40.334 56.5 53.001 92.5s19 76.667 19 122zM738.998 333.998c-1.33301 -57.333 -13.667 -107.497 -37 -150.497
s-53 -79 -89 -108s-75.667 -50.667 -119 -65s-86 -20.833 -128 -19.5c-48.667 1.33301 -95 11.166 -139 29.499s-82.667 43.333 -116 75s-59.5 69.167 -78.5 112.5s-27.833 90.666 -26.5 141.999c0.666992 40.667 9.83398 81.5 27.501 122.5s42.667 77.667 75 110
s71.833 58.5 118.5 78.5s99.667 29.333 159 28c41.333 -1.33301 83.166 -9.83301 125.499 -25.5s80.5 -38.334 114.5 -68.001s61.667 -66.5 83 -110.5s31.333 -94.333 30 -151zM435.997 706.001c-2 -2 -9.50098 -0.00195312 -22.501 5.99805l-42.5 20
c-17.333 8.66699 -37 19.334 -59 32.001c-7.33301 4.66699 -15.166 10.334 -23.499 17.001s-12.5 15 -12.5 25s3.5 18.5 10.5 25.5s15.5 10.5 25.5 10.5s19.167 -3.83301 27.5 -11.5s15.5 -15.5 21.5 -23.5l39 -48l26 -34.5c8 -11 11.333 -17.167 10 -18.5z" />
    <glyph glyph-name="Oacute" unicode="&#xd3;" horiz-adv-x="774" 
d="M629 331c0 48 -6.16895 91.498 -18.502 130.498s-29.833 72.333 -52.5 100s-49.834 48.834 -81.501 63.501s-66.167 22 -103.5 22s-71.666 -6.66699 -102.999 -20s-58.666 -32.5 -81.999 -57.5s-41.5 -55.5 -54.5 -91.5s-19.5 -77 -19.5 -123
c0 -54.667 7.83301 -102 23.5 -142s36 -73 61 -99s53 -45.333 84 -58s61.833 -19 92.5 -19c36.667 0 70.5 6.83301 101.5 20.5s57.833 33.334 80.5 59.001s40.334 56.5 53.001 92.5s19 76.667 19 122zM738.998 333.998c-1.33301 -57.333 -13.667 -107.497 -37 -150.497
s-53 -79 -89 -108s-75.667 -50.667 -119 -65s-86 -20.833 -128 -19.5c-48.667 1.33301 -95 11.166 -139 29.499s-82.667 43.333 -116 75s-59.5 69.167 -78.5 112.5s-27.833 90.666 -26.5 141.999c0.666992 40.667 9.83398 81.5 27.501 122.5s42.667 77.667 75 110
s71.833 58.5 118.5 78.5s99.667 29.333 159 28c41.333 -1.33301 83.166 -9.83301 125.499 -25.5s80.5 -38.334 114.5 -68.001s61.667 -66.5 83 -110.5s31.333 -94.333 30 -151zM472.997 806.001c0 -10 -4.16992 -18.3311 -12.5029 -24.998s-17.166 -12.334 -26.499 -17.001
c-21.333 -12.667 -40.666 -23.334 -57.999 -32.001l-42.5 -20c-13 -6 -20.167 -8 -21.5 -6c-1.33301 1.33301 1.83398 7.5 9.50098 18.5s16.167 22.5 25.5 34.5l39 48c6 8.66699 13.167 16.667 21.5 24s17.833 11 28.5 11s19.5 -3.5 26.5 -10.5s10.5 -15.5 10.5 -25.5z" />
    <glyph glyph-name="Ocircumflex" unicode="&#xd4;" horiz-adv-x="774" 
d="M629 331c0 48 -6.16895 91.498 -18.502 130.498s-29.833 72.333 -52.5 100s-49.834 48.834 -81.501 63.501s-66.167 22 -103.5 22s-71.666 -6.66699 -102.999 -20s-58.666 -32.5 -81.999 -57.5s-41.5 -55.5 -54.5 -91.5s-19.5 -77 -19.5 -123
c0 -54.667 7.83301 -102 23.5 -142s36 -73 61 -99s53 -45.333 84 -58s61.833 -19 92.5 -19c36.667 0 70.5 6.83301 101.5 20.5s57.833 33.334 80.5 59.001s40.334 56.5 53.001 92.5s19 76.667 19 122zM738.998 333.998c-1.33301 -57.333 -13.667 -107.497 -37 -150.497
s-53 -79 -89 -108s-75.667 -50.667 -119 -65s-86 -20.833 -128 -19.5c-48.667 1.33301 -95 11.166 -139 29.499s-82.667 43.333 -116 75s-59.5 69.167 -78.5 112.5s-27.833 90.666 -26.5 141.999c0.666992 40.667 9.83398 81.5 27.501 122.5s42.667 77.667 75 110
s71.833 58.5 118.5 78.5s99.667 29.333 159 28c41.333 -1.33301 83.166 -9.83301 125.499 -25.5s80.5 -38.334 114.5 -68.001s61.667 -66.5 83 -110.5s31.333 -94.333 30 -151zM513.997 706.001c-2 -2 -10.333 0.166992 -25 6.5s-30.667 13.833 -48 22.5l-66 34l-66 -34
c-17.333 -8.66699 -33.333 -16.167 -48 -22.5s-23 -8.5 -25 -6.5c-0.666992 1.33301 2 5.5 8 12.5s14 15.5 24 25.5l33 32.5l34 32l27 24c7.33301 6.33301 11.666 9.5 12.999 9.5s5.83301 -3.16699 13.5 -9.5s16.834 -14.333 27.501 -24l34 -32l32.5 -32.5
c9.66699 -10 17.5 -18.5 23.5 -25.5s8.66699 -11.167 8 -12.5z" />
    <glyph glyph-name="Otilde" unicode="&#xd5;" horiz-adv-x="774" 
d="M629 331c0 48 -6.16895 91.498 -18.502 130.498s-29.833 72.333 -52.5 100s-49.834 48.834 -81.501 63.501s-66.167 22 -103.5 22s-71.666 -6.66699 -102.999 -20s-58.666 -32.5 -81.999 -57.5s-41.5 -55.5 -54.5 -91.5s-19.5 -77 -19.5 -123
c0 -54.667 7.83301 -102 23.5 -142s36 -73 61 -99s53 -45.333 84 -58s61.833 -19 92.5 -19c36.667 0 70.5 6.83301 101.5 20.5s57.833 33.334 80.5 59.001s40.334 56.5 53.001 92.5s19 76.667 19 122zM738.998 333.998c-1.33301 -57.333 -13.667 -107.497 -37 -150.497
s-53 -79 -89 -108s-75.667 -50.667 -119 -65s-86 -20.833 -128 -19.5c-48.667 1.33301 -95 11.166 -139 29.499s-82.667 43.333 -116 75s-59.5 69.167 -78.5 112.5s-27.833 90.666 -26.5 141.999c0.666992 40.667 9.83398 81.5 27.501 122.5s42.667 77.667 75 110
s71.833 58.5 118.5 78.5s99.667 29.333 159 28c41.333 -1.33301 83.166 -9.83301 125.499 -25.5s80.5 -38.334 114.5 -68.001s61.667 -66.5 83 -110.5s31.333 -94.333 30 -151zM529.997 783.001c-10 -12 -21.001 -22.667 -33.001 -32c-10 -8 -21.5 -15.167 -34.5 -21.5
s-26.5 -9.5 -40.5 -9.5c-12.667 0 -24.834 2 -36.501 6s-22.5 8.5 -32.5 13.5l-27 13.5c-8 4 -14.667 6 -20 6c-8 0 -15.667 -1.83301 -23 -5.5s-13.666 -7.83398 -18.999 -12.501c-6.66699 -5.33301 -12.667 -11 -18 -17l-21 12c0.666992 4 4.5 10 11.5 18
s15.833 16.167 26.5 24.5s22.667 15.5 36 21.5s26.666 9 39.999 9c8 0 16.833 -1.66699 26.5 -5s19.834 -7.16602 30.501 -11.499s20.834 -8.16602 30.501 -11.499s18.5 -5 26.5 -5c9.33301 0 17.333 1.16699 24 3.5s12.334 5.16602 17.001 8.49902
c5.33301 3.33301 9.66602 7.33301 12.999 12z" />
    <glyph glyph-name="Odieresis" unicode="&#xd6;" horiz-adv-x="774" 
d="M630 331c0 48 -6.16895 91.498 -18.502 130.498s-29.833 72.333 -52.5 100s-49.834 48.834 -81.501 63.501s-66.167 22 -103.5 22s-71.666 -6.66699 -102.999 -20s-58.666 -32.5 -81.999 -57.5s-41.5 -55.5 -54.5 -91.5s-19.5 -77 -19.5 -123
c0 -54.667 7.83301 -102 23.5 -142s36 -73 61 -99s53 -45.333 84 -58s61.833 -19 92.5 -19c36.667 0 70.5 6.83301 101.5 20.5s57.833 33.334 80.5 59.001s40.334 56.5 53.001 92.5s19 76.667 19 122zM739.998 333.998c-1.33301 -57.333 -13.667 -107.497 -37 -150.497
s-53 -79 -89 -108s-75.667 -50.667 -119 -65s-86 -20.833 -128 -19.5c-48.667 1.33301 -95 11.166 -139 29.499s-82.667 43.333 -116 75s-59.5 69.167 -78.5 112.5s-27.833 90.666 -26.5 141.999c0.666992 40.667 9.83398 81.5 27.501 122.5s42.667 77.667 75 110
s71.833 58.5 118.5 78.5s99.667 29.333 159 28c41.333 -1.33301 83.166 -9.83301 125.499 -25.5s80.5 -38.334 114.5 -68.001s61.667 -66.5 83 -110.5s31.333 -94.333 30 -151zM354.997 769.001c0 -14 -4.99902 -25.667 -14.999 -35s-21.667 -14 -35 -14
s-24.5 4.66699 -33.5 14s-13.5 21 -13.5 35c0 13.333 4.66699 24.833 14 34.5s20.666 14.5 33.999 14.5s24.833 -4.83301 34.5 -14.5s14.5 -21.167 14.5 -34.5zM499.998 769.001c0 -14 -4.66699 -25.667 -14 -35s-21 -14 -35 -14c-13.333 0 -24.833 4.66699 -34.5 14
s-14.5 21 -14.5 35c0 13.333 4.83301 24.833 14.5 34.5s21.167 14.5 34.5 14.5c14 0 25.667 -4.83301 35 -14.5s14 -21.167 14 -34.5z" />
    <glyph glyph-name="Oslash" unicode="&#xd8;" horiz-adv-x="774" 
d="M631 331c0 42.667 -5.5 81.499 -16.5 116.499s-26.5 65.5 -46.5 91.5l-88 -103.5l-97 -114l-96 -113l-84 -100.5c25.333 -23.333 52.833 -41 82.5 -53s59.5 -18 89.5 -18c36.667 0 70.667 6.83301 102 20.5s58.5 33.334 81.5 59.001s40.833 56.5 53.5 92.5
s19 76.667 19 122zM537 580.999c-44 44 -98.001 66.002 -162.001 66.002c-37.333 0 -71.833 -6.66699 -103.5 -20s-59.167 -32.5 -82.5 -57.5s-41.666 -55.5 -54.999 -91.5s-20 -77 -20 -123c0 -42.667 5.33301 -80.834 16 -114.501s24.667 -62.834 42 -87.501l91.5 106.5
l98.5 115l94.5 111zM740.999 334.001c-1.33301 -57.333 -13.8311 -107.499 -37.498 -150.499s-53.5 -78.833 -89.5 -107.5s-75.833 -50.167 -119.5 -64.5s-86.5 -21.166 -128.5 -20.499c-37.333 1.33301 -73.666 7.5 -108.999 18.5s-68 26.833 -98 47.5
c-13.333 -16.667 -24.666 -30.334 -33.999 -41.001s-14.666 -17.667 -15.999 -21h-73l30 34l52 60c-35.333 32 -62.833 70.167 -82.5 114.5s-28.834 93.166 -27.501 146.499c0.666992 40.667 9.66699 81.5 27 122.5s42.166 77.667 74.499 110s71.666 58.5 117.999 78.5
s99.166 29.333 158.499 28c32 -0.666992 64.667 -5.83398 98 -15.501s65 -23.5 95 -41.5c11.333 14.667 21 26.5 29 35.5s12.667 15.167 14 18.5h72l-26 -29.5l-48 -54.5c37.333 -30.667 67.166 -68.167 89.499 -112.5s32.833 -96.166 31.5 -155.499z" />
    <glyph glyph-name="Ugrave" unicode="&#xd9;" horiz-adv-x="601" 
d="M568 680c-17.333 -8 -25.9971 -22.999 -25.9971 -44.999l-5 -419c-0.666992 -41.333 -7.16699 -76.166 -19.5 -104.499s-29 -51.5 -50 -69.5s-45.333 -31 -73 -39s-57.5 -12 -89.5 -12c-27.333 0 -55.5 3.66699 -84.5 11s-55.667 19.666 -80 36.999
s-44.333 40.333 -60 69s-23.5 64 -23.5 106v421c0 11.333 -3.33301 20.666 -10 27.999s-14 13 -22 17h160c-8.66699 -4 -16.334 -9.66699 -23.001 -17s-10 -16.666 -10 -27.999v-423c0 -17.333 2 -36.166 6 -56.499s12 -39.333 24 -57s28.833 -32.334 50.5 -44.001
s50.167 -17.5 85.5 -17.5c33.333 0 61.166 4.83301 83.499 14.5s40.166 22.667 53.499 39s22.833 35 28.5 56s8.5 42.833 8.5 65.5l-2 423c0 11.333 -2.5 20.666 -7.5 27.999s-11.167 13 -18.5 17h104zM364.003 706.001c-1.33301 -2 -8.49902 -0.000976562 -21.499 5.99902
l-41.5 20c-17.333 8.66699 -36.666 19.334 -57.999 32.001c-8.66699 4 -17.334 9.5 -26.001 16.5s-13 15.5 -13 25.5s3.83301 18.5 11.5 25.5s16.167 10.5 25.5 10.5c10.667 0 20.167 -3.83301 28.5 -11.5s15.5 -15.5 21.5 -23.5l39 -48
c9.33301 -12 17.666 -23.5 24.999 -34.5s10.333 -17.167 9 -18.5z" />
    <glyph glyph-name="Uacute" unicode="&#xda;" horiz-adv-x="601" 
d="M565 680c-17.333 -8 -25.998 -22.999 -25.998 -44.999l-5 -419c-0.666992 -41.333 -7.16699 -76.166 -19.5 -104.499s-29 -51.5 -50 -69.5s-45.333 -31 -73 -39s-57.5 -12 -89.5 -12c-27.333 0 -55.5 3.66699 -84.5 11s-55.667 19.666 -80 36.999s-44.333 40.333 -60 69
s-23.5 64 -23.5 106v421c0 11.333 -3.33301 20.666 -10 27.999s-14 13 -22 17h159c-8 -4 -15.333 -9.66699 -22 -17s-10 -16.666 -10 -27.999v-423c0 -17.333 2 -36.166 6 -56.499s12 -39.333 24 -57s28.833 -32.334 50.5 -44.001s50.167 -17.5 85.5 -17.5
c33.333 0 61.166 4.83301 83.499 14.5s40.166 22.667 53.499 39s22.833 35 28.5 56s8.5 42.833 8.5 65.5l-2 423c0 11.333 -2.5 20.666 -7.5 27.999s-11.167 13 -18.5 17h104zM407.002 806.001c0 -10 -4.00195 -18.499 -12.002 -25.499s-16.333 -12.5 -25 -16.5
c-22 -12.667 -41.667 -23.334 -59 -32.001l-42 -20c-12.667 -6 -20 -8 -22 -6c-1.33301 1.33301 1.83398 7.5 9.50098 18.5s16.167 22.5 25.5 34.5l39 48c6 8.66699 13.333 16.667 22 24s18.334 11 29.001 11c9.33301 0 17.5 -3.5 24.5 -10.5s10.5 -15.5 10.5 -25.5z" />
    <glyph glyph-name="Ucircumflex" unicode="&#xdb;" horiz-adv-x="606" 
d="M565 680c-17.333 -8.66699 -25.9961 -23.666 -25.9961 -44.999l-5 -419c-0.666992 -41.333 -7.16699 -76.166 -19.5 -104.499s-28.833 -51.5 -49.5 -69.5s-44.834 -31 -72.501 -39s-57.167 -12 -88.5 -12c-27.333 0 -55.833 3.66699 -85.5 11s-56.667 19.666 -81 36.999
s-44.333 40.333 -60 69s-23.5 64 -23.5 106v421c0 11.333 -3.33301 20.666 -10 27.999s-14 13 -22 17h160c-8.66699 -4 -16.334 -9.66699 -23.001 -17s-10 -16.666 -10 -27.999v-423c0 -17.333 2 -36.166 6 -56.499s12 -39.333 24 -57s28.833 -32.334 50.5 -44.001
s50.167 -17.5 85.5 -17.5c33.333 0 61.166 4.83301 83.499 14.5s40.166 22.667 53.499 39s22.833 35 28.5 56s8.5 42.833 8.5 65.5l-2 423c0 11.333 -2.5 20.666 -7.5 27.999s-11.167 13 -18.5 17h104zM450.004 706.001c-2 -2 -10.1689 0.167969 -24.502 6.50098
s-30.166 13.833 -47.499 22.5l-67 34l-66 -34c-17.333 -8.66699 -33.333 -16.167 -48 -22.5s-23 -8.5 -25 -6.5c-0.666992 1.33301 2 5.5 8 12.5s14 15.5 24 25.5l33 32.5l34 32l27 24c7.33301 6.33301 11.666 9.5 12.999 9.5s5.83301 -3.16699 13.5 -9.5
s16.834 -14.333 27.501 -24s21.834 -20.334 33.501 -32.001l32.5 -32.5c10 -10 18 -18.5 24 -25.5s8.66699 -11.167 8 -12.5z" />
    <glyph glyph-name="Udieresis" unicode="&#xdc;" horiz-adv-x="601" 
d="M565 680c-17.333 -8 -25.998 -22.999 -25.998 -44.999l-5 -419c-0.666992 -41.333 -7.16699 -76.166 -19.5 -104.499s-29 -51.5 -50 -69.5s-45.333 -31 -73 -39s-57.5 -12 -89.5 -12c-27.333 0 -55.5 3.66699 -84.5 11s-55.667 19.666 -80 36.999s-44.333 40.333 -60 69
s-23.5 64 -23.5 106v421c0 11.333 -3.33301 20.666 -10 27.999s-14 13 -22 17h159c-8 -4 -15.333 -9.66699 -22 -17s-10 -16.666 -10 -27.999v-423c0 -17.333 2 -36.166 6 -56.499s12 -39.333 24 -57s28.833 -32.334 50.5 -44.001s50.167 -17.5 85.5 -17.5
c33.333 0 61.166 4.83301 83.499 14.5s40.166 22.667 53.499 39s22.833 35 28.5 56s8.5 42.833 8.5 65.5l-2 423c0 11.333 -2.5 20.666 -7.5 27.999s-11.167 13 -18.5 17h104zM297.002 769.001c0 -14 -4.99902 -25.667 -14.999 -35s-21.667 -14 -35 -14
s-24.5 4.66699 -33.5 14s-13.5 21 -13.5 35c0 13.333 4.66699 24.833 14 34.5s20.666 14.5 33.999 14.5s24.833 -4.83301 34.5 -14.5s14.5 -21.167 14.5 -34.5zM442.003 769.001c0 -14 -4.66699 -25.667 -14 -35s-21 -14 -35 -14c-13.333 0 -24.833 4.66699 -34.5 14
s-14.5 21 -14.5 35c0 13.333 4.83301 24.833 14.5 34.5s21.167 14.5 34.5 14.5c14 0 25.667 -4.83301 35 -14.5s14 -21.167 14 -34.5z" />
    <glyph glyph-name="germandbls" unicode="&#xdf;" horiz-adv-x="518" 
d="M483 190c0 -23.333 -4.83398 -47.3301 -14.501 -71.9971s-25.334 -46.834 -47.001 -66.501s-49.334 -35.167 -83.001 -46.5s-74.5 -15.333 -122.5 -12c-9.33301 -0.666992 -17.666 -0.666992 -24.999 0c-6.66699 0 -13.167 0.333008 -19.5 1s-10.5 1.66699 -12.5 3v40
c17.333 -2 39 -1.66699 65 1s51.333 9.66699 76 21s45.667 28 63 50s26 51.667 26 89c0 30.667 -6.33301 56.167 -19 76.5s-29 36.333 -49 48s-42.667 19.667 -68 24s-51 5.83301 -77 4.5v46c46 2.66699 82.833 16.167 110.5 40.5s41.5 56.5 41.5 96.5
c0 14.667 -2.5 29 -7.5 43s-12 26.5 -21 37.5s-19.667 19.833 -32 26.5s-25.833 10 -40.5 10c-21.333 0 -38.333 -5 -51 -15s-22.5 -22.167 -29.5 -36.5s-11.667 -30 -14 -47s-3.5 -32.5 -3.5 -46.5v-506h-111c8 4.66699 14 9.16699 18 13.5s6 12.166 6 23.499v452
c0 19.333 2.66699 40.666 8 63.999s15.333 45 30 65s34.834 36.833 60.501 50.5s59.167 20.5 100.5 20.5c22.667 0 44.667 -3.33301 66 -10s40 -16.334 56 -29.001s28.833 -28.5 38.5 -47.5s14.5 -40.5 14.5 -64.5c0 -19.333 -3.66699 -37.5 -11 -54.5
s-17.166 -32.333 -29.499 -46s-27 -25.5 -44 -35.5s-35.167 -17.667 -54.5 -23c22.667 -1.33301 46.167 -6.16602 70.5 -14.499s46.5 -20.5 66.5 -36.5s36.5 -35.5 49.5 -58.5s19.5 -49.5 19.5 -79.5z" />
    <glyph glyph-name="agrave" unicode="&#xe0;" 
d="M279 261c-16 -8 -32.001 -14.333 -48.001 -19s-35.667 -11 -59 -19c-23.333 -8.66699 -43 -20 -59 -34s-24 -33.667 -24 -59c0 -26.667 6.83301 -47.167 20.5 -61.5s32.167 -21.5 55.5 -21.5c24.667 0 46.334 5 65.001 15s35 22.333 49 37v162zM314.999 -10
c-11.333 7.33301 -19.8369 15.5 -25.5039 24.5s-8.83398 25.5 -9.50098 49.5c-8 -8 -17.167 -16.333 -27.5 -25s-22.166 -16.5 -35.499 -23.5s-27.666 -12.833 -42.999 -17.5s-32 -7 -50 -7c-22 0 -40.667 4.33301 -56 13s-27.833 19.334 -37.5 32.001s-16.5 26 -20.5 40
s-6 26.333 -6 37c0 19.333 4.66699 39 14 59s27 38 53 54c13.333 8 30 15.167 50 21.5l60.5 18.5c20.333 6 39 12.167 56 18.5s29.5 13.5 37.5 21.5c0.666992 0.666992 1.33398 3.16699 2.00098 7.5s1.16699 8.83301 1.5 13.5s0.5 9 0.5 13v8
c0 10.667 -1.5 21.167 -4.5 31.5s-8 19.666 -15 27.999s-15.833 15 -26.5 20s-24 7.5 -40 7.5c-21.333 0 -39.666 -3.66699 -54.999 -11s-28.666 -17.333 -39.999 -30s-20.833 -27.167 -28.5 -43.5s-14.5 -33.5 -20.5 -51.5l-2 124l29 18c10 6 21.167 11.333 33.5 16
s26.333 8.5 42 11.5s33.5 4.5 53.5 4.5c14.667 0 31 -1.5 49 -4.5s35 -9.33301 51 -19s29.5 -23.334 40.5 -41.001s16.5 -41.167 16.5 -70.5v-268c0 -12.667 1 -22.667 3 -30s11 -12.666 27 -15.999zM255.995 503c-2 -2 -9.50293 0 -22.5029 6l-42.5 20l-59 31
c-7.33301 3.33301 -15.166 8.5 -23.499 15.5s-12.5 15.833 -12.5 26.5s3.33301 19.5 10 26.5s15.334 10.5 26.001 10.5s20 -4 28 -12l23 -23l38 -48c9.33301 -12 17.833 -23.5 25.5 -34.5s10.834 -17.167 9.50098 -18.5z" />
    <glyph glyph-name="aacute" unicode="&#xe1;" 
d="M279 261c-15.333 -8 -30.999 -14.333 -46.999 -19s-35.667 -11 -59 -19c-23.333 -8.66699 -43.333 -20 -60 -34s-25 -33.667 -25 -59c0 -26.667 7.16699 -47.167 21.5 -61.5s33.166 -21.5 56.499 -21.5c24.667 0 46.167 5 64.5 15s34.5 22.333 48.5 37v162zM316.001 -10
c-11.333 7.33301 -19.833 15.5 -25.5 24.5s-8.83398 25.5 -9.50098 49.5c-8 -8 -17.333 -16.333 -28 -25s-22.667 -16.5 -36 -23.5s-27.666 -12.833 -42.999 -17.5s-32 -7 -50 -7c-22 0 -40.667 4.33301 -56 13s-27.833 19.334 -37.5 32.001s-16.5 26 -20.5 40
s-6 26.333 -6 37c0 19.333 4.83301 39 14.5 59s27.5 38 53.5 54c12.667 8 29 15.167 49 21.5l60.5 18.5c20.333 6 39.166 12.167 56.499 18.5s30 13.5 38 21.5c0.666992 0.666992 1.16699 3.16699 1.5 7.5l1 13.5c0.333008 4.66699 0.5 9 0.5 13v8
c0 10.667 -1.5 21.167 -4.5 31.5s-7.83301 19.666 -14.5 27.999s-15.5 15 -26.5 20s-24.167 7.5 -39.5 7.5c-21.333 0 -39.833 -3.66699 -55.5 -11s-29 -17.333 -40 -30s-20.5 -27.167 -28.5 -43.5s-15 -33.5 -21 -51.5l-1 124c8.66699 6 18 12 28 18s21.167 11.333 33.5 16
s26.333 8.5 42 11.5s33.834 4.5 54.501 4.5c14 0 30.167 -1.5 48.5 -4.5s35.5 -9.33301 51.5 -19s29.5 -23.334 40.5 -41.001s16.5 -41.167 16.5 -70.5v-268c0 -12.667 1 -22.667 3 -30s10.667 -12.666 26 -15.999zM296.001 602c0 -10.667 -4.00098 -19.5 -12.001 -26.5
s-16 -12.167 -24 -15.5c-21.333 -12 -40.666 -22.333 -57.999 -31l-42.5 -20c-13 -6 -20.167 -8 -21.5 -6c-2 1.33301 0.833008 7.5 8.5 18.5s16.167 22.5 25.5 34.5l39 48c5.33301 8 12.5 15.833 21.5 23.5s18.833 11.5 29.5 11.5c9.33301 0 17.333 -3.5 24 -10.5
s10 -15.833 10 -26.5z" />
    <glyph glyph-name="acircumflex" unicode="&#xe2;" 
d="M278 261c-15.333 -8 -31.001 -14.333 -47.001 -19s-35.333 -11 -58 -19c-24.667 -8.66699 -45 -20 -61 -34s-24 -33.667 -24 -59c0 -26.667 6.83301 -47.167 20.5 -61.5s32.167 -21.5 55.5 -21.5c24.667 0 46.334 5 65.001 15s35 22.333 49 37v162zM313.999 -10
c-11.333 7.33301 -19.835 15.5 -25.502 24.5s-8.83398 25.5 -9.50098 49.5c-8 -8 -17.167 -16.333 -27.5 -25s-22.166 -16.5 -35.499 -23.5s-27.666 -12.833 -42.999 -17.5s-32 -7 -50 -7c-22 0 -40.667 4.33301 -56 13s-27.666 19.334 -36.999 32.001s-16 26 -20 40
s-6 26.333 -6 37c0 19.333 4.5 39 13.5 59s26.5 38 52.5 54c13.333 8 30 15.167 50 21.5l60.5 18.5c20.333 6 39 12.167 56 18.5s29.5 13.5 37.5 21.5c1.33301 0.666992 2.33301 3.16699 3 7.5s1.16699 8.83301 1.5 13.5s0.333008 9 0 13s-0.5 6.66699 -0.5 8
c0 10.667 -1.5 21.167 -4.5 31.5s-8 19.666 -15 27.999s-15.833 15 -26.5 20s-24 7.5 -40 7.5c-20.667 0 -38.667 -3.66699 -54 -11s-28.666 -17.333 -39.999 -30s-21 -27.167 -29 -43.5s-15 -33.5 -21 -51.5l-2 124l29 18c10 6 21.167 11.333 33.5 16s26.333 8.5 42 11.5
s33.5 4.5 53.5 4.5c14.667 0 31 -1.5 49 -4.5s35 -9.33301 51 -19s29.5 -23.334 40.5 -41.001s16.5 -41.167 16.5 -70.5v-268c0 -12.667 1.16699 -22.667 3.5 -30s11.166 -12.666 26.499 -15.999zM337.997 503c-2 -2 -10.167 0.166992 -24.5 6.5l-47.5 21.5
c-20 9.33301 -42.333 20.666 -67 33.999c-24.667 -13.333 -46.667 -24.666 -66 -33.999c-8 -4 -16.167 -7.83301 -24.5 -11.5l-22.5 -10c-6.66699 -3 -12.167 -5.16699 -16.5 -6.5s-6.83301 -1.33301 -7.5 0s2 5.5 8 12.5s13.833 15.5 23.5 25.5l32.5 32.5l33.5 32l26.5 24
c7.33301 6.33301 11.666 9.5 12.999 9.5s5.83301 -3.16699 13.5 -9.5s16.834 -14.333 27.501 -24l34 -32l32.5 -32.5l24 -25.5c6.33301 -7 8.83301 -11.167 7.5 -12.5z" />
    <glyph glyph-name="atilde" unicode="&#xe3;" 
d="M278 261c-15.333 -8 -31.001 -14.333 -47.001 -19s-35.333 -11 -58 -19c-24.667 -8.66699 -45 -20 -61 -34s-24 -33.667 -24 -59c0 -26.667 6.83301 -47.167 20.5 -61.5s32.167 -21.5 55.5 -21.5c24.667 0 46.334 5 65.001 15s35 22.333 49 37v162zM313.999 -10
c-11.333 7.33301 -19.835 15.5 -25.502 24.5s-8.83398 25.5 -9.50098 49.5c-8 -8 -17.167 -16.333 -27.5 -25s-22.166 -16.5 -35.499 -23.5s-27.666 -12.833 -42.999 -17.5s-32 -7 -50 -7c-22 0 -40.667 4.33301 -56 13s-27.666 19.334 -36.999 32.001s-16 26 -20 40
s-6 26.333 -6 37c0 19.333 4.5 39 13.5 59s26.5 38 52.5 54c13.333 8 30 15.167 50 21.5l60.5 18.5c20.333 6 39 12.167 56 18.5s29.5 13.5 37.5 21.5c1.33301 0.666992 2.33301 3.16699 3 7.5s1.16699 8.83301 1.5 13.5s0.333008 9 0 13s-0.5 6.66699 -0.5 8
c0 10.667 -1.5 21.167 -4.5 31.5s-8 19.666 -15 27.999s-15.833 15 -26.5 20s-24 7.5 -40 7.5c-20.667 0 -38.667 -3.66699 -54 -11s-28.666 -17.333 -39.999 -30s-21 -27.167 -29 -43.5s-15 -33.5 -21 -51.5l-2 124l29 18c10 6 21.167 11.333 33.5 16s26.333 8.5 42 11.5
s33.5 4.5 53.5 4.5c14.667 0 31 -1.5 49 -4.5s35 -9.33301 51 -19s29.5 -23.334 40.5 -41.001s16.5 -41.167 16.5 -70.5v-268c0 -12.667 1.16699 -22.667 3.5 -30s11.166 -12.666 26.499 -15.999zM344.997 579c-10 -11.333 -20.6699 -21 -32.0029 -29
c-9.33301 -7.33301 -20 -13.833 -32 -19.5s-24.667 -8.5 -38 -8.5c-12 0 -23.667 1.83301 -35 5.5s-21.666 7.66699 -30.999 12l-25.5 12c-7.66699 3.66699 -14.5 5.5 -20.5 5.5c-7.33301 0 -14.166 -1.83301 -20.499 -5.5s-12.166 -7.5 -17.499 -11.5
c-6 -4.66699 -11.667 -10 -17 -16l-21 12c0.666992 4 4.16699 9.83301 10.5 17.5s14.5 15.167 24.5 22.5s21.333 13.833 34 19.5s25.667 8.5 39 8.5c7.33301 0 15.666 -1.66699 24.999 -5s19 -7 29 -11s19.833 -7.66699 29.5 -11s18.167 -5 25.5 -5
c8.66699 0 16.334 1 23.001 3s12.334 4.66699 17.001 8c5.33301 3.33301 9.66602 7.33301 12.999 12z" />
    <glyph glyph-name="adieresis" unicode="&#xe4;" 
d="M278 261c-15.333 -8 -31.001 -14.333 -47.001 -19s-35.333 -11 -58 -19c-24.667 -8.66699 -45 -20 -61 -34s-24 -33.667 -24 -59c0 -26.667 6.83301 -47.167 20.5 -61.5s32.167 -21.5 55.5 -21.5c24.667 0 46.334 5 65.001 15s35 22.333 49 37v162zM313.999 -10
c-11.333 7.33301 -19.835 15.5 -25.502 24.5s-8.83398 25.5 -9.50098 49.5c-8 -8 -17.167 -16.333 -27.5 -25s-22.166 -16.5 -35.499 -23.5s-27.666 -12.833 -42.999 -17.5s-32 -7 -50 -7c-22 0 -40.667 4.33301 -56 13s-27.666 19.334 -36.999 32.001s-16 26 -20 40
s-6 26.333 -6 37c0 19.333 4.5 39 13.5 59s26.5 38 52.5 54c13.333 8 30 15.167 50 21.5l60.5 18.5c20.333 6 39 12.167 56 18.5s29.5 13.5 37.5 21.5c1.33301 0.666992 2.33301 3.16699 3 7.5s1.16699 8.83301 1.5 13.5s0.333008 9 0 13s-0.5 6.66699 -0.5 8
c0 10.667 -1.5 21.167 -4.5 31.5s-8 19.666 -15 27.999s-15.833 15 -26.5 20s-24 7.5 -40 7.5c-20.667 0 -38.667 -3.66699 -54 -11s-28.666 -17.333 -39.999 -30s-21 -27.167 -29 -43.5s-15 -33.5 -21 -51.5l-2 124l29 18c10 6 21.167 11.333 33.5 16s26.333 8.5 42 11.5
s33.5 4.5 53.5 4.5c14.667 0 31 -1.5 49 -4.5s35 -9.33301 51 -19s29.5 -23.334 40.5 -41.001s16.5 -41.167 16.5 -70.5v-268c0 -12.667 1.16699 -22.667 3.5 -30s11.166 -12.666 26.499 -15.999zM176.997 569c0 -14 -4.5 -25.667 -13.5 -35s-20.167 -14 -33.5 -14
s-24.5 4.66699 -33.5 14s-13.5 21 -13.5 35c0 13.333 4.5 24.5 13.5 33.5s20.167 13.5 33.5 13.5s24.5 -4.5 33.5 -13.5s13.5 -20.167 13.5 -33.5zM320.997 569c0 -14 -4.83301 -25.667 -14.5 -35s-21.167 -14 -34.5 -14s-24.5 4.66699 -33.5 14s-13.5 21 -13.5 35
c0 13.333 4.5 24.5 13.5 33.5s20.167 13.5 33.5 13.5s24.833 -4.5 34.5 -13.5s14.5 -20.167 14.5 -33.5z" />
    <glyph glyph-name="aring" unicode="&#xe5;" 
d="M277 261c-14.667 -8 -30 -14.333 -46 -19s-35.333 -11 -58 -19c-24.667 -8.66699 -45 -20 -61 -34s-24 -33.667 -24 -59c0 -26.667 6.83301 -47.167 20.5 -61.5s32.167 -21.5 55.5 -21.5c24.667 0 46.167 5 64.5 15s34.5 22.333 48.5 37v162zM246 571
c0 12 -4.16699 22.167 -12.5 30.5s-19.166 12.5 -32.499 12.5c-12.667 0 -23.167 -4.16699 -31.5 -12.5s-12.5 -18.5 -12.5 -30.5c0 -13.333 4.16699 -24.333 12.5 -33s18.833 -13 31.5 -13c13.333 0 24.166 4.33301 32.499 13s12.5 19.667 12.5 33zM314 -10
c-11.333 7.33301 -19.835 15.502 -25.502 24.502s-8.83398 25.5 -9.50098 49.5c-8 -8 -17.167 -16.333 -27.5 -25s-22 -16.5 -35 -23.5s-27.333 -12.833 -43 -17.5s-32.167 -7 -49.5 -7c-22.667 0 -41.667 4.33301 -57 13s-27.666 19.334 -36.999 32.001s-16 26 -20 40
s-6 26.333 -6 37c0 19.333 4.5 39.166 13.5 59.499s26.5 38.166 52.5 53.499c13.333 8 30 15.167 50 21.5l60 18.5c20 6 38.667 12.167 56 18.5s30 13.5 38 21.5c1.33301 0.666992 2.33301 3.16699 3 7.5s1 8.83301 1 13.5v13c0 4 -0.333008 6.66699 -1 8
c0 10.667 -1.5 21.167 -4.5 31.5s-7.83301 19.666 -14.5 27.999s-15.334 15 -26.001 20s-24 7.5 -40 7.5c-21.333 0 -39.666 -3.66699 -54.999 -11s-28.5 -17.333 -39.5 -30s-20.5 -27.167 -28.5 -43.5s-15 -33.5 -21 -51.5v124c8.66699 6 17.834 12 27.501 18
s20.5 11.333 32.5 16s25.833 8.5 41.5 11.5s33.834 4.5 54.501 4.5c14.667 0 31 -1.5 49 -4.5s35 -9.33301 51 -19s29.5 -23.334 40.5 -41.001s16.5 -41.167 16.5 -70.5v-268c0 -12.667 1.16699 -22.667 3.5 -30s10.833 -12.666 25.5 -15.999zM269.998 571.002
c0 -18.667 -7 -34.667 -21 -48s-30 -20 -48 -20c-17.333 0 -32.666 6.66699 -45.999 20s-20 29.333 -20 48c0 18 6.66699 33.833 20 47.5s28.666 20.5 45.999 20.5c18 0 34 -6.83301 48 -20.5s21 -29.5 21 -47.5z" />
    <glyph glyph-name="ae" unicode="&#xe6;" horiz-adv-x="703" 
d="M273 261c-15.333 -8 -30.667 -14.334 -46 -19.001s-34.666 -11 -57.999 -19c-23.333 -8.66699 -43.5 -20 -60.5 -34s-25.5 -33.667 -25.5 -59c0 -26.667 7.33301 -47.167 22 -61.5s33.667 -21.5 57 -21.5c24 0 44.167 5.83301 60.5 17.5s30.166 26.834 41.499 45.501
c3.33301 5.33301 5.5 16.333 6.5 33s1.83301 33.667 2.5 51c0.666992 20.667 0.666992 43 0 67zM590.999 298.999c0 24.667 -3.16895 45.3301 -9.50195 61.9971s-14.666 30.334 -24.999 41.001s-22.166 18.334 -35.499 23.001s-27 7 -41 7c-18.667 0 -35 -3.66699 -49 -11
s-25.667 -17.166 -35 -29.499s-16.833 -26.5 -22.5 -42.5s-9.5 -32.667 -11.5 -50h229zM359.997 262.995c0 -4.66699 -0.330078 -9.16504 -0.99707 -13.498s-1 -8.5 -1 -12.5c0 -25.333 3.33301 -49.5 10 -72.5s16.667 -43.333 30 -61s30 -31.834 50 -42.501
s43.333 -16 70 -16c17.333 0 34.666 3.33301 51.999 10s33.166 15.167 47.499 25.5s27 21.666 38 33.999s19.167 24.166 24.5 35.499c-1.33301 -20 -6.83301 -39.667 -16.5 -59s-22.667 -36.666 -39 -51.999s-36 -27.666 -59 -36.999s-48.167 -14 -75.5 -14
c-33.333 0 -60.5 4.5 -81.5 13.5s-38 19 -51 30s-23.333 21 -31 30s-15.167 13.5 -22.5 13.5s-15.166 -4.33301 -23.499 -13s-19.333 -18.334 -33 -29.001s-30.667 -20.334 -51 -29.001s-45.833 -13 -76.5 -13c-22 0 -40.667 4.33301 -56 13s-27.833 19.334 -37.5 32.001
s-16.5 26 -20.5 40s-6 26.333 -6 37c0 19.333 4.83301 39 14.5 59s27.5 38 53.5 54c13.333 8 29.833 15.167 49.5 21.5l59.5 18.5c20 6 38.333 12.167 55 18.5s29 13.5 37 21.5c0.666992 0.666992 1.5 2.66699 2.5 6s1.66699 7.33301 2 12s0.666016 9 0.999023 13
s0.5 6.66699 0.5 8c0 10 -1.66699 20 -5 30s-8.5 19.167 -15.5 27.5s-16 15 -27 20s-24.167 7.5 -39.5 7.5c-21.333 0 -39.5 -3.66699 -54.5 -11s-28.167 -17.166 -39.5 -29.499s-21 -26.5 -29 -42.5s-15.333 -33 -22 -51v123l27.5 18.5
c9.66699 6.33301 20.5 11.833 32.5 16.5s25.833 8.5 41.5 11.5s34.167 4.5 55.5 4.5c19.333 0 36 -2.5 50 -7.5s26.167 -10.333 36.5 -16s19.333 -11 27 -16s15.167 -7.5 22.5 -7.5c8 0 15.833 2.5 23.5 7.5s17.167 10.333 28.5 16s25.666 11 42.999 16s39 7.5 65 7.5
c22 0 44 -3.83301 66 -11.5s41.833 -19.834 59.5 -36.501s32.167 -38.167 43.5 -64.5s17 -57.833 17 -94.5h-322z" />
    <glyph glyph-name="ccedilla" unicode="&#xe7;" horiz-adv-x="417" 
d="M392 111c-0.666992 -7.33301 -3.66602 -16.999 -8.99902 -28.999s-13.333 -24 -24 -36s-24.167 -23 -40.5 -33s-35.833 -16.667 -58.5 -20l-59 -85h-57l60 83c-34 2.66699 -63.333 11.667 -88 27s-45 34.333 -61 57s-27.833 47.667 -35.5 75s-11.5 54.333 -11.5 81
c0 24.667 4.33301 51.167 13 79.5s22.5 54.5 41.5 78.5s43.167 44 72.5 60s64.666 24 105.999 24c15.333 0 30.833 -1.83301 46.5 -5.5s29.834 -7.83398 42.501 -12.501c14.667 -5.33301 29 -11.333 43 -18l-2 -136c-11.333 38.667 -28.833 70.667 -52.5 96
s-51.167 38 -82.5 38c-24 0 -44.667 -5.83301 -62 -17.5s-31.666 -26.834 -42.999 -45.501s-19.666 -39.167 -24.999 -61.5s-8 -44.5 -8 -66.5c0 -25.333 3.33301 -49.666 10 -72.999s16.5 -44 29.5 -62s29.333 -32.5 49 -43.5s42.5 -16.5 68.5 -16.5
c18 0 34.167 2.16699 48.5 6.5s27.166 9.5 38.499 15.5s21.166 12.667 29.499 20s15.166 14 20.499 20z" />
    <glyph glyph-name="egrave" unicode="&#xe8;" horiz-adv-x="458" 
d="M336 303c0 24 -3 44.5 -9 61.5s-14 30.833 -24 41.5s-21.5 18.5 -34.5 23.5s-26.5 7.5 -40.5 7.5c-18.667 0 -35 -3.66699 -49 -11s-26 -17.333 -36 -30s-18 -27 -24 -43s-10.333 -32.667 -13 -50h230zM104 266l-0.000976562 -28.002c0 -25.333 3.33301 -49.333 10 -72
s16.667 -42.667 30 -60s30 -31.166 50 -41.499s43 -15.5 69 -15.5c18 0 35.5 3.16699 52.5 9.5s32.667 14.5 47 24.5s26.833 21.167 37.5 33.5s18.667 24.5 24 36.5c-1.33301 -20.667 -6.83301 -40.667 -16.5 -60s-22.667 -36.5 -39 -51.5s-35.833 -27.167 -58.5 -36.5
s-47.667 -14 -75 -14c-35.333 0 -66.833 6.83301 -94.5 20.5s-51.167 31.834 -70.5 54.501s-34.166 48.167 -44.499 76.5s-15.5 57.5 -15.5 87.5c0 27.333 4.83301 55.333 14.5 84s24 54.834 43 78.501s43 43 72 58s62.5 22.5 100.5 22.5c21.333 0 43 -3.83301 65 -11.5
s42 -19.834 60 -36.501s32.667 -38.167 44 -64.5s17 -57.833 17 -94.5h-322zM303.999 502.998c-2 -2 -9.50195 0 -22.502 6l-42.5 20c-17.333 8.66699 -36.666 19 -57.999 31c-8 3.33301 -16.167 8.5 -24.5 15.5s-12.5 15.833 -12.5 26.5s3.5 19.5 10.5 26.5
s15.833 10.5 26.5 10.5c9.33301 0 18.333 -3.83301 27 -11.5s16 -15.5 22 -23.5l39 -48c9.33301 -12 17.833 -23.5 25.5 -34.5s10.834 -17.167 9.50098 -18.5z" />
    <glyph glyph-name="eacute" unicode="&#xe9;" horiz-adv-x="460" 
d="M336 303c0 24 -3 44.5 -9 61.5s-14 30.833 -24 41.5s-21.5 18.5 -34.5 23.5s-26.5 7.5 -40.5 7.5c-18.667 0 -35.167 -3.66699 -49.5 -11s-26.5 -17.333 -36.5 -30s-18 -27 -24 -43s-10 -32.667 -12 -50h230zM104 266l-0.00195312 -28.002
c0 -25.333 3.33301 -49.333 10 -72s16.667 -42.667 30 -60s30 -31.166 50 -41.499s43 -15.5 69 -15.5c17.333 0 34.5 3.16699 51.5 9.5s32.833 14.5 47.5 24.5s27.334 21.167 38.001 33.5s18.667 24.5 24 36.5c-1.33301 -20.667 -6.83301 -40.667 -16.5 -60
s-22.667 -36.5 -39 -51.5s-35.833 -27.167 -58.5 -36.5s-47.667 -14 -75 -14c-35.333 0 -66.833 6.83301 -94.5 20.5s-51.167 31.834 -70.5 54.501s-34.166 48.167 -44.499 76.5s-15.5 57.5 -15.5 87.5c0 27.333 4.83301 55.333 14.5 84s24 54.834 43 78.501
s42.667 43 71 58s61.5 22.5 99.5 22.5c22 0 44.167 -3.83301 66.5 -11.5s42.5 -19.834 60.5 -36.501s32.667 -38.167 44 -64.5s17 -57.833 17 -94.5h-322zM314.998 601.998c0 -10.667 -4.16797 -19.333 -12.501 -26s-16.833 -12 -25.5 -16
c-21.333 -12 -40.666 -22.333 -57.999 -31l-42.5 -20c-13 -6 -20.167 -8 -21.5 -6c-1.33301 1.33301 1.83398 7.5 9.50098 18.5s16.167 22.5 25.5 34.5l38 48l23.5 23c8.33301 8 17.166 12 26.499 12c10.667 0 19.5 -3.5 26.5 -10.5s10.5 -15.833 10.5 -26.5z" />
    <glyph glyph-name="ecircumflex" unicode="&#xea;" horiz-adv-x="458" 
d="M336 303c0 24 -3 44.5 -9 61.5s-14 30.833 -24 41.5s-21.5 18.5 -34.5 23.5s-26.5 7.5 -40.5 7.5c-18.667 0 -35.167 -3.66699 -49.5 -11s-26.5 -17.333 -36.5 -30s-18 -27 -24 -43s-10 -32.667 -12 -50h230zM104 266l-0.00292969 -28.002
c0 -25.333 3.33301 -49.333 10 -72s16.667 -42.667 30 -60s30 -31.166 50 -41.499s43 -15.5 69 -15.5c17.333 0 34.5 3.16699 51.5 9.5s32.667 14.5 47 24.5s27 21.167 38 33.5s18.833 24.5 23.5 36.5c-1.33301 -20.667 -6.66602 -40.667 -15.999 -60
s-22.166 -36.5 -38.499 -51.5s-35.833 -27.167 -58.5 -36.5s-47.667 -14 -75 -14c-35.333 0 -66.833 6.83301 -94.5 20.5s-51.167 31.834 -70.5 54.501s-34.166 48.167 -44.499 76.5s-15.5 57.5 -15.5 87.5c0 27.333 4.83301 55.333 14.5 84s24 54.834 43 78.501
s42.667 43 71 58s61.5 22.5 99.5 22.5c22 0 44.167 -3.83301 66.5 -11.5s42.5 -19.834 60.5 -36.501s32.667 -38.167 44 -64.5s17 -57.833 17 -94.5h-322zM368.997 502.998c-2 -2 -10.166 0.167969 -24.499 6.50098l-47.5 21.5c-20 9.33301 -42.333 20.666 -67 33.999
c-24.667 -13.333 -47 -24.666 -67 -33.999l-25.5 -11.5l-22.5 -10c-6.66699 -3 -12.334 -5.16699 -17.001 -6.5s-7.33398 -1.33301 -8.00098 0s2.16602 5.5 8.49902 12.5l24 25.5c9.66699 10 20.667 20.833 33 32.5l34 32c10.333 9.66699 19.333 17.667 27 24
s12.167 9.5 13.5 9.5s5.83301 -3.16699 13.5 -9.5s16.834 -14.333 27.501 -24s21.834 -20.334 33.501 -32.001l32.5 -32.5c10 -10 18 -18.5 24 -25.5s8.66699 -11.167 8 -12.5z" />
    <glyph glyph-name="edieresis" unicode="&#xeb;" horiz-adv-x="458" 
d="M336 303c0 24 -3 44.5 -9 61.5s-14 30.833 -24 41.5s-21.5 18.5 -34.5 23.5s-26.5 7.5 -40.5 7.5c-18.667 0 -35.167 -3.66699 -49.5 -11s-26.5 -17.333 -36.5 -30s-18 -27 -24 -43s-10 -32.667 -12 -50h230zM104 266l-0.00292969 -28.002
c0 -25.333 3.33301 -49.333 10 -72s16.667 -42.667 30 -60s30 -31.166 50 -41.499s43 -15.5 69 -15.5c17.333 0 34.5 3.16699 51.5 9.5s32.667 14.5 47 24.5s27 21.167 38 33.5s18.833 24.5 23.5 36.5c-1.33301 -20.667 -6.66602 -40.667 -15.999 -60
s-22.166 -36.5 -38.499 -51.5s-35.833 -27.167 -58.5 -36.5s-47.667 -14 -75 -14c-35.333 0 -66.833 6.83301 -94.5 20.5s-51.167 31.834 -70.5 54.501s-34.166 48.167 -44.499 76.5s-15.5 57.5 -15.5 87.5c0 27.333 4.83301 55.333 14.5 84s24 54.834 43 78.501
s42.667 43 71 58s61.5 22.5 99.5 22.5c22 0 44.167 -3.83301 66.5 -11.5s42.5 -19.834 60.5 -36.501s32.667 -38.167 44 -64.5s17 -57.833 17 -94.5h-322zM202.997 568.998c0 -14 -4.66699 -25.667 -14 -35s-20.666 -14 -33.999 -14s-24.5 4.66699 -33.5 14
s-13.5 21 -13.5 35c0 13.333 4.66699 24.5 14 33.5s20.666 13.5 33.999 13.5s24.5 -4.5 33.5 -13.5s13.5 -20.167 13.5 -33.5zM345.997 568.998c0 -14 -4.5 -25.667 -13.5 -35s-20.167 -14 -33.5 -14s-24.833 4.66699 -34.5 14s-14.5 21 -14.5 35
c0 13.333 4.83301 24.5 14.5 33.5s21.167 13.5 34.5 13.5s24.5 -4.5 33.5 -13.5s13.5 -20.167 13.5 -33.5z" />
    <glyph glyph-name="igrave" unicode="&#xec;" horiz-adv-x="212" 
d="M25 0c7.33301 4.66699 13.5 9.33496 18.5 14.002s7.5 12.667 7.5 24v371c0 15.333 -3.83301 25.166 -11.5 29.499s-15.5 7.83301 -23.5 10.5l122 24v-435c0 -11.333 2.33301 -19.333 7 -24s11 -9.33398 19 -14.001h-139zM161 503.001c-2.66699 -2 -10.334 0 -23.001 6
l-42 20l-59 31c-8 3.33301 -16.167 8.5 -24.5 15.5s-12.5 15.833 -12.5 26.5s3.5 19.5 10.5 26.5s15.833 10.5 26.5 10.5c9.33301 0 18.5 -3.83301 27.5 -11.5s16.5 -15.5 22.5 -23.5l39 -48c9.33301 -12 17.833 -23.5 25.5 -34.5s10.834 -17.167 9.50098 -18.5z" />
    <glyph glyph-name="iacute" unicode="&#xed;" horiz-adv-x="212" 
d="M25 0c7.33301 4.66699 13.5 9.33496 18.5 14.002s7.5 12.667 7.5 24v371c0 15.333 -3.83301 25.166 -11.5 29.499s-15.5 7.83301 -23.5 10.5l122 24v-435c0 -11.333 2.33301 -19.333 7 -24s11 -9.33398 19 -14.001h-139zM173 602.001
c0 -10.667 -4.50098 -19.5 -13.501 -26.5s-17.5 -12.167 -25.5 -15.5c-21.333 -12 -40.666 -22.333 -57.999 -31l-41.5 -20c-13 -6 -20.167 -8 -21.5 -6c-1.33301 1.33301 1.66699 7.5 9 18.5s15.666 22.5 24.999 34.5l39 48l22.5 23c7.66699 8 16.834 12 27.501 12
c9.33301 0 17.833 -3.5 25.5 -10.5s11.5 -15.833 11.5 -26.5z" />
    <glyph glyph-name="icircumflex" unicode="&#xee;" horiz-adv-x="212" 
d="M25 0c8.66699 4.66699 15.167 9.33496 19.5 14.002s6.5 12.667 6.5 24v371c0 15.333 -3.83301 25.166 -11.5 29.499s-15.5 7.83301 -23.5 10.5l122 24v-435c0 -11.333 2.33301 -19.333 7 -24s11 -9.33398 19 -14.001h-139zM234 503.001c-2 -2 -10.167 0.166992 -24.5 6.5
l-47.5 21.5c-20 9.33301 -42 20.666 -66 33.999c-24.667 -13.333 -47 -24.666 -67 -33.999l-25.5 -11.5l-22.5 -10c-6.66699 -3 -12.167 -5.16699 -16.5 -6.5s-6.83301 -1.33301 -7.5 0s2 5.5 8 12.5s14 15.5 24 25.5l33 32.5l34 32l27 24
c7.33301 6.33301 11.666 9.5 12.999 9.5s5.83301 -3.16699 13.5 -9.5s16.834 -14.333 27.501 -24l34 -32l32.5 -32.5c9.66699 -10 17.5 -18.5 23.5 -25.5s8.33301 -11.167 7 -12.5z" />
    <glyph glyph-name="idieresis" unicode="&#xef;" horiz-adv-x="212" 
d="M24 0c9.33301 4.66699 16 9.33301 20 14s6 12.667 6 24v371c0 8 -1 14.333 -3 19s-4.66699 8.33398 -8 11.001s-7 4.66699 -11 6l-12 4l121 24v-435c0 -11.333 2.5 -19.333 7.5 -24s11.5 -9.33398 19.5 -14.001h-140zM66 568.999c0 -14 -4.66699 -25.667 -14 -35
s-20.333 -14 -33 -14c-14 0 -25.333 4.66699 -34 14s-13 21 -13 35c0 13.333 4.5 24.5 13.5 33.5s20.167 13.5 33.5 13.5s24.5 -4.5 33.5 -13.5s13.5 -20.167 13.5 -33.5zM209 568.999c0 -14 -4.5 -25.667 -13.5 -35s-20.167 -14 -33.5 -14s-24.5 4.66699 -33.5 14
s-13.5 21 -13.5 35c0 13.333 4.5 24.5 13.5 33.5s20.167 13.5 33.5 13.5s24.5 -4.5 33.5 -13.5s13.5 -20.167 13.5 -33.5z" />
    <glyph glyph-name="ntilde" unicode="&#xf1;" horiz-adv-x="498" 
d="M319 0c8.66699 4.66699 15.1641 9.33398 19.4971 14.001s6.5 12.667 6.5 24v260c0 14 -1.33301 27.833 -4 41.5s-8 26 -16 37s-18.833 20 -32.5 27s-31.5 10.5 -53.5 10.5c-21.333 0 -41.166 -5.66699 -59.499 -17s-32.166 -23 -41.499 -35v-324
c0 -11.333 2.33301 -19.333 7 -24s11 -9.33398 19 -14.001h-138c8 4.66699 14.167 9.33398 18.5 14.001s6.5 12.667 6.5 24v371c0 15.333 -3.33301 25.333 -10 30s-14.334 8.66699 -23.001 12l120 22v-71c5.33301 6 12.833 13 22.5 21s20.834 15.833 33.501 23.5
s26.5 14 41.5 19s30.5 7.5 46.5 7.5c18.667 0 36.834 -3 54.501 -9s33.5 -15 47.5 -27s25.167 -26.667 33.5 -44s12.5 -37 12.5 -59v-296c0 -11.333 2.5 -19.333 7.5 -24s11.167 -9.33398 18.5 -14.001h-137zM387.997 579c-9.33301 -11.333 -19.666 -21 -30.999 -29
c-9.33301 -7.33301 -20 -13.833 -32 -19.5s-24.667 -8.5 -38 -8.5c-12 0 -23.5 1.83301 -34.5 5.5s-21.333 7.66699 -31 12l-26 12c-7.66699 3.66699 -14.167 5.5 -19.5 5.5c-8 0 -15.333 -1.83301 -22 -5.5s-12.667 -7.5 -18 -11.5c-6 -4.66699 -11.667 -10 -17 -16l-19 12
c0 4 3.16699 9.83301 9.5 17.5s14.5 15.167 24.5 22.5s21.333 13.833 34 19.5s25.334 8.5 38.001 8.5c7.33301 0 15.666 -1.66699 24.999 -5s19 -7 29 -11s19.833 -7.66699 29.5 -11s18.167 -5 25.5 -5c8.66699 0 16.167 1 22.5 3s11.833 4.66699 16.5 8
c5.33301 3.33301 9.66602 7.33301 12.999 12z" />
    <glyph glyph-name="ograve" unicode="&#xf2;" horiz-adv-x="484" 
d="M358 238c-1.33301 25.333 -4.83203 50.1631 -10.499 74.4961s-14.167 45.833 -25.5 64.5s-25.333 33.5 -42 44.5s-36 16.167 -58 15.5s-40.833 -7.16699 -56.5 -19.5s-28.334 -28.166 -38.001 -47.499s-16.667 -41.5 -21 -66.5s-6.16602 -50.833 -5.49902 -77.5
c0.666992 -27.333 4.33398 -53 11.001 -77s15.667 -45 27 -63s25.166 -32 41.499 -42s34.833 -14.667 55.5 -14c22 0.666992 40.833 6.83398 56.5 18.501s28.667 26.834 39 45.501s17.666 40.334 21.999 65.001s5.83301 51 4.5 79zM449.001 230.997
c0 -29.333 -5.16797 -58.3301 -15.501 -86.9971s-25.166 -54.334 -44.499 -77.001s-42.5 -41 -69.5 -55s-57.167 -21 -90.5 -21c-39.333 0 -73 7.66699 -101 23s-50.667 34.666 -68 57.999s-30 49 -38 77s-12 55.333 -12 82c0 30 5 59.333 15 88s24.5 54.5 43.5 77.5
s42.167 41.5 69.5 55.5s58.333 21 93 21c38 0 70.667 -7.16699 98 -21.5s50 -32.833 68 -55.5s31.167 -48.334 39.5 -77.001s12.5 -58 12.5 -88zM297 503c-2.66699 -2 -10.334 0 -23.001 6l-42 20c-17.333 8.66699 -36.666 19 -57.999 31c-8 3.33301 -16.167 8.5 -24.5 15.5
s-12.5 15.833 -12.5 26.5s3.5 19.5 10.5 26.5s15.833 10.5 26.5 10.5c9.33301 0 18.333 -4 27 -12s15.667 -15.667 21 -23l39 -48l26 -34.5c8 -11 11.333 -17.167 10 -18.5z" />
    <glyph glyph-name="oacute" unicode="&#xf3;" horiz-adv-x="483" 
d="M355 238c-1.33301 25.333 -4.83301 50.1631 -10.5 74.4961s-14.167 45.833 -25.5 64.5s-25.166 33.5 -41.499 44.5s-35.5 16.167 -57.5 15.5s-40.667 -7.16699 -56 -19.5s-27.833 -28.166 -37.5 -47.499s-16.667 -41.5 -21 -66.5s-6.16602 -50.833 -5.49902 -77.5
c0.666992 -27.333 4.16699 -53 10.5 -77s15.166 -45 26.499 -63s25.166 -32 41.499 -42s35.166 -14.667 56.499 -14c22 0.666992 40.833 6.83398 56.5 18.501s28.334 26.834 38.001 45.501s16.667 40.334 21 65.001s5.83301 51 4.5 79zM448 230.997
c0 -29.333 -5.16992 -58.3301 -15.5029 -86.9971s-25.166 -54.334 -44.499 -77.001s-42.666 -41 -69.999 -55s-57.666 -21 -90.999 -21c-39.333 0 -73 7.66699 -101 23s-50.833 34.666 -68.5 57.999s-30.5 49 -38.5 77s-12 55.333 -12 82c0 30 5 59.333 15 88
s24.5 54.5 43.5 77.5s42.167 41.5 69.5 55.5s58.333 21 93 21c38 0 70.833 -7.16699 98.5 -21.5s50.5 -32.833 68.5 -55.5s31.333 -48.334 40 -77.001s13 -58 13 -88zM316.997 602c0 -10.667 -4.5 -19.5 -13.5 -26.5s-17.167 -12.167 -24.5 -15.5l-59 -31l-42.5 -20
c-13 -6 -20.5 -8 -22.5 -6c-1.33301 1.33301 2 7.5 10 18.5l26 34.5l39 48c5.33301 7.33301 12.5 15 21.5 23s18.5 12 28.5 12c10.667 0 19.5 -3.5 26.5 -10.5s10.5 -15.833 10.5 -26.5z" />
    <glyph glyph-name="ocircumflex" unicode="&#xf4;" horiz-adv-x="484" 
d="M358 238c-1.33301 25.333 -4.83203 50.1631 -10.499 74.4961s-14.167 45.833 -25.5 64.5s-25.333 33.5 -42 44.5s-36 16.167 -58 15.5s-40.833 -7.16699 -56.5 -19.5s-28.334 -28.166 -38.001 -47.499s-16.667 -41.5 -21 -66.5s-6.16602 -50.833 -5.49902 -77.5
c0.666992 -27.333 4.33398 -53 11.001 -77s15.667 -45 27 -63s25.166 -32 41.499 -42s34.833 -14.667 55.5 -14c22 0.666992 40.833 6.83398 56.5 18.501s28.667 26.834 39 45.501s17.666 40.334 21.999 65.001s5.83301 51 4.5 79zM449.001 230.997
c0 -29.333 -5.16797 -58.3301 -15.501 -86.9971s-25.166 -54.334 -44.499 -77.001s-42.5 -41 -69.5 -55s-57.167 -21 -90.5 -21c-39.333 0 -73 7.66699 -101 23s-50.667 34.666 -68 57.999s-30 49 -38 77s-12 55.333 -12 82c0 30 5 59.333 15 88s24.5 54.5 43.5 77.5
s42.167 41.5 69.5 55.5s58.333 21 93 21c38 0 70.667 -7.16699 98 -21.5s50 -32.833 68 -55.5s31.167 -48.334 39.5 -77.001s12.5 -58 12.5 -88zM367 503c-2 -2 -10.1709 0.166992 -24.5039 6.5l-47.5 21.5c-20 9.33301 -42 20.666 -66 33.999
c-24.667 -13.333 -47 -24.666 -67 -33.999l-25.5 -11.5l-22.5 -10c-6.66699 -3 -12.167 -5.16699 -16.5 -6.5s-6.83301 -1.33301 -7.5 0s2 5.5 8 12.5s14 15.5 24 25.5l32.5 32.5c11.667 11.667 22.834 22.334 33.501 32.001s19.834 17.667 27.501 24s12.167 9.5 13.5 9.5
s5.83301 -3.16699 13.5 -9.5s16.834 -14.333 27.501 -24s21.834 -20.334 33.501 -32.001l32 -32.5c9.66699 -10 17.5 -18.5 23.5 -25.5s8.66699 -11.167 8 -12.5z" />
    <glyph glyph-name="otilde" unicode="&#xf5;" horiz-adv-x="484" 
d="M358 238c-1.33301 25.333 -4.83203 50.1631 -10.499 74.4961s-14.167 45.833 -25.5 64.5s-25.333 33.5 -42 44.5s-36 16.167 -58 15.5s-40.833 -7.16699 -56.5 -19.5s-28.334 -28.166 -38.001 -47.499s-16.667 -41.5 -21 -66.5s-6.16602 -50.833 -5.49902 -77.5
c0.666992 -27.333 4.33398 -53 11.001 -77s15.667 -45 27 -63s25.166 -32 41.499 -42s34.833 -14.667 55.5 -14c22 0.666992 40.833 6.83398 56.5 18.501s28.667 26.834 39 45.501s17.666 40.334 21.999 65.001s5.83301 51 4.5 79zM449.001 230.997
c0 -29.333 -5.16797 -58.3301 -15.501 -86.9971s-25.166 -54.334 -44.499 -77.001s-42.5 -41 -69.5 -55s-57.167 -21 -90.5 -21c-39.333 0 -73 7.66699 -101 23s-50.667 34.666 -68 57.999s-30 49 -38 77s-12 55.333 -12 82c0 30 5 59.333 15 88s24.5 54.5 43.5 77.5
s42.167 41.5 69.5 55.5s58.333 21 93 21c38 0 70.667 -7.16699 98 -21.5s50 -32.833 68 -55.5s31.167 -48.334 39.5 -77.001s12.5 -58 12.5 -88zM375 579c-9.33301 -11.333 -19.6709 -21 -31.0039 -29c-9.33301 -7.33301 -20.166 -13.833 -32.499 -19.5
s-25.166 -8.5 -38.499 -8.5c-12 0 -23.5 1.83301 -34.5 5.5s-21.167 7.66699 -30.5 12l-25.5 12c-7.66699 3.66699 -14.167 5.5 -19.5 5.5c-8 0 -15.333 -1.83301 -22 -5.5s-12.667 -7.5 -18 -11.5c-6 -4.66699 -11.667 -10 -17 -16l-21 12
c0.666992 4 4.33398 9.83301 11.001 17.5s15 15.167 25 22.5s21.333 13.833 34 19.5s25.334 8.5 38.001 8.5c7.33301 0 15.666 -1.66699 24.999 -5s19 -7 29 -11s19.833 -7.66699 29.5 -11s18.167 -5 25.5 -5c8.66699 0 16.334 1 23.001 3s12.334 4.66699 17.001 8
c5.33301 3.33301 9.66602 7.33301 12.999 12z" />
    <glyph glyph-name="odieresis" unicode="&#xf6;" horiz-adv-x="484" 
d="M358 238c-1.33301 25.333 -4.83203 50.1631 -10.499 74.4961s-14.167 45.833 -25.5 64.5s-25.333 33.5 -42 44.5s-36 16.167 -58 15.5s-40.833 -7.16699 -56.5 -19.5s-28.334 -28.166 -38.001 -47.499s-16.667 -41.5 -21 -66.5s-6.16602 -50.833 -5.49902 -77.5
c0.666992 -27.333 4.33398 -53 11.001 -77s15.667 -45 27 -63s25.166 -32 41.499 -42s34.833 -14.667 55.5 -14c22 0.666992 40.833 6.83398 56.5 18.501s28.667 26.834 39 45.501s17.666 40.334 21.999 65.001s5.83301 51 4.5 79zM449.001 230.997
c0 -29.333 -5.16797 -58.3301 -15.501 -86.9971s-25.166 -54.334 -44.499 -77.001s-42.5 -41 -69.5 -55s-57.167 -21 -90.5 -21c-39.333 0 -73 7.66699 -101 23s-50.667 34.666 -68 57.999s-30 49 -38 77s-12 55.333 -12 82c0 30 5 59.333 15 88s24.5 54.5 43.5 77.5
s42.167 41.5 69.5 55.5s58.333 21 93 21c38 0 70.667 -7.16699 98 -21.5s50 -32.833 68 -55.5s31.167 -48.334 39.5 -77.001s12.5 -58 12.5 -88zM203 569c0 -14 -4.66699 -25.667 -14 -35s-21 -14 -35 -14c-12 0 -22.5 4.66699 -31.5 14s-13.5 21 -13.5 35
c0 13.333 4.5 24.5 13.5 33.5s20.167 13.5 33.5 13.5s24.5 -4.5 33.5 -13.5s13.5 -20.167 13.5 -33.5zM346 569c0 -14 -4.5 -25.667 -13.5 -35s-20.167 -14 -33.5 -14s-24.5 4.66699 -33.5 14s-13.5 21 -13.5 35c0 13.333 4.5 24.5 13.5 33.5s20.167 13.5 33.5 13.5
s24.5 -4.5 33.5 -13.5s13.5 -20.167 13.5 -33.5z" />
    <glyph glyph-name="divide" unicode="&#xf7;" horiz-adv-x="429" 
d="M242 247c0 -11.333 -4 -21.166 -12 -29.499s-18 -12.5 -30 -12.5c-11.333 0 -21.166 4.16699 -29.499 12.5s-12.5 18.166 -12.5 29.499s4.16699 21.166 12.5 29.499s18.166 12.5 29.499 12.5c12 0 22 -4.16699 30 -12.5s12 -18.166 12 -29.499zM29 311v56h345v-56h-345z
M242 432c0 -11.333 -4 -21.166 -12 -29.499s-18 -12.5 -30 -12.5c-11.333 0 -21.166 4.16699 -29.499 12.5s-12.5 18.166 -12.5 29.499s4.16699 21 12.5 29s18.166 12 29.499 12c12 0 22 -4 30 -12s12 -17.667 12 -29z" />
    <glyph glyph-name="oslash" unicode="&#xf8;" horiz-adv-x="484" 
d="M358 238c-1.33301 38.667 -9.99902 74.333 -25.999 107l-47.5 -64.5l-51 -69l-50 -67.5l-44.5 -60c12 -17.333 25.833 -30.833 41.5 -40.5s34.167 -14.167 55.5 -13.5c22 0.666992 40.833 6.66699 56.5 18s28.5 26.5 38.5 45.5s17.167 40.833 21.5 65.5
s6.16602 51 5.49902 79zM315.001 389.999c-11.333 14.667 -24.6699 26.332 -40.0029 34.999s-33 12.667 -53 12c-22 -0.666992 -40.667 -7 -56 -19s-28 -27.833 -38 -47.5s-17.167 -41.834 -21.5 -66.501s-6.16602 -50 -5.49902 -76
c0.666992 -17.333 2.33398 -34.166 5.00098 -50.499s7.33398 -32.166 14.001 -47.499l48.5 64.5l51 68.5l50 67zM448.997 230.997c0 -29.333 -5.16602 -58.3311 -15.499 -86.998s-25.166 -54.334 -44.499 -77.001s-42.5 -41 -69.5 -55s-57.167 -21 -90.5 -21
c-27.333 0 -51.666 3.66699 -72.999 11s-40.333 17.666 -57 30.999c-7.33301 -9.33301 -13.333 -17.833 -18 -25.5s-7.33398 -12.5 -8.00098 -14.5h-59c3.33301 5.33301 9.66602 14 18.999 26l33 44c-19.333 24 -33.5 51 -42.5 81s-13.5 59 -13.5 87c0 30 5 59.333 15 88
s24.5 54.5 43.5 77.5s42.167 41.5 69.5 55.5s58.333 21 93 21c24.667 0 47 -3.16699 67 -9.5s37.667 -14.833 53 -25.5c8 10 14.167 18.333 18.5 25s7.5 10.667 9.5 12h57l-19 -23l-31 -40c21.333 -24 37.166 -52 47.499 -84s15.5 -64.333 15.5 -97z" />
    <glyph glyph-name="ugrave" unicode="&#xf9;" horiz-adv-x="495" 
d="M374 -9c-6.66699 3.33301 -12.166 6.83789 -16.499 10.5049s-8 8 -11 13s-5.16699 11.167 -6.5 18.5s-2 16.666 -2 27.999c-8 -8 -16.833 -16.167 -26.5 -24.5s-20.334 -15.833 -32.001 -22.5s-24.834 -12.167 -39.501 -16.5s-31 -6.5 -49 -6.5
c-15.333 0 -31.666 2.83301 -48.999 8.5s-33.666 15.5 -48.999 29.5s-28 33.167 -38 57.5s-15 55.166 -15 92.499v230c0 15.333 -3.83301 25.166 -11.5 29.499s-15.834 7.83301 -24.501 10.5l123 24v-294c0 -42.667 9.66699 -74.834 29 -96.501s43.333 -32.5 72 -32.5
c25.333 0 45.833 5 61.5 15s31.167 22 46.5 36v308c0 15.333 -3.83301 25.166 -11.5 29.499s-15.5 7.83301 -23.5 10.5l120 24v-393c0 -15.333 2.5 -28 7.5 -38s15.833 -16.333 32.5 -19zM292.001 503.005c-2 -2 -9.33105 0 -21.998 6l-42 20l-59 31
c-8 3.33301 -16.167 8.5 -24.5 15.5s-12.5 15.833 -12.5 26.5s3.5 19.5 10.5 26.5s15.833 10.5 26.5 10.5c9.33301 0 18.166 -4 26.499 -12l23.5 -23l39 -48c9.33301 -12 17.666 -23.5 24.999 -34.5s10.333 -17.167 9 -18.5z" />
    <glyph glyph-name="uacute" unicode="&#xfa;" horiz-adv-x="495" 
d="M374 -9c-6 3.33301 -11.1699 6.83594 -15.5029 10.5029s-8 8 -11 13s-5.16699 11.167 -6.5 18.5s-2.33301 16.666 -3 27.999c-15.333 -16.667 -34.666 -32.5 -57.999 -47.5s-52.333 -22.5 -87 -22.5c-15.333 0 -31.833 2.83301 -49.5 8.5s-34.167 15.5 -49.5 29.5
s-28.166 33.167 -38.499 57.5s-15.5 55.166 -15.5 92.499v230c0 8 -1 14.333 -3 19s-4.66699 8.33398 -8 11.001s-7 4.66699 -11 6l-12 4l121 24v-294c0 -42.667 10 -74.834 30 -96.501s44.333 -32.5 73 -32.5c24.667 0 45 5 61 15s31.667 22 47 36v308
c0 15.333 -3.83301 25.166 -11.5 29.499s-16.167 7.83301 -25.5 10.5l120 24v-393c0 -15.333 2.83301 -28 8.5 -38s16.834 -16.333 33.501 -19zM328.997 602.003c0 -10.667 -4.33301 -19.5 -13 -26.5s-17 -12.167 -25 -15.5c-21.333 -12 -40.666 -22.333 -57.999 -31
l-42.5 -20c-13 -6 -20.167 -8 -21.5 -6c-2 1.33301 0.833008 7.5 8.5 18.5s16.167 22.5 25.5 34.5l39 48c5.33301 8 12.5 15.833 21.5 23.5s18.833 11.5 29.5 11.5c9.33301 0 17.666 -3.5 24.999 -10.5s11 -15.833 11 -26.5z" />
    <glyph glyph-name="ucircumflex" unicode="&#xfb;" horiz-adv-x="495" 
d="M374 -9c-6 3.33301 -11.1699 6.83594 -15.5029 10.5029s-8 8 -11 13s-5.16699 11.167 -6.5 18.5s-2.33301 16.666 -3 27.999c-15.333 -16.667 -34.666 -32.5 -57.999 -47.5s-52.333 -22.5 -87 -22.5c-15.333 0 -31.833 2.83301 -49.5 8.5s-34.167 15.5 -49.5 29.5
s-28.166 33.167 -38.499 57.5s-15.5 55.166 -15.5 92.499v230c0 8 -1 14.333 -3 19s-4.66699 8.33398 -8 11.001s-7 4.66699 -11 6l-12 4l121 24v-294c0 -42.667 10 -74.834 30 -96.501s44.333 -32.5 73 -32.5c24.667 0 45 5 61 15s31.667 22 47 36v308
c0 15.333 -3.83301 25.166 -11.5 29.499s-16.167 7.83301 -25.5 10.5l120 24v-393c0 -15.333 2.83301 -28 8.5 -38s16.834 -16.333 33.501 -19zM370.997 503.003c-2.66699 -2 -11.1689 0.167969 -25.502 6.50098l-47.5 21.5c-20 9.33301 -42 20.666 -66 33.999
c-24.667 -13.333 -47 -24.666 -67 -33.999l-47.5 -21.5c-14.333 -6.33301 -22.5 -8.5 -24.5 -6.5c-1.33301 1.33301 1.16699 5.5 7.5 12.5s14.5 15.5 24.5 25.5l33 32.5l33.5 32c10.333 9.66699 19.333 17.667 27 24s12.167 9.5 13.5 9.5s5.83301 -3.16699 13.5 -9.5
s16.834 -14.333 27.501 -24s21.834 -20.334 33.501 -32.001l32.5 -32.5c10 -10 18 -18.5 24 -25.5s8.66699 -11.167 8 -12.5z" />
    <glyph glyph-name="udieresis" unicode="&#xfc;" horiz-adv-x="494" 
d="M376 -9c-6.66699 3.33301 -12.3369 6.83594 -17.0039 10.5029s-8.5 8 -11.5 13s-5.16699 11.167 -6.5 18.5s-2 16.666 -2 27.999c-15.333 -16.667 -34.666 -32.5 -57.999 -47.5s-52.666 -22.5 -87.999 -22.5c-15.333 0 -31.833 2.83301 -49.5 8.5
s-34.167 15.5 -49.5 29.5s-28.166 33.167 -38.499 57.5s-15.5 55.166 -15.5 92.499v230c0 15.333 -3.66699 25.166 -11 29.499s-15.333 7.83301 -24 10.5l124 24v-294c0 -42.667 9.5 -74.834 28.5 -96.501s43.167 -32.5 72.5 -32.5c24.667 0 44.834 5 60.501 15
s31.167 22 46.5 36v308c0 8 -1 14.333 -3 19s-4.66699 8.33398 -8 11.001s-7 4.66699 -11 6l-12 4l120 24v-393c0 -15.333 2.5 -28 7.5 -38s15.833 -16.333 32.5 -19zM208.997 569.003c0 -14 -4.83301 -25.667 -14.5 -35s-21.167 -14 -34.5 -14s-24.5 4.66699 -33.5 14
s-13.5 21 -13.5 35c0 13.333 4.5 24.5 13.5 33.5s20.167 13.5 33.5 13.5s24.833 -4.5 34.5 -13.5s14.5 -20.167 14.5 -33.5zM350.997 569.003c0 -14 -4.66699 -25.667 -14 -35s-20.333 -14 -33 -14c-13.333 0 -24.666 4.66699 -33.999 14s-14 21 -14 35
c0 13.333 4.66699 24.5 14 33.5s20.666 13.5 33.999 13.5c12.667 0 23.667 -4.5 33 -13.5s14 -20.167 14 -33.5z" />
    <glyph glyph-name="ydieresis" unicode="&#xff;" horiz-adv-x="385" 
d="M421 459c-12 -5.33301 -22.332 -11.333 -30.999 -18s-15.667 -16.667 -21 -30l-61 -142l-73.5 -164.5l-76.5 -173.5l-71 -168h-90c10.667 5.33301 19.5 10.833 26.5 16.5s13 11.5 18 17.5s9.33301 12.333 13 19l11.5 22l43 84.5l46 96.5l-158 393
c-4 9.33301 -7.66699 16.5 -11 21.5s-6.83301 9 -10.5 12s-7.83398 5.33301 -12.501 7s-10.334 3.83398 -17.001 6.50098h173c-6 -2 -11.333 -4.33301 -16 -7s-8.5 -6 -11.5 -10s-4.66699 -9 -5 -15s1.16699 -13.667 4.5 -23l108 -284l69.5 159.5
c21 50.333 37.833 92.166 50.5 125.499c6.66699 17.333 5.83398 30 -2.49902 38s-18.5 13.333 -30.5 16h135zM166.001 569c0 -14 -4.83398 -25.667 -14.501 -35s-21.167 -14 -34.5 -14s-24.166 4.66699 -32.499 14s-12.5 21 -12.5 35c0 13.333 4.5 24.5 13.5 33.5
s20.167 13.5 33.5 13.5s24.5 -4.5 33.5 -13.5s13.5 -20.167 13.5 -33.5zM308 569c0 -14 -4.5 -25.667 -13.5 -35s-20.167 -14 -33.5 -14s-24.5 4.66699 -33.5 14s-13.5 21 -13.5 35c0 13.333 4.5 24.5 13.5 33.5s20.167 13.5 33.5 13.5s24.5 -4.5 33.5 -13.5
s13.5 -20.167 13.5 -33.5z" />
    <glyph glyph-name="dotlessi" unicode="&#x131;" horiz-adv-x="210" 
d="M25 0c7.33301 4.66699 13.5 9.33496 18.5 14.002s7.5 12.667 7.5 24v371c0 15.333 -3.83301 25.166 -11.5 29.499s-15.5 7.83301 -23.5 10.5l122 24v-435c0 -11.333 2.33301 -19.333 7 -24s11 -9.33398 19 -14.001h-139z" />
    <glyph glyph-name="OE" unicode="&#x152;" horiz-adv-x="876" 
d="M474 132v420.001c0 33.333 -10.167 56.666 -30.5 69.999s-44.5 20 -72.5 20c-36.667 0 -70.667 -6.5 -102 -19.5s-58.5 -32 -81.5 -57s-41 -55.333 -54 -91s-19.5 -76.167 -19.5 -121.5c0 -54 7.83301 -100.833 23.5 -140.5s35.667 -72.5 60 -98.5
s51.833 -45.167 82.5 -57.5s61 -18.5 91 -18.5c36.667 0 63 8.83301 79 26.5s24 40.167 24 67.5zM848 0.000976562h-384.996c-14 -2.66699 -28.833 -4.83398 -44.5 -6.50098s-30.834 -2.5 -45.501 -2.5c-48 0 -94.167 8.5 -138.5 25.5s-83.333 40.833 -117 71.5
s-60.5 67.167 -80.5 109.5s-30 89.166 -30 140.499c0 40 8.16699 80.833 24.5 122.5s40.166 79.167 71.499 112.5s69.833 60.666 115.5 81.999s98.167 32 157.5 32c13.333 0 27.666 -1.16699 42.999 -3.5s29.666 -3.5 42.999 -3.5h360l2 -78
c-6.66699 8.66699 -16 16.5 -28 23.5s-25.333 10.833 -40 11.5c-26.667 0.666992 -51.334 1.16699 -74.001 1.5s-42.334 0.5 -59.001 0.5h-54v-241h162c7.33301 0 14.666 3.16699 21.999 9.5s12.333 12.5 15 18.5v-97c-2.66699 6 -7.66699 12.167 -15 18.5
s-14.666 9.5 -21.999 9.5h-162v-308c10.667 -2 27 -3.66699 49 -5s44.667 -1.66602 68 -0.999023c26.667 0.666992 49.334 1.33398 68.001 2.00098s34.834 2.83398 48.501 6.50098s25.5 9.66699 35.5 18s19.667 20.5 29 36.5z" />
    <glyph glyph-name="oe" unicode="&#x153;" horiz-adv-x="807" 
d="M358 233c0 25.333 -2.5 50.166 -7.5 74.499s-12.833 46.166 -23.5 65.499s-24 34.833 -40 46.5s-35.333 17.5 -58 17.5c-22 0 -41.167 -5.66699 -57.5 -17s-30 -26.5 -41 -45.5s-19.167 -40.667 -24.5 -65s-8 -49.833 -8 -76.5c0 -27.333 2.66699 -53.166 8 -77.499
s13.333 -45.833 24 -64.5s24 -33.5 40 -44.5s34.333 -16.5 55 -16.5c22 0 41.333 5.33301 58 16s30.5 25.334 41.5 44.001s19.333 40.167 25 64.5s8.5 50.5 8.5 78.5zM683 303c0 24 -3 44.5 -9 61.5s-14 30.833 -24 41.5s-21.5 18.5 -34.5 23.5s-26.5 7.5 -40.5 7.5
c-18.667 0 -35.167 -3.66699 -49.5 -11s-26.5 -17.333 -36.5 -30s-18 -27 -24 -43s-10 -32.667 -12 -50h230zM452 266c0 -4 -0.333008 -9.00391 -1 -15.0039s-1 -11.333 -1 -16c0 -26.667 3.5 -51.334 10.5 -74.001s17.167 -42.334 30.5 -59.001s30 -29.667 50 -39
s43 -14 69 -14c17.333 0 34.666 3.16699 51.999 9.5s33.166 14.5 47.499 24.5s27 21.167 38 33.5s19.167 24.5 24.5 36.5c-1.33301 -20 -6.83301 -39.667 -16.5 -59s-22.667 -36.666 -39 -51.999s-36 -27.666 -59 -36.999s-48.167 -14 -75.5 -14c-28.667 0 -52.667 4 -72 12
s-35.666 17.167 -48.999 27.5s-24.666 20.166 -33.999 29.499s-18 15.333 -26 18c-7.33301 -2 -15.5 -7.66699 -24.5 -17s-20.167 -19.166 -33.5 -29.499s-29.333 -19.666 -48 -27.999s-41.334 -12.5 -68.001 -12.5c-39.333 0 -72.833 7.66699 -100.5 23
s-50.167 34.833 -67.5 58.5s-30.166 49.667 -38.499 78s-12.5 55.833 -12.5 82.5c0 29.333 5 58.333 15 87s24.5 54.334 43.5 77.001s42.167 41 69.5 55s58.333 21 93 21c28 0 51.5 -3.66699 70.5 -11s35 -15.833 48 -25.5s24 -18.834 33 -27.501s17.5 -14 25.5 -16
c7.33301 2 15.833 7.33301 25.5 16s21.5 17.834 35.5 27.501s30.5 18.167 49.5 25.5s42.167 11 69.5 11c22 0 44.167 -3.83301 66.5 -11.5s42.5 -19.667 60.5 -36s32.667 -37.666 44 -63.999s17 -58.166 17 -95.499h-322z" />
    <glyph glyph-name="Ydieresis" unicode="&#x178;" 
d="M475 680c-14.667 -6 -26.499 -13.668 -35.499 -23.001s-16.833 -20 -23.5 -32l-162 -303v-277c0 -11.333 3.83301 -20.5 11.5 -27.5s16.167 -12.833 25.5 -17.5h-171c8 4.66699 16.167 10.334 24.5 17.001s12.5 16 12.5 28v273l-191 314c-7.33301 12.667 -15 22 -23 28
s-19 12.667 -33 20h193c-6 -2.66699 -11.333 -5.16699 -16 -7.5s-8.16699 -5.66602 -10.5 -9.99902s-2.83301 -10 -1.5 -17s5.33301 -16.167 12 -27.5l146 -247l136 261c7.33301 13.333 9.16602 23.666 5.49902 30.999s-12.5 13 -26.5 17h127zM190.001 768.999
c0 -14 -4.99902 -25.667 -14.999 -35s-21.667 -14 -35 -14s-24.5 4.66699 -33.5 14s-13.5 21 -13.5 35c0 13.333 4.66699 24.833 14 34.5s20.666 14.5 33.999 14.5s24.833 -4.83301 34.5 -14.5s14.5 -21.167 14.5 -34.5zM334.002 768.999c0 -14 -4.5 -25.667 -13.5 -35
s-20.5 -14 -34.5 -14c-13.333 0 -24.5 4.66699 -33.5 14s-13.5 21 -13.5 35c0 13.333 4.5 24.833 13.5 34.5s20.167 14.5 33.5 14.5c14 0 25.5 -4.83301 34.5 -14.5s13.5 -21.167 13.5 -34.5z" />
    <glyph glyph-name="florin" unicode="&#x192;" horiz-adv-x="383" 
d="M349 572c-1.33301 10 -4 19.834 -8 29.501s-8.83301 18.334 -14.5 26.001s-12.334 14 -20.001 19s-15.5 7.5 -23.5 7.5c-13.333 0 -24.333 -3 -33 -9s-15.834 -13.5 -21.501 -22.5s-9.83398 -19.167 -12.501 -30.5s-4.66699 -22.333 -6 -33l-14 -98h118l-6 -42h-117
l-84 -471c-3.33301 -17.333 -9.16602 -33.333 -17.499 -48s-18.666 -27.334 -30.999 -38.001s-26 -19 -41 -25s-30.167 -9 -45.5 -9c-14 0 -27.167 2 -39.5 6s-23.5 10.667 -33.5 20l8 76c0.666992 -7.33301 2.16699 -14.833 4.5 -22.5s5.83301 -14.834 10.5 -21.501
s10 -12 16 -16s12.667 -6 20 -6c21.333 0 38.5 7.83301 51.5 23.5s21.167 34.167 24.5 55.5l70 476h-78l7 42h76l16 99c6 36 21 66.5 45 91.5s56 37.5 96 37.5c16.667 0 33.334 -2.33301 50.001 -7s31.667 -11.667 45 -21z" />
    <glyph glyph-name="circumflex" unicode="&#x2c6;" 
d="M338 503c-2 -2 -10.167 0.166992 -24.5 6.5l-47.5 21.5c-20 9.33301 -42.333 20.666 -67 33.999c-24.667 -13.333 -46.667 -24.666 -66 -33.999c-8 -4 -16.167 -7.83301 -24.5 -11.5l-22.5 -10c-6.66699 -3 -12.167 -5.16699 -16.5 -6.5s-6.83301 -1.33301 -7.5 0
s2 5.5 8 12.5s13.833 15.5 23.5 25.5l32.5 32.5l33.5 32l26.5 24c7.33301 6.33301 11.666 9.5 12.999 9.5s5.83301 -3.16699 13.5 -9.5s16.834 -14.333 27.501 -24l34 -32l32.5 -32.5l24 -25.5c6.33301 -7 8.83301 -11.167 7.5 -12.5z" />
    <glyph glyph-name="caron" unicode="&#x2c7;" 
d="M62 639c1.33301 1.33301 9.33301 -1 24 -7s30.667 -13 48 -21c20 -9.33301 42.333 -20.666 67 -33.999c24.667 13.333 46.667 24.666 66 33.999c16.667 8 32.167 15 46.5 21s22.5 8.33301 24.5 7c0.666992 -1.33301 -2 -5.5 -8 -12.5s-13.833 -15.5 -23.5 -25.5
l-32.5 -32.5l-33.5 -32l-26.5 -24c-7.33301 -6.33301 -11.666 -9.5 -12.999 -9.5s-5.83301 3.16699 -13.5 9.5s-16.834 14.333 -27.501 24l-34 32l-32.5 32.5l-24 25.5c-6.33301 7 -8.83301 11.167 -7.5 12.5z" />
    <glyph glyph-name="ring" unicode="&#x2da;" 
d="M249 571c0 12 -4.16699 22.167 -12.5 30.5s-19.166 12.5 -32.499 12.5c-12.667 0 -23.167 -4.16699 -31.5 -12.5s-12.5 -18.5 -12.5 -30.5c0 -13.333 4.16699 -24.333 12.5 -33s18.833 -13 31.5 -13c13.333 0 24.166 4.33301 32.499 13s12.5 19.667 12.5 33zM273 571
c0 -18.667 -7 -34.667 -21 -48s-30 -20 -48 -20c-17.333 0 -32.666 6.66699 -45.999 20s-20 29.333 -20 48c0 18 6.66699 33.833 20 47.5s28.666 20.5 45.999 20.5c18 0 34 -6.83301 48 -20.5s21 -29.5 21 -47.5z" />
    <glyph glyph-name="tilde" unicode="&#x2dc;" 
d="M345 579c-10 -11.333 -20.6699 -21 -32.0029 -29c-9.33301 -7.33301 -20 -13.833 -32 -19.5s-24.667 -8.5 -38 -8.5c-12 0 -23.667 1.83301 -35 5.5s-21.666 7.66699 -30.999 12l-25.5 12c-7.66699 3.66699 -14.5 5.5 -20.5 5.5
c-7.33301 0 -14.166 -1.83301 -20.499 -5.5s-12.166 -7.5 -17.499 -11.5c-6 -4.66699 -11.667 -10 -17 -16l-21 12c0.666992 4 4.16699 9.83301 10.5 17.5s14.5 15.167 24.5 22.5s21.333 13.833 34 19.5s25.667 8.5 39 8.5c7.33301 0 15.666 -1.66699 24.999 -5
s19 -7 29 -11s19.833 -7.66699 29.5 -11s18.167 -5 25.5 -5c8.66699 0 16.334 1 23.001 3s12.334 4.66699 17.001 8c5.33301 3.33301 9.66602 7.33301 12.999 12z" />
    <glyph glyph-name="Delta" unicode="&#x394;" horiz-adv-x="740" 
d="M0 0v680h681v-680h-681z" />
    <glyph glyph-name="Delta" unicode="&#x2206;" horiz-adv-x="740" 
d="M0 0v680h681v-680h-681z" />
    <glyph glyph-name="endash" unicode="&#x2013;" horiz-adv-x="421" 
d="M4 231v63h387v-63h-387z" />
    <glyph glyph-name="emdash" unicode="&#x2014;" horiz-adv-x="739" 
d="M3 231v63h706v-63h-706z" />
    <glyph glyph-name="quoteleft" unicode="&#x2018;" horiz-adv-x="136" 
d="M106 563c0 -8 -1.66406 -15.168 -4.99707 -21.501s-7.5 -11.5 -12.5 -15.5s-10.333 -7 -16 -9s-10.834 -3 -15.501 -3c-17.333 0 -30.333 6 -39 18s-13 28 -13 48c0 14 2.5 27.167 7.5 39.5s11.5 23.333 19.5 33s16.833 17.334 26.5 23.001s19.167 9.16699 28.5 10.5
c3.33301 1.33301 5.5 0.833008 6.5 -1.5s-1.16699 -4.16602 -6.5 -5.49902c-3.33301 -0.666992 -7.33301 -3 -12 -7s-9.33398 -9.16699 -14.001 -15.5s-8.5 -13.5 -11.5 -21.5s-4.16699 -16.333 -3.5 -25c1.33301 0.666992 3.16602 1 5.49902 1h5.5
c13.333 0 24.833 -4.83301 34.5 -14.5s14.5 -20.834 14.5 -33.501z" />
    <glyph glyph-name="quoteright" unicode="&#x2019;" horiz-adv-x="136" 
d="M106 626c0 -14 -2.66797 -27.166 -8.00098 -39.499s-12 -23.333 -20 -33s-16.833 -17.334 -26.5 -23.001s-18.834 -9.16699 -27.501 -10.5c-3.33301 -1.33301 -5.5 -0.833008 -6.5 1.5s1.16699 4.16602 6.5 5.49902c2.66699 0.666992 6.5 3 11.5 7
s9.83301 9.16699 14.5 15.5s8.5 13.5 11.5 21.5s4.16699 16.333 3.5 25c-1.33301 -0.666992 -3.16602 -1 -5.49902 -1h-5.5c-13.333 0 -24.833 4.83301 -34.5 14.5s-14.5 20.834 -14.5 33.501c0 8 1.66699 15.167 5 21.5s7.5 11.5 12.5 15.5s10.333 7 16 9
s10.834 3 15.501 3c17.333 0 30.333 -6 39 -18s13 -28 13 -48z" />
    <glyph glyph-name="quotesinglbase" unicode="&#x201a;" horiz-adv-x="136" 
d="M127 26c0 -14 -2.66797 -27.166 -8.00098 -39.499s-12 -23.333 -20 -33s-16.833 -17.334 -26.5 -23.001s-18.834 -9.16699 -27.501 -10.5c-3.33301 -1.33301 -5.5 -0.833008 -6.5 1.5s1.16699 4.16602 6.5 5.49902c2.66699 0.666992 6.5 3 11.5 7
s9.83301 9.16699 14.5 15.5s8.5 13.5 11.5 21.5s4.16699 16.333 3.5 25c-1.33301 -0.666992 -3.16602 -1 -5.49902 -1h-5.5c-13.333 0 -24.833 4.83301 -34.5 14.5s-14.5 20.834 -14.5 33.501c0 8 1.66699 15.167 5 21.5s7.5 11.5 12.5 15.5s10.333 7 16 9
s10.834 3 15.501 3c17.333 0 30.333 -6 39 -18s13 -28 13 -48z" />
    <glyph glyph-name="quotedblleft" unicode="&#x201c;" horiz-adv-x="256" 
d="M106 563c0 -8 -1.66406 -15.168 -4.99707 -21.501s-7.5 -11.5 -12.5 -15.5s-10.333 -7 -16 -9s-10.834 -3 -15.501 -3c-17.333 0 -30.333 6 -39 18s-13 28 -13 48c0 14 2.5 27.167 7.5 39.5s11.5 23.333 19.5 33s16.833 17.334 26.5 23.001s19.167 9.16699 28.5 10.5
c3.33301 1.33301 5.5 0.833008 6.5 -1.5s-1.16699 -4.16602 -6.5 -5.49902c-3.33301 -0.666992 -7.33301 -3 -12 -7s-9.33398 -9.16699 -14.001 -15.5s-8.5 -13.5 -11.5 -21.5s-4.16699 -16.333 -3.5 -25c1.33301 0.666992 3.16602 1 5.49902 1h5.5
c13.333 0 24.833 -4.83301 34.5 -14.5s14.5 -20.834 14.5 -33.501zM226.003 562.999c0 -8 -1.66406 -15.168 -4.99707 -21.501s-7.5 -11.5 -12.5 -15.5s-10.333 -7 -16 -9s-10.834 -3 -15.501 -3c-17.333 0 -30.333 6 -39 18s-13 28 -13 48c0 14 2.5 27.167 7.5 39.5
s11.5 23.333 19.5 33s16.833 17.334 26.5 23.001s19.167 9.16699 28.5 10.5c3.33301 1.33301 5.5 0.833008 6.5 -1.5s-1.16699 -4.16602 -6.5 -5.49902c-3.33301 -0.666992 -7.33301 -3 -12 -7s-9.33398 -9.16699 -14.001 -15.5s-8.5 -13.5 -11.5 -21.5
s-4.16699 -16.333 -3.5 -25c1.33301 0.666992 3.16602 1 5.49902 1h5.5c13.333 0 24.833 -4.83301 34.5 -14.5s14.5 -20.834 14.5 -33.501z" />
    <glyph glyph-name="quotedblright" unicode="&#x201d;" horiz-adv-x="256" 
d="M106 626c0 -14 -2.66797 -27.166 -8.00098 -39.499s-12 -23.333 -20 -33s-16.833 -17.334 -26.5 -23.001s-18.834 -9.16699 -27.501 -10.5c-3.33301 -1.33301 -5.5 -0.833008 -6.5 1.5s1.16699 4.16602 6.5 5.49902c2.66699 0.666992 6.5 3 11.5 7
s9.83301 9.16699 14.5 15.5s8.5 13.5 11.5 21.5s4.16699 16.333 3.5 25c-1.33301 -0.666992 -3.16602 -1 -5.49902 -1h-5.5c-13.333 0 -24.833 4.83301 -34.5 14.5s-14.5 20.834 -14.5 33.501c0 8 1.66699 15.167 5 21.5s7.5 11.5 12.5 15.5s10.333 7 16 9
s10.834 3 15.501 3c17.333 0 30.333 -6 39 -18s13 -28 13 -48zM225.999 626.001c0 -14 -2.66797 -27.166 -8.00098 -39.499s-12 -23.333 -20 -33s-16.833 -17.334 -26.5 -23.001s-18.834 -9.16699 -27.501 -10.5c-3.33301 -1.33301 -5.5 -0.833008 -6.5 1.5
s1.16699 4.16602 6.5 5.49902c2.66699 0.666992 6.5 3 11.5 7s9.83301 9.16699 14.5 15.5s8.5 13.5 11.5 21.5s4.16699 16.333 3.5 25c-1.33301 -0.666992 -3.16602 -1 -5.49902 -1h-5.5c-13.333 0 -24.833 4.83301 -34.5 14.5s-14.5 20.834 -14.5 33.501
c0 8 1.66699 15.167 5 21.5s7.5 11.5 12.5 15.5s10.333 7 16 9s10.834 3 15.501 3c17.333 0 30.333 -6 39 -18s13 -28 13 -48z" />
    <glyph glyph-name="quotedblbase" unicode="&#x201e;" horiz-adv-x="256" 
d="M126 26c0 -14 -2.66797 -27.166 -8.00098 -39.499s-12 -23.333 -20 -33s-16.833 -17.334 -26.5 -23.001s-18.834 -9.16699 -27.501 -10.5c-3.33301 -1.33301 -5.5 -0.833008 -6.5 1.5s1.16699 4.16602 6.5 5.49902c2.66699 0.666992 6.5 3 11.5 7
s9.83301 9.16699 14.5 15.5s8.5 13.5 11.5 21.5s4.16699 16.333 3.5 25c-1.33301 -0.666992 -3.16602 -1 -5.49902 -1h-5.5c-13.333 0 -24.833 4.83301 -34.5 14.5s-14.5 20.834 -14.5 33.501c0 8 1.66699 15.167 5 21.5s7.5 11.5 12.5 15.5s10.333 7 16 9
s10.834 3 15.501 3c17.333 0 30.333 -6 39 -18s13 -28 13 -48zM245.999 26.001c0 -14 -2.66797 -27.166 -8.00098 -39.499s-12 -23.333 -20 -33s-16.833 -17.334 -26.5 -23.001s-18.834 -9.16699 -27.501 -10.5c-3.33301 -1.33301 -5.5 -0.833008 -6.5 1.5
s1.16699 4.16602 6.5 5.49902c2.66699 0.666992 6.5 3 11.5 7s9.83301 9.16699 14.5 15.5s8.5 13.5 11.5 21.5s4.16699 16.333 3.5 25c-1.33301 -0.666992 -3.16602 -1 -5.49902 -1h-5.5c-13.333 0 -24.833 4.83301 -34.5 14.5s-14.5 20.834 -14.5 33.501
c0 8 1.66699 15.167 5 21.5s7.5 11.5 12.5 15.5s10.333 7 16 9s10.834 3 15.501 3c17.333 0 30.333 -6 39 -18s13 -28 13 -48z" />
    <glyph glyph-name="dagger" unicode="&#x2020;" horiz-adv-x="461" 
d="M428 426c-2 4 -8.16699 7 -18.5 9s-21.833 3.33301 -34.5 4s-25 1 -37 1h-27h-61v-310c0 -5.33301 0.5 -14.666 1.5 -27.999s2.66699 -27.166 5 -41.499s5.16602 -27.5 8.49902 -39.5s7 -19 11 -21h-116c4 2 7.5 9 10.5 21s5.66699 25.167 8 39.5
s4.16602 28.166 5.49902 41.499s2 22.666 2 27.999v310h-63h-26c-12 0 -24.333 -0.333008 -37 -1s-24.167 -2 -34.5 -4s-16.5 -5 -18.5 -9v66h179v58c0 5.33301 -0.666992 14.833 -2 28.5s-3.16602 27.667 -5.49902 42s-5 27.333 -8 39s-6.5 18.5 -10.5 20.5h116
c-4 -2 -7.66699 -8.83301 -11 -20.5s-6.16602 -24.667 -8.49902 -39s-4 -28.333 -5 -42s-1.5 -23.167 -1.5 -28.5v-58h178v-66z" />
    <glyph glyph-name="daggerdbl" unicode="&#x2021;" horiz-adv-x="461" 
d="M431 174c-2 4 -8 7 -18 9s-21.333 3.33301 -34 4s-25.167 1 -37.5 1h-26.5h-63v-58c0 -5.33301 0.666992 -14.666 2 -27.999s3 -27.166 5 -41.499s4.66699 -27.5 8 -39.5s7 -19 11 -21h-117c4 2 7.66699 9 11 21s6.16602 25.167 8.49902 39.5
s4.16602 28.166 5.49902 41.499s2 22.666 2 27.999v58h-65h-26c-12 0 -24.333 -0.333008 -37 -1s-24.167 -2 -34.5 -4s-16.5 -5 -18.5 -9v68h181v198h-65h-26c-12 0 -24.333 -0.333008 -37 -1s-24.167 -2 -34.5 -4s-16.5 -5 -18.5 -9v66h181v58
c0 5.33301 -0.666992 14.833 -2 28.5s-3.16602 27.667 -5.49902 42s-5.16602 27.333 -8.49902 39s-7 18.5 -11 20.5h117c-4 -2 -7.66699 -8.83301 -11 -20.5s-6 -24.667 -8 -39s-3.66699 -28.333 -5 -42s-2 -23.167 -2 -28.5v-58h179v-66c-2 4 -8 7 -18 9
s-21.333 3.33301 -34 4s-25.167 1 -37.5 1h-26.5h-63v-198h179v-68z" />
    <glyph glyph-name="bullet" unicode="&#x2022;" horiz-adv-x="390" 
d="M356 325c0 -24 -4.5 -46.333 -13.5 -67s-21.5 -38.834 -37.5 -54.501s-34.5 -28 -55.5 -37s-43.5 -13.5 -67.5 -13.5c-24.667 0 -47.5 4.5 -68.5 13.5s-39.333 21.333 -55 37s-28 33.834 -37 54.501s-13.5 43 -13.5 67c0 24.667 4.5 47.5 13.5 68.5s21.333 39.333 37 55
s34 28 55 37s43.833 13.5 68.5 13.5c24 0 46.5 -4.5 67.5 -13.5s39.5 -21.333 55.5 -37s28.5 -34 37.5 -55s13.5 -43.833 13.5 -68.5z" />
    <glyph glyph-name="ellipsis" unicode="&#x2026;" horiz-adv-x="616" 
d="M125 43c0 -13.333 -4.83301 -24.666 -14.5 -33.999s-21.167 -14 -34.5 -14c-14 0 -25.833 4.66699 -35.5 14s-14.5 20.666 -14.5 33.999c0 14 4.83301 25.667 14.5 35s21.5 14 35.5 14c13.333 0 24.833 -4.66699 34.5 -14s14.5 -21 14.5 -35zM348 43
c0 -13.333 -4.66699 -24.666 -14 -33.999s-21.666 -14 -36.999 -14c-13.333 0 -24.833 4.66699 -34.5 14s-14.5 20.666 -14.5 33.999c0 14 4.83301 25.667 14.5 35s21.167 14 34.5 14c15.333 0 27.666 -4.66699 36.999 -14s14 -21 14 -35zM563 43
c0 -13.333 -4.66699 -24.666 -14 -33.999s-20.666 -14 -33.999 -14c-14 0 -25.667 4.66699 -35 14s-14 20.666 -14 33.999c0 14 4.66699 25.667 14 35s21 14 35 14c13.333 0 24.666 -4.66699 33.999 -14s14 -21 14 -35z" />
    <glyph glyph-name="perthousand" unicode="&#x2030;" horiz-adv-x="872" 
d="M471 160c0 46 -5.83105 82.501 -17.498 109.501s-26.167 40.5 -43.5 40.5c-19.333 0 -35.333 -12.833 -48 -38.5s-19 -61.5 -19 -107.5c-0.666992 -50.667 5.16602 -87.834 17.499 -111.501s27.166 -35.5 44.499 -35.5c19.333 -0.666992 35 11 47 35s18.333 60 19 108z
M207.002 519.001c0.666992 46 -4.66504 82.333 -15.998 109s-25.666 40 -42.999 40c-19.333 0 -35.333 -12.5 -48 -37.5s-19.334 -61.167 -20.001 -108.5c-0.666992 -50.667 5.16602 -87.5 17.499 -110.5s27.166 -34.833 44.499 -35.5c18.667 -0.666992 34 11 46 35
s18.333 60 19 108zM769.003 160.001c0.666992 46 -5 82.501 -17 109.501s-26.667 40.5 -44 40.5c-18.667 0 -34.167 -12.833 -46.5 -38.5s-18.833 -61.5 -19.5 -107.5c-0.666992 -50.667 5 -87.834 17 -111.501s26.667 -35.5 44 -35.5c19.333 -0.666992 35 11 47 35
s18.333 60 19 108zM541.003 162.002c0 -28 -4.00195 -52.665 -12.002 -73.998s-18.5 -39 -31.5 -53s-27.5 -24.5 -43.5 -31.5s-32.333 -10.5 -49 -10.5c-17.333 0 -33.833 3.66699 -49.5 11s-29.667 18 -42 32s-22.166 31.333 -29.499 52s-11 44.667 -11 72
c0 25.333 3.5 48.333 10.5 69s16.667 38.5 29 53.5s26.833 26.5 43.5 34.5s34.334 12 53.001 12c18 0 35 -4 51 -12s30 -19.333 42 -34s21.5 -32.334 28.5 -53.001s10.5 -43.334 10.5 -68.001zM490.001 680.004l-47.999 -83l-67.5 -121l-76 -140l-75 -139l-62.5 -118.5
c-18 -35 -31 -61.167 -39 -78.5h-60c11.333 18 27.166 45 47.499 81l67 120.5l76.5 140l75 139.5l63 119.5c18.667 35.667 32 62.167 40 79.5h59zM278.002 519.004c0 -28 -4.00293 -52.4971 -12.0029 -73.4971s-18.333 -38.5 -31 -52.5s-27.167 -24.5 -43.5 -31.5
s-32.833 -10.5 -49.5 -10.5s-33 3.66699 -49 11s-30.167 18.166 -42.5 32.499s-22.166 31.833 -29.499 52.5s-11 44.667 -11 72c0 24.667 3.5 47.5 10.5 68.5s16.833 38.833 29.5 53.5s27.334 26 44.001 34s34.667 12 54 12c18 0 34.833 -4.16699 50.5 -12.5
s29.334 -19.833 41.001 -34.5s21 -32.334 28 -53.001s10.5 -43.334 10.5 -68.001zM839.999 162.007c0 -28 -4.00293 -52.665 -12.0029 -73.998s-18.333 -39 -31 -53s-27.167 -24.5 -43.5 -31.5s-32.833 -10.5 -49.5 -10.5s-33 3.66699 -49 11s-30.167 18 -42.5 32
s-22.166 31.333 -29.499 52s-11 44.667 -11 72c0 25.333 3.5 48.333 10.5 69s16.833 38.5 29.5 53.5s27.334 26.5 44.001 34.5s34.667 12 54 12c18 0 34.833 -4 50.5 -12s29.334 -19.333 41.001 -34s21 -32.334 28 -53.001s10.5 -43.334 10.5 -68.001z" />
    <glyph glyph-name="guilsinglleft" unicode="&#x2039;" horiz-adv-x="181" 
d="M25 259v52l108 143v-61l-70 -108l70 -108v-60z" />
    <glyph glyph-name="guilsinglright" unicode="&#x203a;" horiz-adv-x="181" 
d="M27 117v60l69 108l-69 108v61l108 -143v-52z" />
    <glyph glyph-name="fraction" unicode="&#x2044;" horiz-adv-x="480" 
d="M453 680c-10.667 -19.333 -26.833 -47.168 -48.5 -83.501l-73 -121.5l-84.5 -139.5l-83 -138.5l-68.5 -118.5c-19.667 -35 -33.167 -61.167 -40.5 -78.5h-59c10 18.667 25.833 45.834 47.5 81.501l73 120l85 139.5l83.5 139.5l69 119.5c20 35.333 34 62 42 80h57z" />
    <glyph glyph-name="fraction" unicode="&#x2215;" horiz-adv-x="480" 
d="M453 680c-10.667 -19.333 -26.833 -47.168 -48.5 -83.501l-73 -121.5l-84.5 -139.5l-83 -138.5l-68.5 -118.5c-19.667 -35 -33.167 -61.167 -40.5 -78.5h-59c10 18.667 25.833 45.834 47.5 81.501l73 120l85 139.5l83.5 139.5l69 119.5c20 35.333 34 62 42 80h57z" />
    <glyph glyph-name="trademark" unicode="&#x2122;" horiz-adv-x="305" 
d="M90 666v-200h-18v200h-40v14h96v-14h-38zM288 466v202l-52 -202h-15l-49 202v-202h-16v214h29l43 -180l47 180h28v-214h-15z" />
    <glyph glyph-name="radical" unicode="&#x221a;" horiz-adv-x="303" 
d="M132 525c0 -19.333 -4.83105 -34.668 -14.498 -46.001s-24.5 -17 -44.5 -17c-6.66699 0 -13.834 1 -21.501 3s-14.167 4.66699 -19.5 8l-1 1v13h1c4.66699 -2.66699 11.167 -5.16699 19.5 -7.5s15.5 -3.5 21.5 -3.5c17.333 0 29.166 4.66699 35.499 14
s9.5 20.666 9.5 33.999c0 12.667 -4.5 22.167 -13.5 28.5s-18.833 12.333 -29.5 18s-20.5 12.667 -29.5 21s-13.5 20.833 -13.5 37.5c0 16 5 28.833 15 38.5s22.333 14.5 37 14.5c7.33301 0 13.833 -0.666992 19.5 -2s12.167 -3.66602 19.5 -6.99902v-1v-13h-2
c-12 6 -24.333 9 -37 9c-12 0 -21.167 -3.66699 -27.5 -11s-9.5 -16.666 -9.5 -27.999c0 -12.667 4.5 -22.167 13.5 -28.5s18.667 -12.333 29 -18s20 -12.667 29 -21s13.5 -20.5 13.5 -36.5zM288.002 465.998v202l-52 -202h-15l-49 202v-202h-16v214h29l43 -180l47 180h28
v-214h-15z" />
    <glyph glyph-name="notequal" unicode="&#x2260;" horiz-adv-x="429" 
d="M165 247l-36 -47h-70l37 47h-67v56h110l57 73h-167v56h208l33 43h73l-33 -43h64v-56h-111l-58 -73h169v-56h-209z" />
    <glyph glyph-name="lessequal" unicode="&#x2264;" 
d="M31 96v55h345v-55h-345zM33 365v51l343 200v-63l-282 -162l282 -160v-64z" />
    <glyph glyph-name="greaterequal" unicode="&#x2265;" horiz-adv-x="429" 
d="M31 96v55h343v-55h-343zM31 167v64l280 160l-280 162v63l343 -200v-51z" />
    <glyph glyph-name=".null" horiz-adv-x="0" 
 />
    <glyph glyph-name="nonmarkingreturn" horiz-adv-x="212" 
 />
    <glyph glyph-name="apple" horiz-adv-x="738" 
d="M653 657h-630v-634h630v634zM-1 0v680h677v-680h-677z" />
    </font>
</defs>
</svg>
